<svg width="470" height="492" viewBox="0 0 470 492" fill="none" xmlns="http://www.w3.org/2000/svg">
<path opacity="0.76" d="M240.606 30.5872H229.394C102.703 30.5872 0 133.29 0 259.981C0 386.671 102.703 489.374 229.394 489.374H240.606C367.297 489.374 470 386.671 470 259.981C470 133.29 367.297 30.5872 240.606 30.5872Z" fill="#4A97D2"/>
<path d="M292.681 360.606L216.031 366.692L216.485 372.402L293.135 366.316L292.681 360.606Z" fill="#720C53"/>
<path d="M289.043 372.762C291.339 372.762 293.201 370.9 293.201 368.604C293.201 366.307 291.339 364.446 289.043 364.446C286.746 364.446 284.885 366.307 284.885 368.604C284.885 370.9 286.746 372.762 289.043 372.762Z" fill="#720C53"/>
<path d="M467.197 403.382H0V489.375H467.197V403.382Z" fill="#71A7B3"/>
<path d="M35.3829 357.559C39.2425 358.718 42.4956 361.34 44.4466 364.866C40.8721 366.726 36.7129 367.118 32.8543 365.957C28.9957 364.796 25.7425 362.176 23.7871 358.653C27.3616 356.789 31.5231 356.397 35.3829 357.559V357.559Z" fill="#FFE5D7"/>
<path d="M23.7871 358.653C27.3611 356.791 31.5211 356.398 35.3804 357.559C39.2397 358.719 42.4929 361.342 44.4466 364.867L23.7871 358.653Z" fill="#FFE5D7"/>
<path d="M23.7871 358.653L23.9273 358.588L44.3718 364.736C44.4021 364.776 44.4273 364.82 44.4466 364.867L44.3157 364.932L23.8619 358.784L23.7871 358.653Z" fill="#FFE5D7"/>
<path d="M44.4473 364.867C48.4789 364.896 52.3624 363.349 55.2703 360.557C58.1781 357.764 59.8804 353.946 60.0143 349.917L44.4473 364.867Z" fill="#FFE5D7"/>
<path d="M59.7321 338.189C59.7364 338.239 59.7364 338.289 59.7321 338.339L42.044 350.327H41.8945V350.178L59.5639 338.189H59.7321Z" fill="#FFE5D7"/>
<path d="M22.8379 324.333C26.7671 323.444 30.888 324.125 34.3229 326.229C37.7577 328.334 40.2349 331.697 41.2268 335.602L22.8379 324.333Z" fill="#FFE5D7"/>
<path d="M25.3125 307.738H25.462L42.4119 320.726V320.875H42.2624L25.3125 307.887V307.738Z" fill="#FFE5D7"/>
<path d="M62.3927 312.634C62.367 312.679 62.3451 312.725 62.3273 312.774L42.5835 320.912L42.4434 320.856C42.4613 320.808 42.4831 320.761 42.5088 320.716L62.2432 312.578L62.3927 312.634Z" fill="#FFE5D7"/>
<path d="M49.0091 291.339C51.0312 294.824 51.6139 298.959 50.6332 302.867C49.6524 306.774 47.1857 310.144 43.7578 312.26L49.0091 291.339Z" fill="#FFE5D7"/>
<path d="M49.007 291.339L49.0817 291.47L43.9146 312.176L43.7837 312.26L43.709 312.13L48.9042 291.414L49.007 291.339Z" fill="#FFE5D7"/>
<path d="M85.2841 361.363C81.8959 362.601 79.124 365.112 77.5566 368.361C80.8631 369.841 84.6164 369.971 88.0177 368.725C91.4189 367.479 94.1996 364.955 95.768 361.69C92.4512 360.211 88.6866 360.094 85.2841 361.363V361.363Z" fill="#FFE5D7"/>
<path d="M95.7493 361.69C92.4452 360.214 88.6956 360.085 85.2981 361.331C81.9005 362.577 79.1231 365.099 77.5566 368.361L95.7493 361.69Z" fill="#FFE5D7"/>
<path d="M95.7507 361.69L95.6198 361.634L77.558 368.24L77.502 368.362L77.6234 368.418L95.6479 361.812C95.7039 361.765 95.732 361.727 95.7507 361.69Z" fill="#FFE5D7"/>
<path d="M87.9938 368.726C91.3997 367.485 94.1839 364.959 95.7493 361.69C92.4452 360.214 88.6956 360.085 85.2981 361.331C81.9005 362.577 79.1231 365.099 77.5566 368.361C80.8543 369.842 84.6009 369.973 87.9938 368.726V368.726Z" fill="#FFE5D7"/>
<path d="M77.5566 368.361C80.8631 369.84 84.6164 369.971 88.0177 368.725C91.4189 367.479 94.1996 364.955 95.768 361.689L77.5566 368.361Z" fill="#FFE5D7"/>
<path d="M77.5566 368.362L77.6781 368.418L95.7026 361.812C95.7026 361.765 95.7026 361.727 95.768 361.69L95.6372 361.634L77.5566 368.24V368.362Z" fill="#FFE5D7"/>
<path d="M85.6169 347C82.4538 348.76 80.1058 351.688 79.0762 355.158C82.5729 356.104 86.3008 355.648 89.4665 353.887C92.6322 352.126 94.9857 349.2 96.0261 345.73C92.5239 344.773 88.7862 345.23 85.6169 347V347Z" fill="#FFE5D7"/>
<path d="M96.0104 345.731C92.5137 344.784 88.7858 345.24 85.6201 347.001C82.4544 348.762 80.1009 351.689 79.0605 355.159L96.0104 345.731Z" fill="#FFE5D7"/>
<path d="M96.0104 345.73H95.8796L79.0605 355.074V355.196H79.1914L96.0104 345.852C95.9824 345.814 95.9918 345.768 96.0104 345.73Z" fill="#FFE5D7"/>
<path d="M62.391 345.244C62.3879 345.287 62.3879 345.331 62.391 345.375L78.883 355.186H79.0232C79.0232 355.186 79.0232 355.102 79.0232 355.055L62.5311 345.244C62.4846 345.238 62.4375 345.238 62.391 345.244V345.244Z" fill="#FFE5D7"/>
<path d="M84.5537 333.144C81.5788 335.212 79.5353 338.367 78.8633 341.927C82.4349 342.508 86.0921 341.673 89.0582 339.6C92.0242 337.527 94.0653 334.38 94.748 330.827C91.1777 330.239 87.5193 331.071 84.5537 333.144V333.144Z" fill="#FFE5D7"/>
<path d="M94.7656 330.827C91.1936 330.244 87.5352 331.077 84.5686 333.15C81.6019 335.224 79.5613 338.372 78.8809 341.927L94.7656 330.827Z" fill="#FFE5D7"/>
<path d="M94.7634 330.827H94.6326L78.8881 341.787C78.8837 341.834 78.8837 341.881 78.8881 341.927H79.0189L94.7634 330.939V330.827Z" fill="#FFE5D7"/>
<path d="M76.8901 328.742C80.7398 348.047 79.441 367.052 72.9844 383.638C73.0879 383.749 73.1788 383.871 73.2554 384.002C79.7961 367.342 81.151 348.168 77.2732 328.724C77.1462 328.739 77.0181 328.746 76.8901 328.742V328.742Z" fill="#FFE5D7"/>
<path d="M73.2089 329.958C73.7795 333.551 75.7393 336.776 78.6658 338.937C80.7384 335.966 81.57 332.302 80.9837 328.727C80.3974 325.152 78.4395 321.946 75.5262 319.792C73.4615 322.75 72.6304 326.397 73.2089 329.958V329.958Z" fill="#FFE5D7"/>
<path d="M75.5264 319.754C73.4422 322.729 72.6039 326.401 73.1905 329.985C73.7772 333.57 75.7422 336.782 78.6659 338.937L75.5264 319.754Z" fill="#FFE5D7"/>
<path d="M75.5298 319.754L75.4551 319.867L78.5666 338.816L78.6694 338.9L78.7441 338.779L75.6887 319.838L75.5298 319.754Z" fill="#FFE5D7"/>
<path d="M396.511 380.275H371.404V384.349H373.507L373.628 386.05L375.497 412.998C375.777 417.081 377.599 420.136 379.758 420.136H413.489C415.638 420.136 417.461 417.081 417.741 412.998L419.61 386.05L419.75 384.349H422.104V380.275H396.988C397.119 380.051 396.642 380.051 396.511 380.275Z" fill="#213F9A"/>
<path d="M35.3868 357.559C39.2464 358.718 42.4995 361.34 44.4505 364.866C40.8761 366.726 36.7168 367.118 32.8582 365.957C28.9996 364.797 25.7464 362.176 23.791 358.653C27.3655 356.789 31.527 356.397 35.3868 357.559V357.559Z" fill="#213F9A"/>
<path d="M23.791 358.653C27.365 356.79 31.525 356.398 35.3843 357.559C39.2436 358.719 42.4968 361.342 44.4505 364.866L23.791 358.653Z" fill="#213F9A"/>
<path d="M23.791 358.653L23.9312 358.588L44.3757 364.736C44.406 364.776 44.4312 364.82 44.4505 364.867L44.3196 364.932L23.8658 358.784L23.791 358.653Z" fill="#213F9A"/>
<path d="M55.2715 360.559C58.1837 357.772 59.8878 353.954 60.0182 349.925C55.9866 349.896 52.103 351.443 49.1952 354.235C46.2873 357.028 44.5851 360.846 44.4512 364.876C48.4837 364.907 52.3681 363.357 55.2715 360.559V360.559Z" fill="#213F9A"/>
<path d="M44.4512 364.866H44.6007L60.0088 350.084C60.0088 350.038 60.0088 349.982 60.0088 349.935H59.8593L44.4605 364.717C44.4605 364.764 44.4512 364.81 44.4512 364.866Z" fill="#213F9A"/>
<path d="M34.0692 341.684C37.7031 343.427 40.5105 346.522 41.89 350.309C38.0703 351.589 33.9019 351.329 30.2708 349.584C26.6398 347.839 23.8323 344.747 22.4453 340.965C26.265 339.676 30.4376 339.934 34.0692 341.684V341.684Z" fill="#213F9A"/>
<path d="M22.4277 340.955C26.2475 339.675 30.4159 339.935 34.0469 341.68C37.678 343.425 40.4854 346.517 41.8725 350.299L22.4277 340.955Z" fill="#213F9A"/>
<path d="M22.4277 340.955L22.5772 340.909L41.8351 350.15L41.8912 350.29L41.7417 350.337L22.5025 341.077L22.4277 340.955Z" fill="#213F9A"/>
<path d="M53.2618 347.879C49.9324 350.148 45.8462 351.02 41.8809 350.309C42.6799 346.354 44.9946 342.869 48.3297 340.599C51.6649 338.329 55.7559 337.455 59.7278 338.162C58.9274 342.122 56.6059 345.611 53.2618 347.879Z" fill="#213F9A"/>
<path d="M59.7414 338.189C58.938 342.141 56.6224 345.623 53.2884 347.892C49.9544 350.162 45.8659 351.039 41.8945 350.336L59.7414 338.189Z" fill="#213F9A"/>
<path d="M34.3196 326.229C37.7552 328.321 40.2342 331.675 41.2248 335.573C37.2956 336.462 33.1747 335.782 29.7398 333.677C26.305 331.572 23.8278 328.209 22.8359 324.304C26.7681 323.415 30.8923 324.107 34.3196 326.229V326.229Z" fill="#213F9A"/>
<path d="M22.8359 324.332H22.9761L41.1874 335.489V335.639H41.0473L22.8733 324.473C22.8733 324.473 22.8453 324.379 22.8359 324.332Z" fill="#213F9A"/>
<path d="M52.8057 334.331C49.2597 336.247 45.1057 336.703 41.2285 335.602C42.4299 331.752 45.0867 328.524 48.6331 326.604C52.1795 324.684 56.3353 324.225 60.2154 325.323C59.023 329.182 56.3618 332.417 52.8057 334.331V334.331Z" fill="#213F9A"/>
<path d="M60.2154 325.351C59.014 329.2 56.3572 332.429 52.8108 334.348C49.2644 336.268 45.1086 336.728 41.2285 335.629L60.2154 325.351Z" fill="#213F9A"/>
<path d="M60.2154 325.351C60.2194 325.397 60.2194 325.444 60.2154 325.491L41.378 335.638H41.2285L41.2846 335.489L60.0659 325.351H60.2154Z" fill="#213F9A"/>
<path d="M36.5459 310.821C39.7477 313.267 41.8642 316.869 42.4419 320.856C38.4466 321.331 34.4237 320.23 31.2263 317.788C28.0289 315.346 25.9084 311.754 25.3145 307.775C29.3126 307.282 33.3446 308.376 36.5459 310.821V310.821Z" fill="#213F9A"/>
<path d="M25.3145 307.738C29.3098 307.264 33.3326 308.364 36.5301 310.806C39.7275 313.248 41.848 316.84 42.4419 320.819L25.3145 307.738Z" fill="#213F9A"/>
<path d="M54.084 320.8C50.3598 322.341 46.1802 322.361 42.4414 320.856C44.0376 317.155 47.0167 314.224 50.7436 312.687C54.4704 311.151 58.6499 311.132 62.3907 312.634C60.793 316.335 57.8121 319.266 54.084 320.8V320.8Z" fill="#213F9A"/>
<path d="M62.3907 312.634C60.7927 316.334 57.8133 319.264 54.0871 320.8C50.361 322.335 46.1824 322.356 42.4414 320.857L62.3907 312.634Z" fill="#213F9A"/>
<path d="M50.6359 302.86C49.6607 306.772 47.192 310.147 43.7587 312.26C41.7342 308.777 41.1501 304.64 42.1311 300.732C43.112 296.824 45.5803 293.454 49.01 291.339C51.0378 294.819 51.6215 298.955 50.6359 302.86Z" fill="#213F9A"/>
<path d="M47.7671 298.048C38.3017 327.481 39.3576 357.307 50.5049 381.517C50.4007 381.648 50.3099 381.789 50.2339 381.938C38.9464 357.625 37.8345 327.546 47.356 297.917L47.7671 298.048Z" fill="#213F9A"/>
<path d="M67.5617 365.194C70.3492 367.521 73.9404 368.659 77.5597 368.361C77.1743 364.755 75.3959 361.441 72.6033 359.127C69.8106 356.813 66.2247 355.68 62.6094 355.971C62.986 359.576 64.7646 362.889 67.5617 365.194V365.194Z" fill="#213F9A"/>
<path d="M62.6094 355.971C62.9947 359.577 64.7732 362.89 67.5658 365.205C70.3584 367.519 73.9444 368.652 77.5597 368.361L62.6094 355.971Z" fill="#213F9A"/>
<path d="M62.603 355.971C62.5985 356.014 62.5985 356.058 62.603 356.102L77.3664 368.37H77.5533C77.5481 368.327 77.5481 368.283 77.5533 368.239L62.7431 355.962L62.603 355.971Z" fill="#213F9A"/>
<path d="M68.7091 353.588C71.8216 355.446 75.5387 356.01 79.0622 355.158C78.1204 351.661 75.8522 348.669 72.7395 346.818C69.6268 344.966 65.9149 344.402 62.3926 345.244C63.3283 348.743 65.5952 351.738 68.7091 353.588V353.588Z" fill="#213F9A"/>
<path d="M62.3926 345.244C63.3301 348.744 65.5975 351.739 68.7115 353.591C71.8254 355.443 75.5395 356.005 79.0622 355.158L62.3926 345.244Z" fill="#213F9A"/>
<path d="M68.399 341.404C71.6849 342.94 75.4414 343.128 78.8642 341.928C77.5771 338.539 75.0176 335.787 71.731 334.258C68.4443 332.729 64.6906 332.544 61.2695 333.742C62.5513 337.131 65.1111 339.882 68.399 341.404V341.404Z" fill="#213F9A"/>
<path d="M61.2695 333.742C62.5585 337.129 65.1183 339.879 68.4043 341.408C71.6903 342.937 75.443 343.123 78.8642 341.927L61.2695 333.742Z" fill="#213F9A"/>
<path d="M61.2695 333.742L61.3256 333.863L78.7333 341.965H78.8642L78.8081 341.834L61.4003 333.733L61.2695 333.742Z" fill="#213F9A"/>
<path d="M81.722 427.219H39.5808C36.8898 427.219 34.6098 423.406 34.2641 418.305L31.4609 377.416H89.8419L87.0387 418.305C86.693 423.406 84.413 427.219 81.722 427.219Z" fill="#213F9A"/>
<path d="M92.4868 377.416H29.1816V382.508H92.4868V377.416Z" fill="#213F9A"/>
<path d="M89.3751 384.629H31.9566L31.8164 382.507H89.5526L89.3751 384.629Z" fill="#213F9A"/>
<path d="M437.96 357.69C432.022 354.133 424.943 352.994 418.188 354.509C411.434 356.024 405.519 360.076 401.668 365.829C401.865 364.895 402.052 364.007 402.22 363.082C402.69 360.451 403.017 357.796 403.201 355.13C410.051 356.518 417.173 355.196 423.069 351.443C428.966 347.69 433.178 341.797 434.821 335.003H434.559C427.945 333.659 421.066 334.84 415.279 338.315C409.492 341.789 405.217 347.305 403.294 353.775C403.462 350.75 403.462 347.718 403.294 344.693C409.828 342.274 415.173 337.422 418.211 331.153C421.25 324.884 421.748 317.682 419.599 311.055V311.055C419.599 311.008 419.599 310.961 419.599 310.924C419.605 310.884 419.605 310.843 419.599 310.803L419.357 310.896C414.683 312.644 410.585 315.653 407.518 319.589C404.45 323.524 402.532 328.232 401.977 333.191C401.725 331.836 401.435 330.472 401.117 329.107C404.618 323.102 405.694 315.986 404.126 309.214C402.56 302.36 398.366 296.394 392.446 292.601V292.601L392.315 292.825C388.83 298.826 387.761 305.929 389.325 312.69C390.853 319.425 394.915 325.314 400.669 329.135V329.135C401.061 330.836 401.407 332.53 401.706 334.218C401.47 337.592 401.869 340.981 402.883 344.207C402.949 345.31 402.995 346.403 403.014 347.487C402.199 341.462 399.375 335.889 394.998 331.67C390.621 327.451 384.948 324.832 378.897 324.239V324.239H378.636C378.64 324.326 378.64 324.414 378.636 324.501V324.501C378.266 331.44 380.593 338.253 385.13 343.516C386.052 344.588 387.058 345.584 388.138 346.496C382.356 343.67 375.754 343.007 369.525 344.628L369.264 344.684L369.348 344.936C371.38 351.568 375.887 357.164 381.935 360.561C387.982 363.959 395.106 364.899 401.827 363.185C400.725 369.428 398.753 375.485 395.969 381.181H396.296C398.607 376.418 400.354 371.4 401.5 366.231C407.5 369.852 414.672 370.999 421.502 369.43C428.331 367.861 434.283 363.698 438.1 357.821L437.96 357.69ZM393.801 350.15C396.704 351.567 399.837 352.456 403.051 352.776C402.917 356.027 402.577 359.266 402.033 362.475C400.493 357.678 397.642 353.409 393.801 350.15V350.15Z" fill="#213F9A"/>
<path d="M338.695 315.3C396.74 257.255 396.74 163.145 338.695 105.1C280.65 47.055 186.54 47.055 128.495 105.1C70.4495 163.145 70.4494 257.255 128.495 315.3C186.54 373.346 280.65 373.346 338.695 315.3Z" fill="#4A97D2"/>
<path d="M189.79 179.38H183.137C180.314 179.38 177.607 178.259 175.611 176.263C173.615 174.267 172.494 171.56 172.494 168.737V136.697C172.494 133.874 173.615 131.167 175.611 129.171C177.607 127.175 180.314 126.054 183.137 126.054H283.491C286.313 126.054 289.02 127.175 291.016 129.171C293.012 131.167 294.134 133.874 294.134 136.697V168.737C294.134 171.56 293.012 174.267 291.016 176.263C289.02 178.259 286.313 179.38 283.491 179.38H198.368" fill="#FFD89E"/>
<path d="M185.523 139.341H227.515" stroke="#EF6D14" stroke-opacity="0.39" stroke-miterlimit="10"/>
<path d="M237.906 162.431H279.907" stroke="#EF6D14" stroke-opacity="0.39" stroke-miterlimit="10"/>
<path d="M233.934 139.341H275.935" stroke="#EF6D14" stroke-opacity="0.39" stroke-miterlimit="10"/>
<path d="M185.523 150.012H254.94" stroke="#EF6D14" stroke-opacity="0.39" stroke-miterlimit="10"/>
<path d="M185.523 162.431H233.934" stroke="#EF6D14" stroke-opacity="0.39" stroke-miterlimit="10"/>
<path d="M189.79 306.495H183.137C180.314 306.495 177.607 305.374 175.611 303.378C173.615 301.382 172.494 298.675 172.494 295.852V263.812C172.494 260.989 173.615 258.282 175.611 256.286C177.607 254.29 180.314 253.169 183.137 253.169H283.491C286.313 253.169 289.02 254.29 291.016 256.286C293.012 258.282 294.134 260.989 294.134 263.812V295.852C294.134 298.675 293.012 301.382 291.016 303.378C289.02 305.374 286.313 306.495 283.491 306.495H198.368" fill="#FFD89E"/>
<path d="M185.523 266.465H215.714" stroke="#F49024" stroke-miterlimit="10"/>
<path d="M217.908 266.465H248.098" stroke="#F49024" stroke-miterlimit="10"/>
<path d="M250.984 266.465H281.175" stroke="#F49024" stroke-miterlimit="10"/>
<path d="M185.523 277.136H254.94" stroke="#F49024" stroke-miterlimit="10"/>
<path d="M185.523 289.554H212.322" stroke="#F49024" stroke-miterlimit="10"/>
<path d="M217.908 289.554H244.707" stroke="#F49024" stroke-miterlimit="10"/>
<path d="M189.79 242.443H183.137C180.314 242.443 177.607 241.322 175.611 239.326C173.615 237.33 172.494 234.623 172.494 231.8V199.76C172.494 196.937 173.615 194.23 175.611 192.234C177.607 190.238 180.314 189.117 183.137 189.117H283.491C286.313 189.117 289.02 190.238 291.016 192.234C293.012 194.23 294.134 196.937 294.134 199.76V231.8C294.134 233.198 293.858 234.582 293.323 235.873C292.789 237.164 292.005 238.337 291.016 239.326C290.028 240.314 288.855 241.098 287.564 241.633C286.272 242.168 284.888 242.443 283.491 242.443H198.368" fill="#FFD89E"/>
<path d="M135.873 180.684L145.1 175.068L126.278 144.147L117.051 149.764L135.873 180.684Z" fill="#E2DC3D"/>
<path d="M144.702 176.165L148.371 173.92L129.548 143.151L125.879 145.396L144.702 176.165Z" fill="#03B7DF"/>
<path d="M152.304 127.363C154.097 126.195 156.278 125.778 158.375 126.203C160.473 126.628 162.319 127.86 163.517 129.634L176.262 148.321C176.911 149.274 177.351 150.354 177.553 151.489C177.755 152.624 177.715 153.79 177.434 154.908C177.153 156.026 176.639 157.073 175.925 157.978C175.211 158.883 174.313 159.627 173.291 160.16L162.779 165.645C162.315 165.886 161.905 166.22 161.575 166.626C161.246 167.032 161.003 167.502 160.862 168.005C160.721 168.509 160.684 169.036 160.755 169.554C160.826 170.073 161.003 170.571 161.274 171.018L164.489 176.288C164.892 176.957 165.059 177.742 164.964 178.517C164.869 179.292 164.517 180.013 163.964 180.565C163.411 181.117 162.689 181.468 161.914 181.561C161.138 181.655 160.354 181.486 159.686 181.081L147.455 173.606L128.617 142.715L152.304 127.363Z" fill="#E2DC3D"/>
<path d="M329.694 291.787L320.678 288.088L308.281 318.3L317.297 322L329.694 291.787Z" fill="#E2DC3D"/>
<path d="M321.562 288.503L317.957 287.024L305.555 317.234L309.159 318.714L321.562 288.503Z" fill="#03B7DF"/>
<path d="M295.081 276.837C293.323 276.055 291.328 275.993 289.524 276.663C287.72 277.334 286.25 278.684 285.429 280.425L276.721 298.908C276.275 299.849 276.033 300.873 276.013 301.914C275.993 302.955 276.194 303.989 276.603 304.946C277.012 305.904 277.619 306.764 278.386 307.469C279.152 308.174 280.059 308.708 281.047 309.037L291.185 312.438C291.633 312.588 292.044 312.828 292.395 313.144C292.746 313.46 293.028 313.844 293.224 314.273C293.421 314.702 293.527 315.167 293.536 315.639C293.545 316.111 293.457 316.58 293.278 317.016L291.166 322.155C290.897 322.808 290.856 323.533 291.048 324.213C291.241 324.892 291.656 325.487 292.227 325.902C292.799 326.317 293.493 326.528 294.199 326.501C294.905 326.474 295.581 326.211 296.119 325.753L305.958 317.343L318.357 287.134L295.081 276.837Z" fill="#E2DC3D"/>
<path d="M193.657 197.797L198.6 207.813L209.654 209.421L201.655 217.213L203.543 228.221L193.657 223.025L183.771 228.221L185.659 217.213L177.66 209.421L188.714 207.813L193.657 197.797Z" fill="#EF1600" fill-opacity="0.49"/>
<path d="M219.636 204.441L222.421 210.085L228.644 210.991L224.14 215.373L225.196 221.578L219.636 218.653L214.067 221.578L215.133 215.373L210.629 210.991L216.852 210.085L219.636 204.441Z" fill="#EF6D14" fill-opacity="0.39"/>
<path d="M239.765 204.441L242.55 210.085L248.773 210.991L244.269 215.373L245.334 221.578L239.765 218.653L234.206 221.578L235.262 215.373L230.758 210.991L236.99 210.085L239.765 204.441Z" fill="#EF6D14" fill-opacity="0.39"/>
<path d="M259.904 204.441L262.689 210.085L268.912 210.991L264.408 215.373L265.473 221.578L259.904 218.653L254.335 221.578L255.4 215.373L250.896 210.991L257.12 210.085L259.904 204.441Z" fill="#EF6D14" fill-opacity="0.39"/>
<path d="M280.039 204.441L282.823 210.085L289.046 210.991L284.543 215.373L285.598 221.578L280.039 218.653L274.47 221.578L275.535 215.373L271.031 210.991L277.254 210.085L280.039 204.441Z" fill="#EF6D14" fill-opacity="0.39"/>
<path d="M282.496 121.541C280.719 126.867 280.009 132.491 280.406 138.092C280.803 143.692 282.299 149.16 284.809 154.182C287.32 159.204 290.794 163.683 295.036 167.362C299.277 171.041 304.201 173.848 309.528 175.624L336.579 94.4998C325.821 90.9144 314.079 91.7491 303.937 96.8203C293.795 101.891 286.082 110.784 282.496 121.541Z" fill="#FF8D88"/>
<path d="M336.576 94.4999L309.525 175.624C320.271 179.167 331.984 178.306 342.096 173.23C352.209 168.153 359.897 159.276 363.476 148.542C367.055 137.808 366.234 126.092 361.192 115.963C356.15 105.833 347.298 98.1154 336.576 94.4999Z" fill="#FFBCB5"/>
<path d="M340.754 129.96C340.435 130.941 339.832 131.806 339.021 132.443C338.21 133.081 337.228 133.463 336.199 133.542C335.17 133.62 334.141 133.39 333.243 132.883C332.345 132.375 331.618 131.612 331.154 130.69C330.691 129.768 330.512 128.73 330.64 127.706C330.768 126.682 331.197 125.72 331.874 124.94C332.55 124.161 333.443 123.601 334.438 123.33C335.434 123.059 336.487 123.09 337.465 123.419C338.763 123.859 339.835 124.791 340.451 126.015C341.066 127.239 341.175 128.656 340.754 129.96V129.96Z" fill="#000E4F"/>
<path d="M340.754 129.96C340.435 130.941 339.832 131.806 339.021 132.443C338.21 133.081 337.228 133.463 336.199 133.542C335.17 133.62 334.141 133.39 333.243 132.883C332.345 132.375 331.618 131.612 331.154 130.69C330.691 129.768 330.512 128.73 330.64 127.706C330.768 126.682 331.197 125.72 331.874 124.94C332.55 124.161 333.443 123.601 334.438 123.33C335.434 123.059 336.487 123.09 337.465 123.419C338.763 123.859 339.835 124.791 340.451 126.015C341.066 127.239 341.175 128.656 340.754 129.96V129.96Z" fill="white"/>
<path d="M311.947 120.364C311.62 121.342 311.59 122.395 311.862 123.39C312.135 124.385 312.696 125.276 313.476 125.951C314.256 126.626 315.219 127.055 316.243 127.181C317.267 127.308 318.305 127.128 319.226 126.663C320.147 126.199 320.909 125.471 321.416 124.573C321.922 123.674 322.151 122.646 322.072 121.617C321.992 120.589 321.61 119.607 320.972 118.796C320.333 117.986 319.469 117.384 318.488 117.065C317.183 116.642 315.764 116.751 314.539 117.369C313.314 117.987 312.383 119.063 311.947 120.364V120.364Z" fill="white"/>
<path d="M322.538 122.802L309.662 112.86" stroke="white" stroke-miterlimit="10" stroke-linecap="round"/>
<path d="M348.01 124.143L331.875 126.218" stroke="white" stroke-miterlimit="10" stroke-linecap="round"/>
<path d="M328.169 151.265C327.761 149.291 326.842 147.458 325.504 145.951C324.165 144.444 322.455 143.314 320.543 142.676C318.631 142.037 316.585 141.912 314.609 142.312C312.633 142.713 310.798 143.625 309.285 144.957" stroke="white" stroke-miterlimit="10" stroke-linecap="round"/>
<path d="M114.33 247.554L120.273 249.301L128.243 244.629C133.177 260.831 137.428 268.25 141.054 268.269C140.353 271.465 137.933 281.762 137.933 281.762H126.141C126.141 281.762 125.262 265.186 122.964 255.047C122.964 255.01 114.769 252.487 114.33 247.554Z" fill="#FFBCB5"/>
<path d="M129.059 251.104L127.078 248.161L136.562 253.338L142.654 261.13C142.654 261.13 141.767 265.223 140.571 270.699C136.983 270.727 125.536 257.178 129.059 251.104Z" fill="#FF8D88"/>
<path d="M155.055 355.644C154.234 355.826 153.381 355.81 152.566 355.598C151.752 355.386 151 354.984 150.371 354.425C149.741 353.866 149.254 353.166 148.947 352.383C148.641 351.599 148.525 350.754 148.608 349.916C149.824 337.11 149.466 324.204 147.543 311.485C146.347 303.561 145.571 293.507 142.151 287.097C139.348 281.79 129.07 277.445 125.94 288.545C123.043 298.824 123.267 309.644 124.874 320.1C126.265 329.684 128.453 339.135 131.415 348.356C132.922 352.954 134.707 357.457 136.76 361.839C137.433 363.269 138.087 364.755 138.769 366.25C139.802 368.626 140.988 370.932 142.319 373.155V373.23L142.572 373.725C143.288 375.11 144.469 376.198 145.908 376.798C147.347 377.398 148.952 377.471 150.439 377.005L162.25 373.323L167.856 353.168C163.624 353.888 159.335 354.719 155.055 355.644Z" fill="#FF928E"/>
<path d="M251.949 335.929L243.651 338.311L253.481 333.443C253.859 333.207 254.14 332.844 254.273 332.419C254.407 331.994 254.385 331.536 254.21 331.126C254.159 330.924 254.065 330.736 253.934 330.573C253.804 330.411 253.64 330.279 253.454 330.186C253.267 330.093 253.063 330.041 252.855 330.034C252.647 330.027 252.44 330.065 252.248 330.145L219.899 344.843C210.462 348.936 200.473 349.515 189.998 350.832L167.797 353.589L162.266 373.846C172.282 371.211 192.166 365.054 201.987 361.886C208.378 359.887 214.853 357.663 221.132 355.271L223.459 353.934C223.87 353.692 224.973 352.692 225.449 352.664C228.235 352.431 231 351.987 233.719 351.337C236.961 350.58 241.913 354.785 242.437 350.87C242.764 348.431 239.334 347.627 236.662 346.983L250.996 345.114C251.393 344.978 251.731 344.71 251.953 344.354C252.176 343.998 252.268 343.577 252.215 343.16C252.163 342.744 251.968 342.359 251.664 342.069C251.36 341.78 250.966 341.605 250.547 341.572L240.839 342.843L252.762 339.414C253.169 339.251 253.5 338.94 253.689 338.543C253.878 338.147 253.91 337.694 253.78 337.274C253.754 337.063 253.686 336.859 253.578 336.675C253.471 336.492 253.327 336.332 253.155 336.206C252.984 336.08 252.788 335.99 252.581 335.943C252.373 335.895 252.158 335.89 251.949 335.929Z" fill="#FFB4AE"/>
<path d="M150.089 334.434C148.855 330.631 150.089 327.781 151.537 324.38C153.817 319.175 153.779 313.625 150.229 308.962C148.463 306.645 146.678 303.748 146.332 300.665L144.828 289.022C144.536 286.075 143.213 283.325 141.091 281.258C138.97 279.191 136.186 277.94 133.232 277.725C130.169 277.564 127.155 278.555 124.786 280.504C122.417 282.453 120.863 285.219 120.431 288.256C119.693 288.424 90.0538 376.136 106.2 388.283C107.284 389.105 106.2 388.329 106.2 388.329C118.74 389.572 142.641 390.899 154.377 388.329C162.787 391.497 152.303 341.096 150.089 334.434Z" fill="#DF5067"/>
<path d="M152.868 361.363C149.952 361.559 147.037 361.774 144.112 362.054C143.275 362.139 142.43 362.024 141.646 361.718C140.862 361.413 140.161 360.927 139.602 360.299C139.042 359.671 138.639 358.919 138.426 358.105C138.213 357.291 138.195 356.438 138.375 355.616C141.081 343.035 142.23 330.168 141.795 317.306C141.533 309.308 141.935 299.226 139.291 292.461C137.114 286.854 127.443 281.351 123.023 292.012C118.949 301.861 119.883 312.653 120.22 323.221C120.556 332.892 120.463 342.563 122.397 352.047C123.331 356.784 123.621 361.475 125.153 366.063C125.658 367.558 126.135 369.109 126.639 370.679C127.387 373.157 128.292 375.585 129.349 377.948C129.354 377.973 129.354 377.998 129.349 378.023L129.545 378.546C130.091 380.006 131.134 381.225 132.492 381.989C133.85 382.754 135.434 383.014 136.964 382.723L149.111 380.443C150.765 380.2 152.699 379.901 154.802 379.509C154.297 374.211 153.578 367.792 152.868 361.363Z" fill="#FF928E"/>
<path d="M165.983 248.16L160.863 252.627L158.218 268.736C158.218 268.736 134.98 273.866 126.328 252.636C126.328 252.636 112.209 251.842 110.125 239.443C108.041 227.043 119.086 207.785 143.006 216.326C143.006 216.326 154.462 221.287 156.976 230.883C157.393 232.618 157.428 234.423 157.078 236.172C156.434 239.714 156.041 247.917 165.983 248.16Z" fill="#FFBCB5"/>
<path d="M141.29 249.899C140.922 250.834 140.84 251.858 141.054 252.84C141.269 253.822 141.77 254.718 142.495 255.415C143.22 256.112 144.135 256.577 145.125 256.753C146.115 256.929 147.135 256.806 148.055 256.401C148.975 255.996 149.754 255.327 150.293 254.479C150.832 253.631 151.108 252.641 151.084 251.636C151.06 250.631 150.738 249.656 150.159 248.834C149.579 248.013 148.769 247.381 147.831 247.021C146.581 246.544 145.194 246.578 143.969 247.117C142.745 247.655 141.782 248.655 141.29 249.899Z" fill="#FF8D88"/>
<path d="M160.156 257.477C157.398 257.034 154.588 257.034 151.83 257.477" stroke="#FF8D88" stroke-width="0.36" stroke-miterlimit="10"/>
<path d="M160.156 257.477L154.877 257.178C154.877 257.178 159.446 255.253 160.409 256.243C160.623 256.486 160.156 257.477 160.156 257.477Z" fill="#FF8D88"/>
<path d="M160.025 257.439C160.334 257.439 160.418 257.972 160.409 258.196C160.401 258.417 160.339 258.632 160.228 258.823C160.118 259.013 159.961 259.174 159.773 259.289C159.166 259.626 158.372 259.289 157.792 259.037C156.753 258.526 155.775 257.899 154.877 257.168L160.025 257.439Z" fill="#F88080"/>
<path d="M156.557 240.639C156.557 240.639 153.576 234.444 147.166 236.985C148.904 236.863 150.648 237.127 152.271 237.759C153.895 238.39 155.359 239.374 156.557 240.639Z" fill="#001048"/>
<path d="M152.921 244.339C152.606 244.587 152.208 244.706 151.808 244.672C151.408 244.638 151.036 244.454 150.766 244.157C150.496 243.86 150.349 243.472 150.354 243.071C150.358 242.669 150.514 242.285 150.791 241.994C150.942 241.836 151.123 241.71 151.324 241.625C151.525 241.54 151.742 241.498 151.96 241.5C152.179 241.503 152.394 241.55 152.593 241.64C152.792 241.73 152.971 241.859 153.118 242.021C153.265 242.182 153.377 242.373 153.447 242.579C153.517 242.786 153.543 243.005 153.525 243.223C153.506 243.44 153.443 243.652 153.339 243.844C153.236 244.036 153.093 244.205 152.921 244.339V244.339Z" fill="#001048"/>
<path d="M250.131 349.851C250.01 348.786 249.253 348.057 248.449 348.216C240.199 349.841 231.742 351.29 223.417 352.888C215.091 354.485 206.962 356.625 198.581 357.251C192.769 357.662 186.938 357.503 181.126 357.56C170.624 357.672 169.418 357.802 158.916 357.915L150.945 377.247C161.224 375.78 181.612 371.912 191.778 369.894C196.805 368.922 201.811 367.847 206.794 366.67L219.035 363.745C220.389 363.428 221.931 362.811 223.295 362.979C224.002 363.149 224.695 363.371 225.37 363.642L234.938 366.707C235.676 366.941 236.433 366.343 236.611 365.362C236.731 364.933 236.695 364.475 236.508 364.071C236.322 363.667 235.997 363.342 235.592 363.157C235.592 363.157 229.219 361.12 229.229 361.11L243.777 363.53C244.581 363.661 245.328 362.914 245.431 361.848C245.518 361.391 245.434 360.917 245.197 360.517C244.96 360.116 244.585 359.815 244.142 359.671L234.387 358.055H246.814C247.263 357.985 247.668 357.746 247.944 357.385C248.221 357.025 248.348 356.572 248.3 356.121C248.3 355.046 247.636 354.168 246.823 354.168H238.171L248.888 352.019C249.319 351.863 249.679 351.559 249.907 351.162C250.134 350.765 250.214 350.301 250.131 349.851V349.851Z" fill="#FFBCB5"/>
<path d="M146.857 358.728C146.539 358.738 146.23 358.626 145.993 358.413C145.756 358.201 145.611 357.905 145.587 357.588C145.176 352.542 144.325 332.677 144.325 332.677C144.222 326.286 143.737 320.016 143.54 314.12C143.279 306.122 143.68 296.039 141.036 289.274C138.85 283.668 129.179 278.155 124.768 288.826C120.694 298.674 119.648 309.467 120.022 320.035C120.279 329.715 121.342 339.357 123.199 348.861C124.159 353.604 125.407 358.285 126.936 362.877C127.431 364.372 127.917 365.923 128.412 367.492C129.163 369.971 130.071 372.399 131.132 374.762V374.837L131.318 375.351C131.866 376.811 132.911 378.032 134.27 378.798C135.629 379.563 137.214 379.825 138.747 379.537L150.894 377.248L158.864 357.896C155.846 358.064 146.857 358.728 146.857 358.728Z" fill="#FF928E"/>
<path d="M134.888 206.917C112.93 204.721 104.987 219.681 102.1 229.735C100.285 235.749 100.456 242.187 102.586 248.096C108.538 263.803 124.301 261.682 124.301 261.682L123.703 255.253L125.264 244.564C132.739 242.807 134.888 232.51 134.888 232.51L137.458 232.604L138.981 227.147V232.66L140.662 232.716L142.139 224.381V232.791L144.671 232.865H144.624L145.876 227.343L146.157 232.949C152.968 233.099 160.35 233.146 160.406 232.594C163.032 206.039 134.888 206.917 134.888 206.917Z" fill="#001048"/>
<path d="M116.677 239.789C115.601 241.06 115.075 242.707 115.213 244.366C115.352 246.025 116.144 247.562 117.415 248.637C120.059 250.88 125.17 251.936 127.413 249.292C129.655 246.647 128.17 241.302 125.544 239.06C124.915 238.524 124.186 238.118 123.399 237.864C122.612 237.611 121.783 237.515 120.959 237.583C120.135 237.65 119.333 237.88 118.598 238.259C117.863 238.637 117.21 239.157 116.677 239.789V239.789Z" fill="#FFBCB5"/>
<path d="M125.151 251.646C125.038 251.934 124.843 252.181 124.589 252.358C124.336 252.535 124.036 252.632 123.727 252.638C123.418 252.644 123.114 252.558 122.854 252.391C122.594 252.224 122.39 251.984 122.266 251.701C122.143 251.417 122.107 251.104 122.162 250.8C122.217 250.496 122.361 250.215 122.576 249.993C122.791 249.771 123.066 249.618 123.369 249.553C123.671 249.488 123.985 249.514 124.272 249.627C124.463 249.702 124.637 249.813 124.784 249.955C124.932 250.097 125.05 250.266 125.132 250.454C125.213 250.641 125.257 250.843 125.26 251.048C125.263 251.252 125.226 251.456 125.151 251.646V251.646Z" fill="white"/>
<path d="M107.501 229.929C115.921 228.374 121.485 220.289 119.931 211.87C118.377 203.451 110.292 197.886 101.873 199.441C93.4539 200.995 87.8889 209.08 89.4432 217.499C90.9975 225.918 99.0825 231.483 107.501 229.929Z" fill="#001048"/>
<path d="M102.18 229.669C104.208 222.549 108.805 212.962 119.13 208.757C118.888 208.164 118.607 207.586 118.289 207.029C106.506 210.766 101.47 221.11 99.2741 228.697C99.2741 228.81 99.1433 229.043 99.1152 229.165C100.07 229.533 101.059 229.805 102.068 229.978C102.077 229.912 102.161 229.735 102.18 229.669Z" fill="#FE852A"/>
<path d="M125.434 280.07C127.722 280.923 130.163 281.289 132.6 281.145C137.039 280.911 143.617 289.395 143.617 289.395C143.617 289.395 141.748 280.986 139.029 279.229C137.74 278.379 133.74 276.164 133.74 276.164L127.134 277.781L125.434 280.07Z" fill="#FFBCB5"/>
<path d="M340.116 313.774C339.121 313.752 338.173 313.342 337.475 312.632C336.777 311.922 336.384 310.967 336.379 309.971V186.631C336.4 185.646 336.801 184.708 337.497 184.012C338.194 183.315 339.132 182.915 340.116 182.893C341.13 182.893 342.102 183.296 342.819 184.013C343.536 184.729 343.938 185.701 343.938 186.715V309.971C343.933 310.981 343.528 311.948 342.812 312.661C342.096 313.374 341.127 313.774 340.116 313.774V313.774Z" fill="#E2DC3D"/>
<path d="M340.215 255.272L359.155 272.595C366.324 279.157 371.708 287.433 374.802 296.647C377.896 305.86 378.598 315.708 376.843 325.267L368.705 369.548C368.552 370.338 368.129 371.05 367.509 371.562C366.888 372.073 366.108 372.353 365.303 372.351H320.649C319.732 372.351 318.852 371.987 318.204 371.339C317.556 370.69 317.191 369.811 317.191 368.894V368.894C317.191 367.976 317.555 367.096 318.203 366.446C318.852 365.796 319.731 365.43 320.649 365.427H359.015C359.818 365.428 360.597 365.149 361.216 364.637C361.835 364.125 362.257 363.413 362.407 362.624L369.695 326.024C374.003 305.813 365.201 287.377 349.736 273.698L336.655 262.139L340.215 255.272Z" fill="#E2DC3D"/>
<path d="M218.65 392.337L154.681 387.927H108.924C109.111 389.506 109.279 391.085 109.428 392.646L114.614 422.434C116.187 426.199 118.907 429.371 122.388 431.498C122.622 431.638 122.865 431.769 123.127 431.9H185.731C186.077 431.9 186.413 431.9 186.74 431.9C195.047 431.021 200.513 430.087 200.513 430.087L195.112 489.225H221.761L234.534 414.557C236.581 403.569 229.162 393.206 218.65 392.337Z" fill="#4A97D2"/>
<path d="M109.428 392.646C110.586 404.111 111.128 414.726 114.614 422.434L109.428 392.646Z" fill="#6A9EFF"/>
<path d="M186.725 431.938C186.398 431.938 186.062 431.938 185.716 431.938H116.253L114.609 422.472C111.124 414.764 110.582 404.149 109.423 392.684L93.8561 303.122C93.2625 299.711 91.3408 296.675 88.5121 294.678C85.6834 292.681 82.1786 291.887 78.7656 292.47L78.205 292.564C74.8007 293.166 71.7733 295.091 69.7843 297.919C67.7953 300.747 67.0065 304.247 67.5903 307.654L87.6797 423.155C88.8777 430.039 89.4811 437.013 89.4831 444.001V449.196C89.4831 451.517 90.4042 453.742 92.0442 455.384C93.6841 457.025 95.9086 457.949 98.229 457.951H186.062C187.823 457.951 189.565 457.593 191.183 456.899C192.801 456.206 194.261 455.191 195.476 453.916C196.69 452.642 197.633 451.134 198.247 449.484C198.862 447.834 199.135 446.077 199.05 444.319C198.857 441.108 197.497 438.078 195.228 435.798C192.959 433.519 189.935 432.146 186.725 431.938V431.938Z" fill="#979797"/>
<path d="M109.242 449.561C104.018 462.278 100.281 476.294 95.123 489.198" stroke="#5A346F" stroke-width="5" stroke-miterlimit="10" stroke-linecap="round"/>
<path d="M161.783 455.914C167.558 466.949 172.23 478.162 177.668 489.403" stroke="#5A346F" stroke-width="5" stroke-miterlimit="10" stroke-linecap="round"/>
<path d="M381.637 372.407H211.045V386.33H381.637V372.407Z" fill="#5A346F"/>
<path d="M381.637 372.407H211.045V376.472H381.637V372.407Z" fill="#FF3343"/>
<path d="M381.234 372.576H377.496V489.375H381.234V372.576Z" fill="#5A346F"/>
<path d="M214.904 372.407H211.045V489.664H214.904V372.407Z" fill="#5A346F"/>
</svg>
