<svg width="168" height="168" viewBox="0 0 168 168" fill="none" xmlns="http://www.w3.org/2000/svg">
<path d="M168 84C168 130.392 130.392 168 84 168C37.6081 168 0 130.392 0 84C0 37.6081 37.6081 0 84 0C130.392 0 168 37.6081 168 84ZM21.4349 84C21.4349 118.554 49.4463 146.565 84 146.565C118.554 146.565 146.565 118.554 146.565 84C146.565 49.4463 118.554 21.4349 84 21.4349C49.4463 21.4349 21.4349 49.4463 21.4349 84Z" fill="black" fill-opacity="0.1"/>
<path d="M168 84C168 130.392 130.392 168 84 168C37.6081 168 0 130.392 0 84C0 37.6081 37.6081 0 84 0C130.392 0 168 37.6081 168 84ZM22.5607 84C22.5607 117.932 50.068 145.439 84 145.439C117.932 145.439 145.439 117.932 145.439 84C145.439 50.068 117.932 22.5607 84 22.5607C50.068 22.5607 22.5607 50.068 22.5607 84Z" fill="#20CF11"/>
<path d="M61.7778 90H58.25V76.4014L54.0386 77.7075V74.8389L61.3994 72.2021H61.7778V90ZM79.5269 82.6514C79.5269 85.109 79.0182 86.9889 78.001 88.291C76.9837 89.5931 75.4945 90.2441 73.5332 90.2441C71.5964 90.2441 70.1152 89.6053 69.0898 88.3276C68.0645 87.05 67.5396 85.2189 67.5151 82.8345V79.563C67.5151 77.0809 68.0278 75.1969 69.0532 73.9111C70.0868 72.6253 71.5719 71.9824 73.5088 71.9824C75.4456 71.9824 76.9268 72.6213 77.9521 73.8989C78.9775 75.1685 79.5024 76.9954 79.5269 79.3799V82.6514ZM75.999 79.0625C75.999 77.5895 75.7956 76.5194 75.3887 75.8521C74.9899 75.1766 74.3633 74.8389 73.5088 74.8389C72.6787 74.8389 72.0643 75.1603 71.6655 75.8032C71.2749 76.438 71.0674 77.4349 71.043 78.7939V83.1152C71.043 84.5638 71.2383 85.6421 71.6289 86.3501C72.0277 87.05 72.6624 87.3999 73.5332 87.3999C74.3958 87.3999 75.0184 87.0622 75.4009 86.3867C75.7834 85.7113 75.9827 84.6777 75.999 83.2861V79.0625ZM93.8823 82.6514C93.8823 85.109 93.3737 86.9889 92.3564 88.291C91.3392 89.5931 89.8499 90.2441 87.8887 90.2441C85.9518 90.2441 84.4707 89.6053 83.4453 88.3276C82.4199 87.05 81.895 85.2189 81.8706 82.8345V79.563C81.8706 77.0809 82.3833 75.1969 83.4087 73.9111C84.4422 72.6253 85.9274 71.9824 87.8643 71.9824C89.8011 71.9824 91.2822 72.6213 92.3076 73.8989C93.333 75.1685 93.8579 76.9954 93.8823 79.3799V82.6514ZM90.3545 79.0625C90.3545 77.5895 90.151 76.5194 89.7441 75.8521C89.3454 75.1766 88.7188 74.8389 87.8643 74.8389C87.0342 74.8389 86.4198 75.1603 86.021 75.8032C85.6304 76.438 85.4229 77.4349 85.3984 78.7939V83.1152C85.3984 84.5638 85.5938 85.6421 85.9844 86.3501C86.3831 87.05 87.0179 87.3999 87.8887 87.3999C88.7513 87.3999 89.3739 87.0622 89.7563 86.3867C90.1388 85.7113 90.3382 84.6777 90.3545 83.2861V79.0625ZM96.2261 75.6445C96.2261 74.554 96.5801 73.6711 97.2881 72.9956C97.9961 72.312 98.9238 71.9702 100.071 71.9702C101.235 71.9702 102.171 72.3079 102.879 72.9834C103.587 73.6507 103.941 74.5581 103.941 75.7056V76.5845C103.941 77.6831 103.587 78.5661 102.879 79.2334C102.171 79.9007 101.243 80.2344 100.096 80.2344C98.9401 80.2344 98.0042 79.9007 97.2881 79.2334C96.5801 78.5579 96.2261 77.6506 96.2261 76.5112V75.6445ZM98.5698 76.5845C98.5698 77.0728 98.7082 77.4674 98.9849 77.7686C99.2697 78.0615 99.64 78.208 100.096 78.208C100.551 78.208 100.914 78.0575 101.182 77.7563C101.451 77.4552 101.585 77.0524 101.585 76.5479V75.6445C101.585 75.1562 101.451 74.7616 101.182 74.4604C100.914 74.1593 100.543 74.0088 100.071 74.0088C99.6237 74.0088 99.2616 74.1593 98.9849 74.4604C98.7082 74.7534 98.5698 75.1644 98.5698 75.6934V76.5845ZM104.722 85.6421C104.722 84.5435 105.08 83.6605 105.796 82.9932C106.513 82.3177 107.44 81.98 108.58 81.98C109.735 81.98 110.667 82.3136 111.375 82.981C112.091 83.6401 112.449 84.5516 112.449 85.7153V86.5942C112.449 87.6847 112.099 88.5677 111.399 89.2432C110.7 89.9105 109.768 90.2441 108.604 90.2441C107.432 90.2441 106.492 89.9064 105.784 89.231C105.076 88.5555 104.722 87.6603 104.722 86.5454V85.6421ZM107.066 86.5942C107.066 87.0418 107.212 87.4243 107.505 87.7417C107.798 88.0591 108.165 88.2178 108.604 88.2178C109.597 88.2178 110.093 87.6685 110.093 86.5698V85.6421C110.093 85.1538 109.955 84.7632 109.678 84.4702C109.402 84.1691 109.035 84.0186 108.58 84.0186C108.124 84.0186 107.758 84.1691 107.481 84.4702C107.204 84.7632 107.066 85.166 107.066 85.6787V86.5942ZM100.792 88.6694L99.0703 87.7417L107.75 73.8501L109.471 74.7778L100.792 88.6694Z" fill="black" fill-opacity="0.3"/>
</svg>
