<svg width="168" height="168" viewBox="0 0 168 168" fill="none" xmlns="http://www.w3.org/2000/svg">
<path d="M84 11.2803C84 5.05038 89.0727 -0.0778319 95.2465 0.756286C102.411 1.72428 109.437 3.61535 116.145 6.39412C126.337 10.6155 135.597 16.8029 143.397 24.603C151.197 32.4032 157.384 41.6632 161.606 51.8546C164.385 58.5632 166.276 65.5887 167.244 72.7535C168.078 78.9273 162.95 84 156.72 84C150.49 84 145.544 78.9081 144.407 72.7829C143.626 68.5788 142.407 64.4576 140.763 60.4882C137.675 53.034 133.149 46.261 127.444 40.5558C121.739 34.8507 114.966 30.3251 107.512 27.2375C103.542 25.5933 99.4212 24.374 95.2171 23.5933C89.0919 22.4559 84 17.5103 84 11.2803Z" fill="#FF3343"/>
<path d="M168 84C168 130.392 130.392 168 84 168C37.6081 168 0 130.392 0 84C0 37.6081 37.6081 0 84 0C130.392 0 168 37.6081 168 84ZM21.4349 84C21.4349 118.554 49.4463 146.565 84 146.565C118.554 146.565 146.565 118.554 146.565 84C146.565 49.4463 118.554 21.4349 84 21.4349C49.4463 21.4349 21.4349 49.4463 21.4349 84Z" fill="black" fill-opacity="0.1"/>
<path d="M73.3911 91H61.2085V88.583L66.958 82.4551C67.7474 81.5924 68.3293 80.8397 68.7036 80.1968C69.0861 79.5539 69.2773 78.9435 69.2773 78.3657C69.2773 77.5763 69.078 76.9578 68.6792 76.5103C68.2804 76.0545 67.7108 75.8267 66.9702 75.8267C66.1727 75.8267 65.542 76.1034 65.0781 76.6567C64.6224 77.202 64.3945 77.9222 64.3945 78.8174H60.8545C60.8545 77.735 61.1108 76.7463 61.6235 75.8511C62.1444 74.9559 62.8768 74.256 63.8208 73.7515C64.7648 73.2388 65.835 72.9824 67.0312 72.9824C68.8623 72.9824 70.2824 73.4219 71.2915 74.3008C72.3088 75.1797 72.8174 76.4207 72.8174 78.0239C72.8174 78.9028 72.5895 79.798 72.1338 80.7095C71.6781 81.6209 70.8968 82.6829 69.79 83.8955L65.7495 88.1558H73.3911V91ZM76.0889 82.2598L77.1143 73.2266H87.0752V76.1685H80.0073L79.5679 79.9893C80.4061 79.5417 81.2972 79.3179 82.2412 79.3179C83.9339 79.3179 85.2604 79.8428 86.2207 80.8926C87.181 81.9424 87.6611 83.4113 87.6611 85.2993C87.6611 86.4468 87.417 87.4762 86.9287 88.3877C86.4486 89.291 85.7568 89.995 84.8535 90.4995C83.9502 90.9959 82.8841 91.2441 81.6553 91.2441C80.5811 91.2441 79.5841 91.0285 78.6646 90.5972C77.745 90.1577 77.0166 89.5433 76.4795 88.7539C75.9505 87.9645 75.6698 87.0653 75.6372 86.0562H79.1284C79.2017 86.7967 79.458 87.3745 79.8975 87.7896C80.3451 88.1965 80.9269 88.3999 81.6431 88.3999C82.4406 88.3999 83.055 88.1151 83.4863 87.5454C83.9176 86.9676 84.1333 86.1538 84.1333 85.104C84.1333 84.0949 83.8851 83.3218 83.3887 82.7847C82.8923 82.2476 82.1883 81.979 81.2769 81.979C80.4386 81.979 79.7591 82.1987 79.2383 82.6382L78.8965 82.9556L76.0889 82.2598ZM89.8706 76.6445C89.8706 75.554 90.2246 74.6711 90.9326 73.9956C91.6406 73.312 92.5684 72.9702 93.7158 72.9702C94.8796 72.9702 95.8154 73.3079 96.5234 73.9834C97.2314 74.6507 97.5854 75.5581 97.5854 76.7056V77.5845C97.5854 78.6831 97.2314 79.5661 96.5234 80.2334C95.8154 80.9007 94.8877 81.2344 93.7402 81.2344C92.5846 81.2344 91.6488 80.9007 90.9326 80.2334C90.2246 79.5579 89.8706 78.6506 89.8706 77.5112V76.6445ZM92.2144 77.5845C92.2144 78.0728 92.3527 78.4674 92.6294 78.7686C92.9142 79.0615 93.2845 79.208 93.7402 79.208C94.196 79.208 94.5581 79.0575 94.8267 78.7563C95.0952 78.4552 95.2295 78.0524 95.2295 77.5479V76.6445C95.2295 76.1562 95.0952 75.7616 94.8267 75.4604C94.5581 75.1593 94.1878 75.0088 93.7158 75.0088C93.2682 75.0088 92.9061 75.1593 92.6294 75.4604C92.3527 75.7534 92.2144 76.1644 92.2144 76.6934V77.5845ZM98.3667 86.6421C98.3667 85.5435 98.7248 84.6605 99.4409 83.9932C100.157 83.3177 101.085 82.98 102.224 82.98C103.38 82.98 104.312 83.3136 105.02 83.981C105.736 84.6401 106.094 85.5516 106.094 86.7153V87.5942C106.094 88.6847 105.744 89.5677 105.044 90.2432C104.344 90.9105 103.412 91.2441 102.249 91.2441C101.077 91.2441 100.137 90.9064 99.4287 90.231C98.7207 89.5555 98.3667 88.6603 98.3667 87.5454V86.6421ZM100.71 87.5942C100.71 88.0418 100.857 88.4243 101.15 88.7417C101.443 89.0591 101.809 89.2178 102.249 89.2178C103.241 89.2178 103.738 88.6685 103.738 87.5698V86.6421C103.738 86.1538 103.599 85.7632 103.323 85.4702C103.046 85.1691 102.68 85.0186 102.224 85.0186C101.768 85.0186 101.402 85.1691 101.125 85.4702C100.849 85.7632 100.71 86.166 100.71 86.6787V87.5942ZM94.436 89.6694L92.7148 88.7417L101.394 74.8501L103.115 75.7778L94.436 89.6694Z" fill="black" fill-opacity="0.3"/>
</svg>
