<svg width="243" height="67" viewBox="0 0 243 67" fill="none" xmlns="http://www.w3.org/2000/svg">
<path d="M66.2393 67.1256C60.0265 67.1256 53.8282 67.1256 47.6154 67.1256C44.5671 67.1256 43.0139 65.9206 42.9268 63.6414C42.8397 61.3623 44.5526 59.8815 47.6154 59.7944C48.6025 59.7944 49.5751 59.7944 50.5186 59.7944C51.0097 59.8286 51.5025 59.7605 51.9658 59.5944C52.4292 59.4283 52.8531 59.1678 53.2105 58.8293C53.568 58.4909 53.8514 58.082 54.0427 57.6284C54.2339 57.1748 54.329 56.6864 54.3218 56.1942C54.3581 55.6854 54.2881 55.1746 54.1162 54.6944C53.9444 54.2142 53.6743 53.775 53.3234 53.4049C52.9724 53.0348 52.5482 52.7418 52.0778 52.5447C51.6074 52.3476 51.1011 52.2507 50.5912 52.26C48.6461 52.1294 46.6864 52.26 44.7848 52.26H25.9142C22.7788 52.26 21.0079 50.939 20.9643 48.6888C20.9208 46.4387 22.7498 44.9289 26.0449 44.9143C29.34 44.8998 32.7802 44.9143 36.206 44.9143C39.1091 44.9143 40.9672 43.332 40.8801 41.0238C40.793 38.7155 39.0221 37.3654 36.2495 37.3509C32.1706 37.3509 28.0916 37.3509 24.0272 37.3509C21.124 37.3509 19.4692 35.8992 19.5127 33.6345C19.5563 31.3699 21.2256 30.0343 24.1433 29.9907C26.0884 29.9907 28.0336 29.9907 29.9496 29.9907C32.7367 29.9907 34.2028 28.7423 34.3044 26.4486C34.406 24.1549 32.7657 22.6015 29.9496 22.5435C26.6691 22.5435 23.3885 22.5435 20.1079 22.5435H16.2612C13.358 22.5435 11.6887 21.1934 11.7032 18.8851C11.7177 16.5769 13.4016 15.1542 16.2612 15.1397C26.5529 15.1397 36.8302 15.1397 47.1074 15.0671C48.4035 15.077 49.6656 14.6528 50.6928 13.8622C51.2098 13.3924 51.5809 12.7839 51.7619 12.1091C51.9428 11.4343 51.9259 10.7217 51.7133 10.0562C51.5007 9.39074 51.1012 8.80042 50.5626 8.35559C50.0239 7.91076 49.3687 7.63018 48.6751 7.54727C47.8854 7.44539 47.0906 7.38724 46.2945 7.37307C45.8467 7.37133 45.4038 7.27991 44.9919 7.1042C44.58 6.92849 44.2074 6.67205 43.8962 6.35001C43.5851 6.02797 43.3415 5.64685 43.18 5.22915C43.0185 4.81145 42.9423 4.36563 42.9558 3.91799C42.9058 3.44979 42.9524 2.9763 43.0927 2.52683C43.233 2.07737 43.4641 1.66149 43.7716 1.30494C44.0791 0.948395 44.4566 0.658774 44.8805 0.454008C45.3045 0.249241 45.766 0.133689 46.2364 0.114503C47.3866 0.0345863 48.541 0.0345863 49.6912 0.114503C60.5007 0.114503 71.315 0.114503 82.1341 0.114503C99.7709 0.0854684 114.606 13.4993 115.869 30.4843C117.204 48.5436 105.229 64.2221 87.476 66.6029C80.5084 67.5466 73.323 66.7626 66.2393 66.7626V67.1256ZM82.3809 8.3312C77.3783 8.35415 72.4947 9.85886 68.3466 12.6554C64.1984 15.4519 60.9717 19.4148 59.0739 24.0439C57.176 28.6729 56.6921 33.7606 57.6831 38.6645C58.6742 43.5684 61.0958 48.0687 64.6423 51.5973C68.1888 55.1258 72.7011 57.5245 77.6097 58.4904C82.5182 59.4562 87.6028 58.9461 92.2216 57.0242C96.8404 55.1024 100.786 51.8551 103.561 47.6922C106.336 43.5294 107.815 38.6376 107.813 33.6345C107.805 30.3028 107.141 27.0052 105.859 23.9302C104.576 20.8552 102.701 18.063 100.339 15.7132C97.9772 13.3633 95.1757 11.5019 92.0943 10.2353C89.013 8.96868 85.7123 8.32165 82.3809 8.3312Z" fill="#213F9A"/>
<path d="M8.42279 37.2054C6.82605 37.2054 5.2293 37.2054 3.64708 37.2054C3.17613 37.2337 2.70445 37.1639 2.26185 37.0005C1.81924 36.8372 1.41533 36.5838 1.07564 36.2563C0.735953 35.9289 0.467875 35.5345 0.288347 35.0982C0.108819 34.6619 0.0217451 34.193 0.0326286 33.7213C-0.0335712 33.2523 0.00121842 32.7745 0.134667 32.32C0.268115 31.8655 0.497141 31.4448 0.806401 31.086C1.11566 30.7273 1.49801 30.4387 1.92785 30.2398C2.35768 30.0408 2.82507 29.936 3.29869 29.9324C6.74012 29.7074 10.1926 29.7074 13.634 29.9324C14.1074 29.9436 14.573 30.0555 14.9999 30.2605C15.4268 30.4655 15.8052 30.759 16.1099 31.1214C16.4147 31.4839 16.6389 31.9071 16.7676 32.3628C16.8963 32.8186 16.9266 33.2965 16.8565 33.7649C16.8584 34.2128 16.7714 34.6566 16.6005 35.0705C16.4296 35.4845 16.1781 35.8604 15.8608 36.1764C15.5435 36.4924 15.1665 36.7423 14.7519 36.9114C14.3372 37.0806 13.8931 37.1657 13.4453 37.1619C11.7614 37.2635 10.0776 37.1619 8.40827 37.1619L8.42279 37.2054Z" fill="#4A97D2"/>
<path d="M30.3559 7.37289C29.4714 7.43083 28.584 7.43083 27.6995 7.37289C27.2533 7.36212 26.8139 7.26121 26.4077 7.07622C26.0015 6.89122 25.637 6.62598 25.3359 6.29644C25.0349 5.96689 24.8036 5.57986 24.656 5.15861C24.5084 4.73737 24.4475 4.29062 24.477 3.84523C24.4285 3.37751 24.4781 2.90482 24.6226 2.45734C24.767 2.00985 25.0032 1.59741 25.316 1.24633C25.6288 0.895259 26.0114 0.613265 26.4393 0.418356C26.8671 0.223446 27.331 0.119902 27.8011 0.114334C29.4767 -0.0381113 31.1626 -0.0381113 32.8381 0.114334C33.3251 0.116342 33.8064 0.219604 34.2514 0.417564C34.6964 0.615524 35.0953 0.903856 35.4229 1.26425C35.7505 1.62465 35.9996 2.04923 36.1544 2.51104C36.3092 2.97286 36.3662 3.46181 36.3219 3.94685C36.3289 4.41553 36.2388 4.88059 36.0573 5.31276C35.8759 5.74493 35.6069 6.13486 35.2674 6.45802C34.9279 6.78118 34.5252 7.03058 34.0847 7.19053C33.6441 7.35048 33.1752 7.41751 32.7075 7.38741C31.9236 7.38741 31.1253 7.38741 30.3269 7.38741L30.3559 7.37289Z" fill="#213F9A"/>
<path d="M82.4251 56.8615C77.8385 56.83 73.3639 55.4409 69.5655 52.8696C65.7672 50.2982 62.8152 46.6597 61.0818 42.4127C59.3484 38.1658 58.9112 33.5007 59.8253 29.0056C60.7394 24.5105 62.9639 20.3867 66.2183 17.1542C69.4727 13.9218 73.6112 11.7254 78.1121 10.842C82.613 9.95864 87.2746 10.4278 91.5092 12.1905C95.7438 13.9531 99.3617 16.9302 101.907 20.7464C104.452 24.5626 105.81 29.047 105.81 33.6341C105.81 36.6978 105.204 39.7313 104.027 42.5599C102.85 45.3884 101.125 47.9561 98.9512 50.1151C96.7776 52.274 94.1984 53.9816 91.3621 55.1395C88.5258 56.2973 85.4885 56.8826 82.4251 56.8615ZM80.6106 54.7565V38.7877L69.3318 50.0675L80.6106 54.7565ZM84.2976 38.5989V54.742L95.7506 49.9949L84.2976 38.5989ZM78.4187 31.8194C74.7317 28.1902 71.5963 25.098 68.4463 22.0204C67.9528 21.5268 67.4157 21.0913 66.8931 20.5687C63.8158 23.6318 61.9722 28.3499 62.5384 31.7614L78.4187 31.8194ZM102.834 31.8194C102.636 27.9229 101.203 24.1907 98.7409 21.1639L88.0717 31.8049L102.834 31.8194ZM69.3173 17.3023L80.6396 28.5241V12.4826L69.3173 17.3023ZM95.4458 17.8975C92.3423 15.2143 88.4606 13.5963 84.3702 13.2811V28.7999L95.4458 17.8975ZM77.6639 35.5213H62.1319C62.3545 39.6015 63.9156 43.4946 66.5738 46.5979L77.6639 35.5213ZM87.5927 35.5213L98.5667 46.3656C101.092 43.2956 102.558 39.4921 102.747 35.5213H87.5927ZM85.6766 34.3599V33.126C84.6025 32.3275 83.6299 31.0936 82.4541 30.8468C80.7412 30.4984 79.5509 31.7759 79.5509 33.518C79.5509 35.26 80.567 36.6101 82.2654 36.4214C83.5138 36.2907 84.5879 35.0858 85.6766 34.3599Z" fill="#4A97D2"/>
<path d="M130.428 59.4315V35.7144H137.725C139.81 35.7144 141.672 36.1867 143.311 37.1315C144.962 38.0654 146.249 39.4012 147.172 41.1387C148.095 42.8653 148.556 44.8309 148.556 47.0354V48.1267C148.556 50.3312 148.1 52.2914 147.188 54.0072C146.287 55.723 145.011 57.0532 143.36 57.998C141.71 58.9428 139.848 59.4206 137.774 59.4315H130.428ZM135.314 39.6726V55.5058H137.676C139.587 55.5058 141.047 54.8814 142.057 53.6325C143.067 52.3837 143.583 50.5973 143.605 48.2734V47.0191C143.605 44.6083 143.105 42.7839 142.106 41.5459C141.107 40.2971 139.647 39.6726 137.725 39.6726H135.314Z" fill="#213F9A"/>
<path d="M160.902 50.7493H157.009V59.4315H152.123V35.7144H160.935C163.736 35.7144 165.897 36.3388 167.417 37.5876C168.938 38.8365 169.698 40.6011 169.698 42.8816C169.698 44.4997 169.345 45.8517 168.639 46.9376C167.944 48.0127 166.885 48.8706 165.463 49.5113L170.593 59.2034V59.4315H165.349L160.902 50.7493ZM157.009 46.791H160.951C162.178 46.791 163.128 46.4815 163.801 45.8625C164.475 45.2327 164.811 44.3694 164.811 43.2726C164.811 42.154 164.491 41.2744 163.85 40.6337C163.221 39.993 162.249 39.6726 160.935 39.6726H157.009V46.791Z" fill="#213F9A"/>
<path d="M178.623 59.4315H173.737V35.7144H178.623V59.4315Z" fill="#213F9A"/>
<path d="M191.931 53.5511L197.305 35.7144H202.746L194.488 59.4315H189.39L181.164 35.7144H186.588L191.931 53.5511Z" fill="#213F9A"/>
<path d="M219.261 49.153H209.88V55.5058H220.89V59.4315H204.993V35.7144H220.858V39.6726H209.88V45.325H219.261V49.153Z" fill="#213F9A"/>
<path d="M232.536 50.7493H228.643V59.4315H223.757V35.7144H232.569C235.37 35.7144 237.531 36.3388 239.051 37.5876C240.571 38.8365 241.331 40.6011 241.331 42.8816C241.331 44.4997 240.979 45.8517 240.273 46.9376C239.578 48.0127 238.519 48.8706 237.097 49.5113L242.227 59.2034V59.4315H236.983L232.536 50.7493ZM228.643 46.791H232.585C233.812 46.791 234.762 46.4815 235.435 45.8625C236.108 45.2327 236.445 44.3694 236.445 43.2726C236.445 42.154 236.125 41.2744 235.484 40.6337C234.854 39.993 233.882 39.6726 232.569 39.6726H228.643V46.791Z" fill="#213F9A"/>
<path d="M136.677 18.629V26.9854H131.791V3.26823H141.042C142.823 3.26823 144.387 3.59401 145.733 4.24558C147.091 4.89715 148.133 5.82564 148.861 7.03104C149.588 8.22559 149.952 9.58845 149.952 11.1196C149.952 13.4436 149.154 15.2788 147.558 16.6254C145.972 17.9611 143.773 18.629 140.961 18.629H136.677ZM136.677 14.6707H141.042C142.335 14.6707 143.317 14.3666 143.991 13.7585C144.675 13.1504 145.017 12.2816 145.017 11.1522C145.017 9.99026 144.675 9.05091 143.991 8.33418C143.306 7.61746 142.362 7.24823 141.157 7.22651H136.677V14.6707Z" fill="#4A97D2"/>
<path d="M162.103 18.3032H158.21V26.9854H153.323V3.26823H162.135C164.937 3.26823 167.098 3.89265 168.618 5.14149C170.138 6.39033 170.898 8.155 170.898 10.4355C170.898 12.0536 170.545 13.4056 169.839 14.4915C169.144 15.5666 168.086 16.4245 166.663 17.0652L171.794 26.7573V26.9854H166.549L162.103 18.3032ZM158.21 14.3449H162.151C163.378 14.3449 164.329 14.0354 165.002 13.4164C165.675 12.7866 166.012 11.9232 166.012 10.8264C166.012 9.70791 165.691 8.82829 165.051 8.18758C164.421 7.54687 163.449 7.22651 162.135 7.22651H158.21V14.3449Z" fill="#4A97D2"/>
<path d="M194.108 15.6643C194.108 17.9991 193.696 20.0461 192.87 21.8054C192.045 23.5646 190.861 24.9221 189.32 25.8777C187.788 26.8333 186.029 27.3111 184.042 27.3111C182.077 27.3111 180.323 26.8388 178.781 25.894C177.239 24.9492 176.045 23.6026 175.198 21.8543C174.351 20.095 173.922 18.0751 173.911 15.7947V14.6218C173.911 12.287 174.329 10.2346 175.165 8.4645C176.012 6.68354 177.201 5.32067 178.732 4.3759C180.274 3.42026 182.033 2.94244 184.01 2.94244C185.986 2.94244 187.74 3.42026 189.271 4.3759C190.813 5.32067 192.002 6.68354 192.838 8.4645C193.685 10.2346 194.108 12.2816 194.108 14.6055V15.6643ZM189.157 14.5892C189.157 12.1024 188.711 10.2129 187.821 8.92059C186.931 7.62831 185.66 6.98218 184.01 6.98218C182.37 6.98218 181.105 7.62289 180.215 8.90431C179.324 10.1749 178.874 12.0427 178.863 14.5078V15.6643C178.863 18.086 179.308 19.9647 180.198 21.3004C181.089 22.6361 182.37 23.304 184.042 23.304C185.682 23.304 186.942 22.6633 187.821 21.3819C188.701 20.0896 189.146 18.2109 189.157 15.7458V14.5892Z" fill="#4A97D2"/>
</svg>
