<svg width="488" height="489" viewBox="0 0 488 489" fill="none" xmlns="http://www.w3.org/2000/svg">
<path d="M428.783 416.445C418.879 426.872 409.507 433.596 402.104 438.91C315.066 501.36 212.075 483.156 190.187 478.71C157.866 472.146 95.3882 459.456 50.2188 406.338C-18.1201 325.971 -7.47822 199.36 45.5288 115.782C55.226 100.494 106.443 15.6415 210.54 2.03506C273.541 -6.20513 346.977 10.4095 400.157 54.9689C511.79 148.488 503.842 337.425 428.783 416.445Z" fill="url(#paint0_linear)"/>
<path d="M385.704 112.627C385.656 109.957 383.491 107.759 380.838 107.759H280.574C277.887 107.759 275.246 110.072 275.246 112.779V354.714C275.246 356.016 275.99 357.266 276.907 358.184C277.864 359.106 279.142 359.619 280.471 359.615L385.304 359.327C385.953 359.324 386.595 359.192 387.194 358.939C387.792 358.687 388.334 358.318 388.789 357.855C389.707 356.903 390.211 355.627 390.192 354.304L385.704 112.627Z" fill="#BDD0FB"/>
<g opacity="0.5">
<path opacity="0.5" d="M311.866 136.269L283.303 136.231L283.076 121.488H311.668L311.866 136.269Z" fill="white"/>
<path opacity="0.5" d="M343.885 136.263L315.351 136.224L315.156 121.488H343.718L343.885 136.263Z" fill="white"/>
<path opacity="0.5" d="M375.867 136.256L347.363 136.215L347.197 121.488H375.731L375.867 136.256Z" fill="white"/>
<path opacity="0.5" d="M312.222 162.731L283.709 162.749L283.482 148.104L312.023 148.092L312.222 162.731Z" fill="white"/>
<path opacity="0.5" d="M344.186 162.71L315.701 162.729L315.506 148.089L344.019 148.079L344.186 162.71Z" fill="white"/>
<path opacity="0.5" d="M376.11 162.69L347.654 162.709L347.49 148.077L375.974 148.065L376.11 162.69Z" fill="white"/>
<path opacity="0.5" d="M312.578 189.01L284.114 189.04L283.889 174.445L312.381 174.422L312.578 189.01Z" fill="white"/>
<path opacity="0.5" d="M344.483 188.976L316.049 189.006L315.854 174.418L344.316 174.394L344.483 188.976Z" fill="white"/>
<path opacity="0.5" d="M376.36 188.942L347.953 188.974L347.789 174.393L376.224 174.369L376.36 188.942Z" fill="white"/>
<path opacity="0.5" d="M312.932 215.198L284.518 215.24L284.295 200.696L312.737 200.661L312.932 215.198Z" fill="white"/>
<path opacity="0.5" d="M344.782 215.151L316.397 215.193L316.203 200.656L344.617 200.621L344.782 215.151Z" fill="white"/>
<path opacity="0.5" d="M376.6 215.105L348.242 215.146L348.08 200.617L376.464 200.581L376.6 215.105Z" fill="white"/>
<path opacity="0.5" d="M313.289 241.295L284.924 241.349L284.701 226.856L313.094 226.808L313.289 241.295Z" fill="white"/>
<path opacity="0.5" d="M345.083 241.236L316.746 241.29L316.553 226.801L344.918 226.756L345.083 241.236Z" fill="white"/>
<path opacity="0.5" d="M376.844 241.177L348.537 241.229L348.373 226.75L376.71 226.704L376.844 241.177Z" fill="white"/>
<path opacity="0.5" d="M313.641 267.303L285.325 267.368L285.102 252.925L313.446 252.866L313.641 267.303Z" fill="white"/>
<path opacity="0.5" d="M345.374 267.231L317.088 267.295L316.895 252.859L345.211 252.8L345.374 267.231Z" fill="white"/>
<path opacity="0.5" d="M377.085 267.159L348.826 267.224L348.664 252.793L376.95 252.736L377.085 267.159Z" fill="white"/>
<path opacity="0.5" d="M313.992 293.222L285.725 293.299L285.502 278.905L313.797 278.835L313.992 293.222Z" fill="white"/>
<path opacity="0.5" d="M345.673 293.137L317.434 293.213L317.244 278.826L345.51 278.756L345.673 293.137Z" fill="white"/>
<path opacity="0.5" d="M377.327 293.051L349.115 293.128L348.955 278.748L377.193 278.678L377.327 293.051Z" fill="white"/>
<path opacity="0.5" d="M314.34 319.051L286.122 319.138L285.9 304.794L314.147 304.712L314.34 319.051Z" fill="white"/>
<path opacity="0.5" d="M345.966 318.953L317.778 319.04L317.586 304.702L345.803 304.622L345.966 318.953Z" fill="white"/>
<path opacity="0.5" d="M377.563 318.856L349.401 318.943L349.24 304.612L377.429 304.53L377.563 318.856Z" fill="white"/>
<path opacity="0.5" d="M314.688 344.791L286.518 344.891L286.299 330.594L314.495 330.501L314.688 344.791Z" fill="white"/>
<path opacity="0.5" d="M346.261 344.681L318.12 344.779L317.93 330.491L346.098 330.398L346.261 344.681Z" fill="white"/>
<path opacity="0.5" d="M377.807 344.569L349.694 344.668L349.533 330.386L377.675 330.294L377.807 344.569Z" fill="white"/>
</g>
<path d="M482.117 39.1681C482.09 37.6239 481.558 36.1616 480.646 35.1299C479.735 34.0981 478.527 33.5874 477.309 33.7216L354.22 47.1956C351.932 47.4466 350.104 49.8674 350.104 52.7727V365.471C350.104 368.561 352.228 370.834 354.673 370.834H483.568C484.181 370.84 484.788 370.701 485.338 370.428C485.888 370.156 486.367 369.757 486.734 369.266C487.595 368.121 488.04 366.717 487.994 365.285L482.117 39.1681Z" fill="#213F9A"/>
<g opacity="0.68">
<path opacity="0.68" d="M374.49 62.6193L364.66 63.4228C363.632 63.5082 362.67 64.709 362.67 66.1068V351.343C362.67 352.769 363.766 353.834 364.807 353.834H374.612C375.658 353.834 376.52 352.718 376.519 351.286L376.377 64.9792C376.377 63.5762 375.527 62.5322 374.49 62.6193Z" fill="#BDD0FB"/>
<path opacity="0.68" d="M397.284 60.7306L387.456 61.5445C386.41 61.6316 385.406 62.8551 385.408 64.2599L385.638 351.279C385.638 352.715 386.658 353.834 387.712 353.834H397.646C398.708 353.834 399.412 352.712 399.41 351.27L399.03 63.1183C399.034 61.7066 398.333 60.6434 397.284 60.7306Z" fill="#BDD0FB"/>
<path opacity="0.68" d="M420.368 58.8166L410.411 59.641C409.355 59.7298 408.745 60.9272 408.748 62.3424L409.231 351.262C409.231 352.708 409.853 353.834 410.921 353.834H420.986C422.062 353.834 423.191 352.703 423.189 351.253L422.557 61.1851C422.553 59.7647 421.431 58.7277 420.368 58.8166Z" fill="#BDD0FB"/>
<path opacity="0.68" d="M443.759 56.8858L433.673 57.7206C432.602 57.8095 431.821 59.0295 431.824 60.4552L432.556 351.253C432.556 352.708 433.356 353.841 434.439 353.841H444.638C445.727 353.841 446.701 352.703 446.698 351.243L445.814 59.2753C445.809 57.8444 444.838 56.79 443.759 56.8858Z" fill="#BDD0FB"/>
<path opacity="0.68" d="M467.464 54.9146L457.242 55.7617C456.158 55.8505 455.198 57.0932 455.203 58.5276L456.19 351.229C456.19 352.693 457.173 353.834 458.271 353.834H468.606C469.709 353.834 470.523 352.688 470.523 351.22L469.38 57.3407C469.371 55.8993 468.555 54.824 467.464 54.9146Z" fill="#BDD0FB"/>
</g>
<path d="M292.761 80.3432C292.684 77.2723 289.308 74.7451 285.169 74.7451H128.743C124.55 74.7451 120.43 77.403 120.43 80.5157V358.763C120.43 360.26 121.592 361.696 123.021 362.754C124.45 363.812 126.566 364.403 128.584 364.4L292.128 364.068C294.164 364.068 296.156 363.453 297.58 362.374C299.004 361.296 299.806 359.802 299.767 358.293L292.761 80.3432Z" fill="#4A97D2"/>
<g opacity="0.51">
<path opacity="0.51" d="M177.569 107.531L133.008 107.488L132.654 90.5334H177.259L177.569 107.531Z" fill="white"/>
<path opacity="0.51" d="M227.514 107.524L182.998 107.479L182.693 90.5334H227.253L227.514 107.524Z" fill="white"/>
<path opacity="0.51" d="M277.41 107.514L232.938 107.47L232.682 90.5334H277.196L277.41 107.514Z" fill="white"/>
<path opacity="0.51" d="M178.124 137.965L133.641 137.986L133.289 121.141L177.815 121.129L178.124 137.965Z" fill="white"/>
<path opacity="0.51" d="M227.987 137.94L183.547 137.961L183.244 121.127L227.725 121.113L227.987 137.94Z" fill="white"/>
<path opacity="0.51" d="M277.795 137.918L233.403 137.939L233.146 121.112L277.582 121.098L277.795 137.918Z" fill="white"/>
<path opacity="0.51" d="M178.68 168.188L134.274 168.223L133.924 151.438L178.372 151.41L178.68 168.188Z" fill="white"/>
<path opacity="0.51" d="M228.453 168.149L184.093 168.184L183.791 151.408L228.194 151.38L228.453 168.149Z" fill="white"/>
<path opacity="0.51" d="M278.177 168.111L233.862 168.144L233.607 151.376L277.966 151.35L278.177 168.111Z" fill="white"/>
<path opacity="0.51" d="M179.235 198.306L134.907 198.355L134.557 181.627L178.928 181.587L179.235 198.306Z" fill="white"/>
<path opacity="0.51" d="M228.921 198.253L184.637 198.301L184.336 181.581L228.664 181.541L228.921 198.253Z" fill="white"/>
<path opacity="0.51" d="M278.56 198.2L234.319 198.247L234.066 181.536L278.349 181.496L278.56 198.2Z" fill="white"/>
<path opacity="0.51" d="M179.785 228.322L135.534 228.383L135.186 211.714L179.48 211.66L179.785 228.322Z" fill="white"/>
<path opacity="0.51" d="M229.386 228.254L185.178 228.315L184.877 211.653L229.128 211.599L229.386 228.254Z" fill="white"/>
<path opacity="0.51" d="M278.938 228.184L234.776 228.245L234.521 211.592L278.729 211.54L278.938 228.184Z" fill="white"/>
<path opacity="0.51" d="M180.336 258.232L136.161 258.307L135.814 241.695L180.031 241.628L180.336 258.232Z" fill="white"/>
<path opacity="0.51" d="M229.846 258.149L185.716 258.223L185.416 241.619L229.588 241.553L229.846 258.149Z" fill="white"/>
<path opacity="0.51" d="M279.319 258.065L235.231 258.14L234.98 241.545L279.109 241.478L279.319 258.065Z" fill="white"/>
<path opacity="0.51" d="M180.88 288.04L136.782 288.129L136.436 271.573L180.577 271.493L180.88 288.04Z" fill="white"/>
<path opacity="0.51" d="M230.309 287.943L186.253 288.03L185.955 271.483L230.053 271.403L230.309 287.943Z" fill="white"/>
<path opacity="0.51" d="M279.691 287.845L235.681 287.932L235.43 271.394L279.482 271.314L279.691 287.845Z" fill="white"/>
<path opacity="0.51" d="M181.426 317.747L137.404 317.846L137.059 301.348L181.125 301.256L181.426 317.747Z" fill="white"/>
<path opacity="0.51" d="M230.773 317.633L186.794 317.734L186.496 301.244L230.517 301.151L230.773 317.633Z" fill="white"/>
<path opacity="0.51" d="M280.064 317.521L236.13 317.622L235.879 301.14L279.856 301.047L280.064 317.521Z" fill="white"/>
<path opacity="0.51" d="M181.969 347.35L138.023 347.465L137.68 331.023L181.667 330.916L181.969 347.35Z" fill="white"/>
<path opacity="0.51" d="M231.228 347.222L187.325 347.337L187.027 330.904L230.973 330.797L231.228 347.222Z" fill="white"/>
<path opacity="0.51" d="M280.44 347.095L236.579 347.21L236.33 330.784L280.232 330.678L280.44 347.095Z" fill="white"/>
</g>
<path d="M420.019 484.527H72.5957C32.6845 484.527 0.347656 452.182 0.347656 412.279V383.763C0.347656 377.263 2.92955 371.03 7.52536 366.434C12.1212 361.839 18.3544 359.257 24.8539 359.257H482.817C483.914 359.257 484.965 359.692 485.741 360.467C486.517 361.243 486.953 362.294 486.953 363.391V417.593C486.953 454.561 456.985 484.527 420.019 484.527Z" fill="#71A7B3"/>
<path d="M154.924 38.8946C154.852 35.1492 151.818 32.0679 148.097 32.0679H7.47334C3.70181 32.0679 0 35.3096 0 39.1072V378.43C0 380.256 1.04571 382.008 2.32845 383.297C3.61119 384.587 5.51612 385.309 7.33042 385.303L154.361 384.901C155.274 384.898 156.177 384.714 157.018 384.359C157.86 384.004 158.622 383.486 159.262 382.834C160.549 381.5 161.256 379.71 161.228 377.856L154.924 38.8946Z" fill="#213F9A"/>
<g opacity="0.5">
<path opacity="0.5" d="M51.3647 72.0525L11.3035 71.9984L10.9863 51.323H51.0858L51.3647 72.0525Z" fill="white"/>
<path opacity="0.5" d="M96.2693 72.0419L56.2482 71.9878L55.9746 51.3229H96.034L96.2693 72.0419Z" fill="white"/>
<path opacity="0.5" d="M141.127 72.0314L101.148 71.9774L100.916 51.3229H140.935L141.127 72.0314Z" fill="white"/>
<path opacity="0.5" d="M51.8635 109.165L11.8738 109.191L11.5566 88.6501L51.5864 88.6344L51.8635 109.165Z" fill="white"/>
<path opacity="0.5" d="M96.6858 109.137L56.7346 109.161L56.4609 88.6302L96.4523 88.6145L96.6858 109.137Z" fill="white"/>
<path opacity="0.5" d="M141.469 109.107L101.558 109.133L101.328 88.6129L141.278 88.5955L141.469 109.107Z" fill="white"/>
<path opacity="0.5" d="M52.3661 146.022L12.4444 146.064L12.1289 125.594L52.089 125.561L52.3661 146.022Z" fill="white"/>
<path opacity="0.5" d="M97.1106 145.975L57.2289 146.017L56.957 125.558L96.8753 125.525L97.1106 145.975Z" fill="white"/>
<path opacity="0.5" d="M141.814 145.928L101.972 145.97L101.742 125.521L141.622 125.488L141.814 145.928Z" fill="white"/>
<path opacity="0.5" d="M52.8588 182.753L13.0069 182.812L12.6914 162.412L52.5817 162.363L52.8588 182.753Z" fill="white"/>
<path opacity="0.5" d="M97.5291 182.687L57.7172 182.746L57.4453 162.356L97.2973 162.308L97.5291 182.687Z" fill="white"/>
<path opacity="0.5" d="M142.154 182.622L102.383 182.679L102.154 162.302L141.964 162.251L142.154 182.622Z" fill="white"/>
<path opacity="0.5" d="M53.3538 219.357L13.5715 219.432L13.2578 199.103L53.0784 199.037L53.3538 219.357Z" fill="white"/>
<path opacity="0.5" d="M97.9476 219.273L58.2055 219.346L57.9336 199.028L97.7158 198.963L97.9476 219.273Z" fill="white"/>
<path opacity="0.5" d="M142.499 219.189L102.795 219.262L102.566 198.955L142.309 198.89L142.499 219.189Z" fill="white"/>
<path opacity="0.5" d="M53.8485 255.833L14.136 255.924L13.8223 235.666L53.5749 235.584L53.8485 255.833Z" fill="white"/>
<path opacity="0.5" d="M98.3663 255.731L58.692 255.822L58.4219 235.573L98.1362 235.492L98.3663 255.731Z" fill="white"/>
<path opacity="0.5" d="M142.835 255.628L103.199 255.719L102.973 235.481L142.645 235.399L142.835 255.628Z" fill="white"/>
<path opacity="0.5" d="M54.3433 292.185L14.6969 292.291L14.3867 272.102L54.0697 272.004L54.3433 292.185Z" fill="white"/>
<path opacity="0.5" d="M98.7826 292.064L59.1764 292.17L58.9062 271.992L98.5508 271.894L98.7826 292.064Z" fill="white"/>
<path opacity="0.5" d="M143.172 291.945L103.605 292.051L103.379 271.883L142.983 271.785L143.172 291.945Z" fill="white"/>
<path opacity="0.5" d="M54.8322 328.41L15.2555 328.534L14.9453 308.414L54.5603 308.299L54.8322 328.41Z" fill="white"/>
<path opacity="0.5" d="M99.1917 328.273L59.6534 328.396L59.3867 308.286L98.9616 308.172L99.1917 328.273Z" fill="white"/>
<path opacity="0.5" d="M143.514 328.136L104.016 328.258L103.791 308.158L143.328 308.045L143.514 328.136Z" fill="white"/>
<path opacity="0.5" d="M55.3228 364.511L15.8124 364.651L15.5039 344.601L55.0509 344.47L55.3228 364.511Z" fill="white"/>
<path opacity="0.5" d="M99.6043 364.355L60.1358 364.495L59.8691 344.454L99.376 344.325L99.6043 364.355Z" fill="white"/>
<path opacity="0.5" d="M143.846 364.202L104.416 364.34L104.191 344.31L143.66 344.181L143.846 364.202Z" fill="white"/>
</g>
<path d="M48.4676 485.679C48.4629 485.528 48.4782 485.377 48.513 485.231C50.7473 476.374 59.8816 471.833 59.8816 471.833L64.2753 472.182C66.8007 479.99 68.4302 483.8 68.0241 485.933C68.0137 485.992 67.9945 486.05 67.9788 486.107C64.3554 486.426 56.8943 486.637 48.4676 485.679Z" fill="url(#paint1_linear)"/>
<path d="M67.9838 486.103C67.9028 486.443 67.7299 486.754 67.484 487.002C67.2381 487.25 66.9287 487.426 66.5896 487.511C61.4342 488.595 53.2394 487.722 49.799 487.272C49.0408 487.173 48.4849 486.47 48.4727 485.679C56.8993 486.638 64.3605 486.427 67.9838 486.103Z" fill="url(#paint2_linear)"/>
<path d="M56.2656 464.997L58.1828 474.257C58.2369 474.576 58.3917 474.869 58.6244 475.093C58.8571 475.317 59.1556 475.461 59.4759 475.503C60.4678 475.603 61.468 475.588 62.4562 475.456C63.4496 475.31 64.1398 474.302 63.9638 473.22L62.627 464.997H56.2656Z" fill="url(#paint3_linear)"/>
<path d="M105.317 486.026C100.625 485.894 98.1973 485.341 96.9512 484.829C96.9512 485.296 96.9512 485.77 96.9651 486.261C96.9608 486.503 97.0509 486.737 97.2162 486.913C97.3816 487.089 97.6092 487.193 97.8505 487.204L123.615 487.03C124.438 487.03 124.919 486.07 124.561 485.317C121.175 485.604 112.571 486.228 105.317 486.026Z" fill="url(#paint4_linear)"/>
<path d="M124.552 485.325C124.525 485.257 124.491 485.191 124.451 485.13C122.175 481.951 116.38 475.619 104.931 472.874L99.4376 472.7C99.4376 472.7 96.9976 476.952 96.9453 484.828C98.2002 485.341 100.628 485.893 105.311 486.026C112.57 486.228 121.174 485.604 124.552 485.325Z" fill="url(#paint5_linear)"/>
<path d="M98.416 464.375C98.477 464.784 99.2299 471.008 99.521 473.422C99.5436 473.689 99.6553 473.94 99.838 474.136C100.021 474.331 100.264 474.46 100.528 474.501C101.464 474.612 102.979 474.715 104.303 474.443C105.018 474.297 105.534 473.61 105.534 472.812V463.052L98.416 464.375Z" fill="url(#paint6_linear)"/>
<path d="M59.9344 343.386C59.9344 343.386 51.1434 421.53 56.0286 470.368C56.0286 470.368 61.8881 470.368 64.8196 469.392C64.8196 469.392 73.9538 392.987 76.9097 371.125C76.9328 370.952 77.0164 370.794 77.1455 370.677C77.2746 370.56 77.4409 370.493 77.6148 370.488C77.7887 370.482 77.9591 370.538 78.0955 370.646C78.2319 370.754 78.3255 370.907 78.3598 371.078C82.0058 389.472 96.3268 461.603 98.0295 468.414C98.0295 468.414 102.91 470.368 106.82 468.414C106.82 468.414 99.0073 363.899 93.1461 345.339L59.9344 343.386Z" fill="#4A97D2"/>
<path d="M42.3497 252.545C42.3497 252.545 79.4724 246.684 108.771 254.499L106.818 284.779C106.818 284.779 99.0045 326.782 93.1433 345.34C93.1433 345.34 70.6762 349.247 59.9316 343.386C59.9316 343.386 51.1406 290.64 46.2571 282.825C46.2571 282.825 41.3737 262.314 42.3497 252.545Z" fill="url(#paint7_linear)"/>
<path d="M68.1419 225.855L64.4453 250.865C64.4453 250.865 74.7752 255.611 82.0098 250.663L80.4517 233.014L68.1419 225.855Z" fill="url(#paint8_linear)"/>
<path d="M84.0573 209.572C84.1741 209.783 86.4032 222.392 87.7748 230.199C87.9084 230.959 87.8795 231.74 87.6902 232.488C87.5008 233.237 87.1552 233.937 86.6761 234.543C86.197 235.149 85.5951 235.646 84.9101 236.003C84.2251 236.359 83.4724 236.567 82.7014 236.612L79.7089 236.787C77.055 236.944 74.438 236.104 72.3706 234.433C70.3032 232.761 68.9343 230.378 68.532 227.75L66.3691 213.612C66.3691 213.612 81.2304 204.444 84.0573 209.572Z" fill="url(#paint9_linear)"/>
<path d="M63.1457 213.65C61.9971 212.223 60.9967 209.915 63.442 207.489C65.9151 205.032 68.7228 205.643 70.5023 206.468C70.8869 206.653 71.3211 206.708 71.7397 206.625C72.1584 206.542 72.5388 206.325 72.8238 206.008C72.9636 205.84 73.1451 205.712 73.3499 205.636C73.5548 205.56 73.776 205.539 73.9915 205.576C74.2336 205.609 74.4799 205.594 74.7161 205.531C74.9523 205.469 75.1738 205.36 75.3674 205.211C75.5611 205.061 75.7232 204.875 75.8442 204.663C75.9652 204.451 76.0428 204.216 76.0724 203.974C76.2833 202.2 77.2279 200.112 80.3633 199.507C86.1148 198.395 88.9818 204.15 88.8789 208.195C88.7761 212.24 82.4739 213.091 78.8993 212.418C76.2711 211.925 74.0002 214.234 72.9736 215.494C72.7907 215.719 72.6617 215.983 72.5964 216.265C72.5312 216.548 72.5314 216.841 72.5972 217.124L73.507 221.031C72.8778 222.251 72.2591 223.487 71.3737 224.517C70.8471 225.176 70.1184 225.645 69.2997 225.85C68.2261 223.855 65.2284 223.516 63.8359 223.471C63.573 223.463 63.3146 223.4 63.0769 223.288C62.8391 223.176 62.627 223.015 62.4538 222.818C61.4081 221.611 59.7558 218.921 62.9069 216.28C63.28 215.958 63.5135 215.504 63.558 215.013C63.6026 214.523 63.4547 214.034 63.1457 213.65V213.65Z" fill="url(#paint10_linear)"/>
<path d="M70.3435 230.038C70.3435 230.038 70.2198 222.983 67.3633 222.321C64.5067 221.658 61.4271 223.715 63.8775 227.947C66.9066 233.2 70.3435 230.038 70.3435 230.038Z" fill="url(#paint11_linear)"/>
<path d="M59.0627 286.273C59.0627 286.273 -24.8084 263.442 16.837 204.734L19.6534 208.722C19.6534 208.722 7.10492 248.488 48.6719 252.267C48.6719 252.26 59.4357 280.03 59.0627 286.273Z" fill="url(#paint12_linear)"/>
<path d="M16.5512 205.028C16.5512 205.028 15.6066 193.699 21.2743 192.748C26.9421 191.796 28.8313 197.471 29.776 200.305C30.7206 203.139 21.2743 208.807 19.3851 208.807C17.4958 208.807 16.5512 205.028 16.5512 205.028Z" fill="url(#paint13_linear)"/>
<path d="M89.3201 289.107C89.3201 289.107 173.19 266.276 131.546 207.568L128.728 211.555C128.728 211.555 141.276 251.322 99.711 255.1C99.711 255.1 88.9454 282.864 89.3201 289.107Z" fill="url(#paint14_linear)"/>
<path d="M131.824 207.869C131.824 207.869 132.769 196.541 127.101 195.589C121.433 194.638 119.544 200.312 118.599 203.146C117.655 205.98 127.101 211.648 128.99 211.648C130.88 211.648 131.824 207.869 131.824 207.869Z" fill="url(#paint15_linear)"/>
<path d="M83.9491 209.908C83.912 209.907 83.8766 209.892 83.8498 209.867C83.8231 209.841 83.8069 209.806 83.8045 209.769C83.8021 209.732 83.8136 209.696 83.8368 209.667C83.86 209.638 83.8933 209.619 83.9299 209.613C84.6506 209.463 85.2859 209.041 85.7041 208.435C86.4187 207.412 86.5668 205.903 86.1416 203.949C85.8296 202.515 85.1656 201.534 84.1669 201.035C82.2114 200.057 79.5954 201.235 79.571 201.246C79.5532 201.256 79.5336 201.262 79.5133 201.264C79.4931 201.265 79.4727 201.263 79.4534 201.257C79.434 201.25 79.4162 201.24 79.4011 201.227C79.3859 201.213 79.3737 201.197 79.3652 201.178C79.3567 201.16 79.352 201.14 79.3516 201.119C79.3512 201.099 79.3549 201.079 79.3626 201.06C79.3703 201.041 79.3818 201.024 79.3964 201.01C79.4109 200.996 79.4283 200.985 79.4473 200.978C79.5588 200.927 82.2184 199.731 84.2994 200.77C85.3817 201.312 86.098 202.36 86.4309 203.886C86.8735 205.927 86.7097 207.517 85.9411 208.61C85.4801 209.285 84.7711 209.751 83.9682 209.906L83.9491 209.908Z" fill="white"/>
<path d="M474.153 171.454H151.194C148.595 171.454 146.488 173.561 146.488 176.16V369.905C146.488 372.504 148.595 374.611 151.194 374.611H474.153C476.752 374.611 478.858 372.504 478.858 369.905V176.16C478.858 173.561 476.752 171.454 474.153 171.454Z" fill="#4A97D2"/>
<path d="M479.286 201.844V184.898C479.286 177.474 472.838 171.13 465.408 171.13H159.935C152.511 171.13 146.221 177.468 146.221 184.898V201.844H479.286Z" fill="#213F9A"/>
<path d="M403.345 220.948H453.178C454.516 220.948 455.841 221.211 457.077 221.723C458.313 222.235 459.436 222.985 460.381 223.931C461.327 224.877 462.078 226 462.59 227.236C463.102 228.472 463.365 229.797 463.365 231.135V280.968C463.365 283.67 462.292 286.261 460.381 288.171C458.471 290.082 455.88 291.155 453.178 291.155H403.345C400.643 291.155 398.051 290.081 396.14 288.171C394.23 286.26 393.156 283.668 393.156 280.966V231.135C393.157 228.433 394.23 225.842 396.141 223.931C398.052 222.021 400.643 220.948 403.345 220.948Z" fill="#C4C4C4"/>
<path d="M439.53 240.059C439.53 246.776 434.085 254.029 427.367 254.029C420.648 254.029 415.205 246.776 415.205 240.059C415.205 233.343 420.65 228.576 427.367 228.576C434.084 228.576 439.53 233.332 439.53 240.059Z" fill="white"/>
<path d="M412.273 279.884H441.964C443.487 279.884 444.971 279.4 446.202 278.502C447.432 277.604 448.346 276.338 448.81 274.887L450.408 269.892C450.975 268.131 450.841 266.219 450.032 264.554C449.224 262.89 447.805 261.602 446.07 260.958C433.987 256.54 421.496 257.108 408.691 261.366C405.106 262.56 403.114 266.396 404.106 270.042L405.336 274.573C405.748 276.097 406.651 277.443 407.905 278.403C409.159 279.363 410.694 279.883 412.273 279.884V279.884Z" fill="white"/>
<path d="M351.117 220.948H167.998C164.94 220.948 162.461 223.427 162.461 226.485V230.349C162.461 233.407 164.94 235.886 167.998 235.886H351.117C354.175 235.886 356.654 233.407 356.654 230.349V226.485C356.654 223.427 354.175 220.948 351.117 220.948Z" fill="#C4C4C4"/>
<path opacity="0.4" d="M354.882 321.581H165.655C164.284 321.581 163.172 322.693 163.172 324.065V344.493C163.172 345.864 164.284 346.976 165.655 346.976H354.882C356.254 346.976 357.366 345.864 357.366 344.493V324.065C357.366 322.693 356.254 321.581 354.882 321.581Z" fill="white"/>
<path d="M246.511 249.131H169.451C166.393 249.131 163.914 251.61 163.914 254.668V258.532C163.914 261.59 166.393 264.069 169.451 264.069H246.511C249.569 264.069 252.048 261.59 252.048 258.532V254.668C252.048 251.61 249.569 249.131 246.511 249.131Z" fill="#C4C4C4"/>
<path d="M248.308 279.434H171.248C168.19 279.434 165.711 281.913 165.711 284.971V288.835C165.711 291.893 168.19 294.372 171.248 294.372H248.308C251.366 294.372 253.845 291.893 253.845 288.835V284.971C253.845 281.913 251.366 279.434 248.308 279.434Z" fill="#C4C4C4"/>
<path d="M349.034 250.191H271.975C268.917 250.191 266.438 252.67 266.438 255.728V259.592C266.438 262.65 268.917 265.129 271.975 265.129H349.034C352.093 265.129 354.571 262.65 354.571 259.592V255.728C354.571 252.67 352.093 250.191 349.034 250.191Z" fill="#C4C4C4"/>
<path d="M431.811 376.887C431.811 376.887 442.709 364.658 440.937 353.096C439.164 341.533 430.321 342.914 426.386 349.751C422.451 356.588 418.913 355.649 421.252 349.228C423.59 342.807 426.52 338.618 421.675 332.22C416.83 325.822 416.328 323.103 419.05 317.395C421.773 311.687 425.19 303.597 414.359 300.709C403.527 297.821 392.737 306.69 395.262 318.298C397.788 329.905 399.306 331.167 395.827 335.467C392.348 339.766 393.798 341.532 394.29 344.329C394.781 347.126 389.469 347.782 389.584 343.841C389.699 339.9 396.459 330.595 391.85 326.257C387.24 321.919 378.189 321.871 375.873 331.906C373.557 341.941 380.979 346.45 380.61 350.079C380.24 353.707 376.253 348.205 372.783 351.905C369.313 355.605 373.985 358.511 377.424 360.517C380.863 362.523 386.051 366.115 381.115 368.724C376.18 371.333 371.507 368.835 374.531 376.894L431.811 376.887Z" fill="#C4C4C4"/>
<path opacity="0.62" d="M409.409 309.076C409.065 309.246 408.739 309.449 408.437 309.684C408.137 309.911 407.855 310.16 407.595 310.43C407.076 310.96 406.629 311.555 406.265 312.201C405.564 313.472 405.141 314.878 405.024 316.325C405.001 316.499 404.996 316.682 404.986 316.86C404.975 317.037 404.966 317.208 404.972 317.396V317.931L405.001 318.465L405.017 318.733L405.047 318.998L405.106 319.521C405.167 319.87 405.209 320.227 405.28 320.567C405.352 320.907 405.423 321.264 405.517 321.612L405.651 322.135L405.789 322.635L406.345 324.634C407.082 327.298 407.792 329.959 408.351 332.636C408.911 335.313 409.27 338.013 409.184 340.683C409.166 341.348 409.107 342.012 409.01 342.671C408.922 343.326 408.786 343.974 408.602 344.609C408.42 345.244 408.183 345.862 407.896 346.457C407.581 347.121 407.323 347.811 407.124 348.519C406.772 349.884 406.518 351.273 406.362 352.675C406.201 354.059 406.071 355.438 405.974 356.811C405.761 359.559 405.58 362.297 405.137 365.002C405.082 365.339 405.022 365.677 404.951 366.01C404.879 366.343 404.806 366.679 404.729 367.012C404.653 367.345 404.555 367.674 404.47 368.007C404.421 368.171 404.365 368.333 404.315 368.497C404.264 368.661 404.214 368.824 404.149 368.983L403.966 369.466C403.905 369.626 403.827 369.781 403.759 369.94C403.626 370.259 403.452 370.559 403.293 370.867C402.94 371.479 402.511 372.044 402.018 372.549L402.141 372.657C402.693 372.173 403.183 371.624 403.6 371.02C403.997 370.424 404.34 369.793 404.627 369.136C405.18 367.845 405.608 366.502 405.902 365.128C406.528 362.404 406.824 359.645 407.162 356.912C407.337 355.544 407.487 354.179 407.698 352.829C407.889 351.488 408.176 350.162 408.555 348.862C408.751 348.231 408.996 347.616 409.289 347.023C409.623 346.367 409.899 345.683 410.115 344.979C410.33 344.289 410.493 343.584 410.605 342.87C410.719 342.167 410.792 341.457 410.824 340.745C410.957 337.906 410.563 335.112 410.031 332.38C409.474 329.645 408.776 326.94 407.94 324.277C407.732 323.611 407.525 322.947 407.311 322.285L407.147 321.788L406.999 321.304C406.894 320.983 406.816 320.657 406.729 320.333C406.641 320.009 406.579 319.68 406.502 319.354L406.418 318.86C406.387 318.697 406.361 318.531 406.342 318.367C406.25 317.709 406.205 317.046 406.207 316.382C406.205 315.719 406.267 315.058 406.394 314.407C406.518 313.751 406.709 313.108 406.964 312.49C407.099 312.179 407.252 311.875 407.42 311.581C407.588 311.277 407.777 310.986 407.985 310.709C408.406 310.137 408.912 309.632 409.486 309.212L409.409 309.076Z" fill="white"/>
<path opacity="0.62" d="M432.608 350.497C432.278 352.662 431.827 354.807 431.257 356.922C430.973 357.98 430.661 359.033 430.314 360.074C430.232 360.335 430.14 360.596 430.046 360.853C429.952 361.109 429.861 361.375 429.764 361.626C429.581 362.149 429.371 362.653 429.169 363.164C428.967 363.674 428.741 364.176 428.502 364.675C428.263 365.173 428.028 365.672 427.784 366.167C427.271 367.146 426.738 368.115 426.13 369.053C425.523 369.996 424.866 370.907 424.162 371.78C423.431 372.658 422.653 373.494 421.83 374.287L421.947 374.402C422.898 373.71 423.788 372.938 424.606 372.094C425.4 371.253 426.135 370.359 426.806 369.417C427.456 368.48 428.051 367.506 428.587 366.499C428.843 365.996 429.11 365.496 429.338 364.983C429.567 364.471 429.788 363.953 430.006 363.436C430.224 362.918 430.415 362.39 430.598 361.867C430.694 361.606 430.781 361.344 430.865 361.074C430.949 360.804 431.039 360.551 431.114 360.277C431.444 359.214 431.714 358.139 431.947 357.058C432.427 354.905 432.707 352.712 432.782 350.507L432.608 350.497Z" fill="white"/>
<path d="M147.874 408.539H141.014C132.145 408.539 124.955 415.728 124.955 424.597V467.48C124.955 476.349 132.145 483.539 141.014 483.539H147.874C156.742 483.539 163.932 476.349 163.932 467.48V424.597C163.932 415.728 156.742 408.539 147.874 408.539Z" fill="url(#paint16_linear)"/>
<path d="M368.741 408.539H361.881C353.012 408.539 345.822 415.728 345.822 424.597V467.48C345.822 476.349 353.012 483.539 361.881 483.539H368.741C377.61 483.539 384.799 476.349 384.799 467.48V424.597C384.799 415.728 377.61 408.539 368.741 408.539Z" fill="#484F59"/>
<path d="M146.16 344.591C145.679 344.484 145.038 344.057 145.038 343.564V340.274C145.038 337.093 143.546 334.184 140.705 332.753C138.923 331.843 136.957 331.354 134.956 331.324C132.956 331.294 130.976 331.723 129.167 332.579L122.471 335.765C119.212 337.286 117.278 340.558 117.278 344.155V346.672C117.262 348.904 118.058 351.066 119.519 352.754C120.98 354.443 123.005 355.542 125.216 355.848L153.299 359.682L156.61 346.875L146.16 344.591Z" fill="url(#paint17_linear)"/>
<path d="M365.034 344.591C365.517 344.485 365.311 344.058 365.311 343.564V340.274C365.311 337.093 367.65 334.184 370.489 332.754C372.346 331.842 374.382 331.353 376.45 331.323C378.518 331.293 380.568 331.722 382.45 332.579L389.098 335.774C392.357 337.295 394.249 340.567 394.249 344.164V346.681C394.249 351.311 391.154 355.231 386.565 355.857L358.608 359.691L354.939 346.885L365.034 344.591Z" fill="#979797"/>
<path d="M386.124 372.906C382.053 359.165 361.027 346.096 361.027 346.096C361.027 346.096 343.386 291.607 324.387 291.607H187.399C168.402 291.607 150.758 346.096 150.758 346.096C150.758 346.096 129.723 358.993 125.661 372.725C122.684 382.772 129.136 421.254 132.822 441.193C134.122 448.223 140.755 453.42 148.508 453.42H363.284C371.029 453.42 377.663 448.314 378.97 441.283C382.649 421.345 389.101 382.952 386.124 372.906Z" fill="url(#paint18_linear)"/>
<path d="M189.147 406.03L189.153 406.046L189.159 406.063C189.499 406.886 189.423 407.514 189.076 408.036C188.705 408.594 187.975 409.104 186.854 409.539C184.616 410.408 181.098 410.877 176.809 411.052C168.255 411.402 156.871 410.579 147.146 409.67C142.37 409.224 139.255 407.703 137.249 405.642C135.239 403.577 134.287 400.915 133.942 398.087C133.597 395.256 133.865 392.291 134.269 389.663C134.47 388.35 134.704 387.129 134.911 386.052L134.911 386.052L134.913 386.038C135.117 384.974 135.297 384.037 135.384 383.313C135.434 382.894 135.783 382.484 136.696 382.153C137.594 381.827 138.891 381.637 140.508 381.571C143.733 381.439 148.073 381.802 152.66 382.395C161.571 383.546 171.313 385.551 175.387 386.389C175.505 386.413 175.617 386.436 175.725 386.458C177.485 386.82 179.218 388.16 180.847 390.071C182.467 391.97 183.931 394.372 185.166 396.745C186.399 399.114 187.395 401.437 188.084 403.169C188.427 404.035 188.694 404.752 188.874 405.251C188.964 405.501 189.033 405.697 189.079 405.829C189.102 405.896 189.119 405.946 189.13 405.98L189.143 406.018L189.146 406.027L189.147 406.029L189.147 406.03L189.622 405.872L189.147 406.03Z" fill="#213F9A" stroke="#213F9A"/>
<path d="M322.629 406.063L322.636 406.046L322.641 406.03L322.167 405.872L322.641 406.03L322.642 406.029L322.642 406.027L322.645 406.018L322.658 405.98C322.67 405.946 322.687 405.896 322.71 405.829C322.756 405.697 322.824 405.501 322.914 405.251C323.095 404.752 323.361 404.035 323.705 403.169C324.393 401.437 325.389 399.114 326.623 396.745C327.857 394.372 329.321 391.97 330.941 390.071C332.571 388.16 334.304 386.82 336.064 386.458C336.172 386.436 336.284 386.413 336.401 386.389C340.475 385.551 350.218 383.546 359.128 382.395C363.716 381.802 368.056 381.439 371.28 381.571C372.898 381.637 374.195 381.827 375.093 382.153C376.006 382.484 376.354 382.894 376.405 383.313C376.492 384.037 376.671 384.974 376.875 386.038L376.878 386.052L376.878 386.052C377.084 387.129 377.318 388.35 377.52 389.663C377.924 392.291 378.192 395.256 377.847 398.087C377.502 400.915 376.55 403.577 374.54 405.642C372.533 407.703 369.419 409.224 364.643 409.67C354.918 410.579 343.533 411.402 334.979 411.052C330.691 410.877 327.172 410.408 324.935 409.539C323.813 409.104 323.084 408.594 322.713 408.036C322.366 407.514 322.29 406.886 322.629 406.063Z" fill="#213F9A" stroke="#213F9A"/>
<path d="M314.904 388.369C315.341 388.369 315.798 388.558 316.24 388.888C316.676 389.216 317.064 389.658 317.353 390.101C317.622 390.552 317.781 391.06 317.819 391.583C317.857 392.108 317.771 392.635 317.569 393.121C317.568 393.122 317.568 393.123 317.567 393.125L312.282 405.196C312.282 405.196 312.282 405.197 312.282 405.197C311.204 407.62 309.449 409.679 307.228 411.127C305.006 412.575 302.413 413.348 299.761 413.355C299.761 413.355 299.761 413.355 299.761 413.355L213.038 413.355C207.977 413.355 203.314 410.424 200.932 405.934C200.931 405.934 200.931 405.933 200.931 405.933L194.294 393.283C194.055 392.8 193.937 392.265 193.95 391.725C193.964 391.186 194.109 390.658 194.372 390.188C194.654 389.72 195.046 389.256 195.494 388.913C195.945 388.567 196.419 388.369 196.875 388.369H314.904Z" fill="#213F9A" stroke="#213F9A"/>
<path d="M178.199 313.369L178.202 313.361L178.206 313.353C178.391 312.931 178.6 312.52 178.834 312.123C180.841 308.95 184.345 306.871 188.149 306.871H325.111C328.95 306.871 332.478 308.965 334.475 312.172C334.758 312.645 335.007 313.137 335.223 313.644L335.225 313.648L349.797 347.165C349.797 347.166 349.798 347.166 349.798 347.167C350.041 347.74 350.142 348.364 350.09 348.985C350.039 349.605 349.837 350.203 349.503 350.728C348.808 351.785 347.649 352.525 346.449 352.525H165.344C164.132 352.525 162.954 351.773 162.267 350.682C161.936 350.147 161.744 349.538 161.706 348.91C161.668 348.283 161.787 347.656 162.052 347.085C166.163 338.421 173.877 322.341 178.199 313.369Z" fill="#213F9A" stroke="#213F9A"/>
<path opacity="0.7" d="M186.698 380.95C186.525 380.951 186.358 380.884 186.233 380.765L162.757 358.549C162.692 358.488 162.64 358.414 162.604 358.333C162.567 358.252 162.548 358.164 162.545 358.075C162.543 357.986 162.558 357.897 162.59 357.814C162.622 357.731 162.67 357.654 162.731 357.59C162.793 357.525 162.866 357.473 162.947 357.437C163.029 357.401 163.117 357.381 163.206 357.378C163.295 357.376 163.383 357.391 163.467 357.423C163.55 357.455 163.626 357.503 163.691 357.564L187.165 379.779C187.264 379.872 187.333 379.993 187.362 380.126C187.391 380.259 187.38 380.397 187.33 380.523C187.279 380.65 187.192 380.758 187.08 380.834C186.967 380.91 186.834 380.951 186.698 380.95V380.95Z" fill="white"/>
<path opacity="0.7" d="M323.358 380.95C323.222 380.951 323.089 380.91 322.976 380.834C322.863 380.758 322.776 380.65 322.726 380.523C322.676 380.397 322.664 380.259 322.694 380.126C322.723 379.993 322.792 379.872 322.891 379.779L346.367 357.565C346.431 357.503 346.507 357.456 346.59 357.424C346.674 357.392 346.762 357.377 346.851 357.379C346.94 357.382 347.028 357.402 347.109 357.438C347.191 357.474 347.264 357.526 347.325 357.591C347.386 357.656 347.434 357.732 347.466 357.815C347.498 357.898 347.513 357.987 347.511 358.076C347.508 358.165 347.488 358.252 347.452 358.334C347.416 358.415 347.364 358.488 347.299 358.549L323.825 380.766C323.698 380.884 323.531 380.95 323.358 380.95V380.95Z" fill="white"/>
<defs>
<linearGradient id="paint0_linear" x1="547.414" y1="627.641" x2="116.201" y2="92.1037" gradientUnits="userSpaceOnUse">
<stop stop-color="#DAE3FE"/>
<stop offset="1" stop-color="#E9EFFD"/>
</linearGradient>
<linearGradient id="paint1_linear" x1="68.0869" y1="479.105" x2="48.4676" y2="479.105" gradientUnits="userSpaceOnUse">
<stop stop-color="#560140"/>
<stop offset="1" stop-color="#560140"/>
</linearGradient>
<linearGradient id="paint2_linear" x1="18.6508" y1="455.217" x2="90.8089" y2="511.878" gradientUnits="userSpaceOnUse">
<stop stop-color="#53D8FF"/>
<stop offset="1" stop-color="#3840F7"/>
</linearGradient>
<linearGradient id="paint3_linear" x1="61.6493" y1="456.083" x2="57.7331" y2="490.267" gradientUnits="userSpaceOnUse">
<stop stop-color="#FEBBBA"/>
<stop offset="1" stop-color="#FF928E"/>
</linearGradient>
<linearGradient id="paint4_linear" x1="82815.4" y1="8031.78" x2="82604.3" y2="9966.83" gradientUnits="userSpaceOnUse">
<stop stop-color="#53D8FF"/>
<stop offset="1" stop-color="#3840F7"/>
</linearGradient>
<linearGradient id="paint5_linear" x1="77503.8" y1="43498.5" x2="81877.6" y2="43498.5" gradientUnits="userSpaceOnUse">
<stop stop-color="#560040"/>
<stop offset="1" stop-color="#1A0F91"/>
</linearGradient>
<linearGradient id="paint6_linear" x1="20381.4" y1="36434.8" x2="19994.7" y2="38512.4" gradientUnits="userSpaceOnUse">
<stop stop-color="#FEBBBA"/>
<stop offset="1" stop-color="#FF928E"/>
</linearGradient>
<linearGradient id="paint7_linear" x1="115.851" y1="148.217" x2="98.1349" y2="203.728" gradientUnits="userSpaceOnUse">
<stop stop-color="#FF928E"/>
<stop offset="1" stop-color="#DF5067"/>
</linearGradient>
<linearGradient id="paint8_linear" x1="14415.7" y1="50074.5" x2="16185.8" y2="50074.5" gradientUnits="userSpaceOnUse">
<stop stop-color="#FEBBBA"/>
<stop offset="1" stop-color="#FF928E"/>
</linearGradient>
<linearGradient id="paint9_linear" x1="191068" y1="-161502" x2="194152" y2="-163991" gradientUnits="userSpaceOnUse">
<stop stop-color="#FEBBBA"/>
<stop offset="1" stop-color="#FF928E"/>
</linearGradient>
<linearGradient id="paint10_linear" x1="17439.7" y1="17188.4" x2="21889.1" y2="14761.5" gradientUnits="userSpaceOnUse">
<stop stop-color="#720C53"/>
<stop offset="1" stop-color="#720C53"/>
</linearGradient>
<linearGradient id="paint11_linear" x1="66321" y1="-53603.7" x2="67354.2" y2="-54474.7" gradientUnits="userSpaceOnUse">
<stop stop-color="#FEBBBA"/>
<stop offset="1" stop-color="#FF928E"/>
</linearGradient>
<linearGradient id="paint12_linear" x1="46220.1" y1="101157" x2="35006.7" y2="124354" gradientUnits="userSpaceOnUse">
<stop stop-color="#FF928E"/>
<stop offset="1" stop-color="#FE7062"/>
</linearGradient>
<linearGradient id="paint13_linear" x1="10533.5" y1="19927" x2="4550.25" y2="29298.4" gradientUnits="userSpaceOnUse">
<stop stop-color="#FEBBBA"/>
<stop offset="1" stop-color="#FF928E"/>
</linearGradient>
<linearGradient id="paint14_linear" x1="70479" y1="112846" x2="59266.4" y2="136043" gradientUnits="userSpaceOnUse">
<stop stop-color="#FF928E"/>
<stop offset="1" stop-color="#FE7062"/>
</linearGradient>
<linearGradient id="paint15_linear" x1="-10012.5" y1="25396.8" x2="-8940.95" y2="28304.6" gradientUnits="userSpaceOnUse">
<stop stop-color="#FEBBBA"/>
<stop offset="1" stop-color="#FF928E"/>
</linearGradient>
<linearGradient id="paint16_linear" x1="48074.5" y1="118501" x2="53882" y2="214072" gradientUnits="userSpaceOnUse">
<stop stop-color="#484F59"/>
<stop offset="1" stop-color="#560140"/>
</linearGradient>
<linearGradient id="paint17_linear" x1="44179.1" y1="69838.7" x2="53055.7" y2="69838.7" gradientUnits="userSpaceOnUse">
<stop stop-color="#979797"/>
<stop offset="1" stop-color="#FE7062"/>
</linearGradient>
<linearGradient id="paint18_linear" x1="502566" y1="385536" x2="501486" y2="597053" gradientUnits="userSpaceOnUse">
<stop stop-color="#E2DC3D"/>
<stop offset="1" stop-color="#FF4040"/>
</linearGradient>
</defs>
</svg>
