<svg width="428" height="474" viewBox="0 0 428 474" fill="none" xmlns="http://www.w3.org/2000/svg">
<path d="M408.275 156.542H211.154V258.841H408.275V156.542Z" stroke="#3C2E67" stroke-miterlimit="10" stroke-linecap="round" stroke-dasharray="2.03 5.06"/>
<path d="M243.368 38.5605H131.928V124.499H243.368V38.5605Z" stroke="#3C2E67" stroke-miterlimit="10" stroke-linecap="round" stroke-dasharray="2.03 5.06"/>
<path d="M392.657 63.2857C392.654 60.6657 391.612 58.154 389.758 56.3024C387.904 54.4508 385.392 53.4108 382.772 53.4108H195.742C193.123 53.4108 190.611 54.4512 188.759 56.3031C186.908 58.155 185.867 60.6667 185.867 63.2857V171.046H392.657V63.2857Z" fill="#3C2E67"/>
<path d="M185.891 171.834V175.072C185.891 177.691 186.931 180.202 188.783 182.054C190.635 183.906 193.147 184.947 195.766 184.947H382.795C384.093 184.948 385.378 184.694 386.577 184.198C387.777 183.702 388.867 182.975 389.785 182.058C390.703 181.141 391.431 180.052 391.928 178.853C392.425 177.654 392.681 176.369 392.681 175.072V171.834H185.891Z" fill="#BEBBC9"/>
<path d="M306.936 184.116H271.592V210.168H306.936V184.116Z" fill="#150A2C"/>
<path d="M244.328 210.179H336.883C338.314 210.179 339.686 210.747 340.698 211.759C341.71 212.771 342.279 214.144 342.279 215.575V220.971H238.986V215.575C238.986 214.153 239.547 212.789 240.548 211.778C241.548 210.768 242.907 210.193 244.328 210.179V210.179Z" fill="#3C2E67"/>
<path d="M386.333 63.2858C386.33 62.3431 385.954 61.44 385.286 60.7744C384.619 60.1088 383.714 59.7351 382.772 59.7351H195.742C194.801 59.738 193.9 60.113 193.235 60.7782C192.569 61.4435 192.194 62.3449 192.191 63.2858V74.3154H386.333V63.2858Z" fill="#AEABDE"/>
<path d="M192.191 74.3154V163.826C192.191 164.768 192.565 165.671 193.231 166.337C193.897 167.003 194.8 167.377 195.742 167.377H382.772C383.239 167.378 383.702 167.288 384.134 167.11C384.566 166.932 384.958 166.671 385.289 166.341C385.62 166.011 385.883 165.619 386.062 165.188C386.241 164.756 386.333 164.293 386.333 163.826V74.3154H192.191Z" fill="#150A2C"/>
<path d="M341.72 87.6329H230.484V167.377H341.72V87.6329Z" fill="white"/>
<g style="mix-blend-mode:multiply" opacity="0.15">
<g style="mix-blend-mode:multiply" opacity="0.15">
<path d="M257.83 123.231C257.689 122.95 257.575 122.449 257.487 121.728C256.354 122.906 255 123.495 253.427 123.495C252.021 123.495 250.865 123.099 249.959 122.308C249.063 121.508 248.615 120.498 248.615 119.276C248.615 117.791 249.177 116.639 250.302 115.822C251.436 114.996 253.027 114.583 255.075 114.583H257.448V113.462C257.448 112.609 257.193 111.933 256.683 111.432C256.173 110.922 255.422 110.667 254.429 110.667C253.559 110.667 252.829 110.887 252.24 111.326C251.651 111.766 251.357 112.297 251.357 112.921H248.905C248.905 112.209 249.155 111.524 249.656 110.865C250.166 110.197 250.852 109.669 251.713 109.283C252.583 108.896 253.537 108.703 254.574 108.703C256.217 108.703 257.505 109.116 258.437 109.942C259.368 110.759 259.852 111.889 259.887 113.33V119.896C259.887 121.205 260.054 122.247 260.388 123.02V123.231H257.83ZM253.783 121.372C254.547 121.372 255.272 121.174 255.958 120.779C256.644 120.383 257.14 119.869 257.448 119.236V116.31H255.536C252.548 116.31 251.054 117.184 251.054 118.933C251.054 119.698 251.309 120.295 251.818 120.726C252.328 121.157 252.983 121.372 253.783 121.372ZM263.117 115.98C263.117 113.792 263.635 112.034 264.672 110.707C265.709 109.371 267.067 108.703 268.746 108.703C270.416 108.703 271.739 109.274 272.714 110.417V102.981H275.153V123.231H272.912L272.793 121.702C271.818 122.897 270.46 123.495 268.72 123.495C267.067 123.495 265.718 122.818 264.672 121.464C263.635 120.111 263.117 118.344 263.117 116.165V115.98ZM265.556 116.257C265.556 117.874 265.89 119.14 266.558 120.054C267.226 120.968 268.148 121.425 269.326 121.425C270.873 121.425 272.002 120.73 272.714 119.342V112.79C271.985 111.445 270.864 110.772 269.353 110.772C268.157 110.772 267.226 111.234 266.558 112.157C265.89 113.08 265.556 114.446 265.556 116.257ZM281.244 108.966L281.31 110.548C282.356 109.318 283.767 108.703 285.542 108.703C287.537 108.703 288.895 109.467 289.616 110.997C290.09 110.311 290.706 109.757 291.461 109.335C292.226 108.914 293.127 108.703 294.164 108.703C297.293 108.703 298.884 110.359 298.937 113.673V123.231H296.498V113.818C296.498 112.798 296.265 112.038 295.799 111.537C295.333 111.027 294.551 110.772 293.452 110.772C292.547 110.772 291.795 111.045 291.198 111.59C290.6 112.126 290.253 112.851 290.156 113.765V123.231H287.704V113.884C287.704 111.81 286.689 110.772 284.659 110.772C283.059 110.772 281.965 111.454 281.376 112.816V123.231H278.937V108.966H281.244ZM305.278 123.231H302.839V108.966H305.278V123.231ZM302.641 105.183C302.641 104.787 302.76 104.453 302.997 104.181C303.243 103.908 303.604 103.772 304.078 103.772C304.553 103.772 304.913 103.908 305.159 104.181C305.405 104.453 305.528 104.787 305.528 105.183C305.528 105.578 305.405 105.908 305.159 106.171C304.913 106.435 304.553 106.567 304.078 106.567C303.604 106.567 303.243 106.435 302.997 106.171C302.76 105.908 302.641 105.578 302.641 105.183ZM311.5 108.966L311.58 110.759C312.669 109.388 314.093 108.703 315.851 108.703C318.866 108.703 320.386 110.403 320.413 113.805V123.231H317.974V113.792C317.965 112.763 317.728 112.003 317.262 111.511C316.805 111.019 316.088 110.772 315.113 110.772C314.322 110.772 313.627 110.983 313.03 111.405C312.432 111.827 311.966 112.381 311.632 113.066V123.231H309.193V108.966H311.5Z" fill="#211915"/>
</g>
</g>
<path d="M257.83 120.932C257.689 120.651 257.575 120.15 257.487 119.429C256.354 120.607 255 121.196 253.427 121.196C252.021 121.196 250.865 120.8 249.959 120.009C249.063 119.209 248.615 118.199 248.615 116.977C248.615 115.492 249.177 114.34 250.302 113.523C251.436 112.697 253.027 112.284 255.075 112.284H257.448V111.163C257.448 110.311 257.193 109.634 256.683 109.133C256.173 108.623 255.422 108.368 254.429 108.368C253.559 108.368 252.829 108.588 252.24 109.027C251.651 109.467 251.357 109.999 251.357 110.623H248.905C248.905 109.911 249.155 109.225 249.656 108.566C250.166 107.898 250.852 107.371 251.713 106.984C252.583 106.597 253.537 106.404 254.574 106.404C256.217 106.404 257.505 106.817 258.437 107.643C259.368 108.46 259.852 109.59 259.887 111.031V117.597C259.887 118.906 260.054 119.948 260.388 120.721V120.932H257.83ZM253.783 119.073C254.547 119.073 255.272 118.875 255.958 118.48C256.644 118.084 257.14 117.57 257.448 116.938V114.011H255.536C252.548 114.011 251.054 114.885 251.054 116.634C251.054 117.399 251.309 117.997 251.818 118.427C252.328 118.858 252.983 119.073 253.783 119.073ZM263.117 113.681C263.117 111.493 263.635 109.735 264.672 108.408C265.709 107.072 267.067 106.404 268.746 106.404C270.416 106.404 271.739 106.975 272.714 108.118V100.682H275.153V120.932H272.912L272.793 119.403C271.818 120.598 270.46 121.196 268.72 121.196C267.067 121.196 265.718 120.519 264.672 119.166C263.635 117.812 263.117 116.045 263.117 113.866V113.681ZM265.556 113.958C265.556 115.575 265.89 116.841 266.558 117.755C267.226 118.669 268.148 119.126 269.326 119.126C270.873 119.126 272.002 118.432 272.714 117.043V110.491C271.985 109.146 270.864 108.474 269.353 108.474C268.157 108.474 267.226 108.935 266.558 109.858C265.89 110.781 265.556 112.147 265.556 113.958ZM281.244 106.667L281.31 108.25C282.356 107.019 283.767 106.404 285.542 106.404C287.537 106.404 288.895 107.168 289.616 108.698C290.09 108.012 290.706 107.458 291.461 107.037C292.226 106.615 293.127 106.404 294.164 106.404C297.293 106.404 298.884 108.061 298.937 111.374V120.932H296.498V111.519C296.498 110.5 296.265 109.739 295.799 109.238C295.333 108.729 294.551 108.474 293.452 108.474C292.547 108.474 291.795 108.746 291.198 109.291C290.6 109.827 290.253 110.552 290.156 111.466V120.932H287.704V111.585C287.704 109.511 286.689 108.474 284.659 108.474C283.059 108.474 281.965 109.155 281.376 110.517V120.932H278.937V106.667H281.244ZM305.278 120.932H302.839V106.667H305.278V120.932ZM302.641 102.884C302.641 102.488 302.76 102.154 302.997 101.882C303.243 101.609 303.604 101.473 304.078 101.473C304.553 101.473 304.913 101.609 305.159 101.882C305.405 102.154 305.528 102.488 305.528 102.884C305.528 103.279 305.405 103.609 305.159 103.873C304.913 104.136 304.553 104.268 304.078 104.268C303.604 104.268 303.243 104.136 302.997 103.873C302.76 103.609 302.641 103.279 302.641 102.884ZM311.5 106.667L311.58 108.46C312.669 107.089 314.093 106.404 315.851 106.404C318.866 106.404 320.386 108.104 320.413 111.506V120.932H317.974V111.493C317.965 110.464 317.728 109.704 317.262 109.212C316.805 108.72 316.088 108.474 315.113 108.474C314.322 108.474 313.627 108.685 313.03 109.106C312.432 109.528 311.966 110.082 311.632 110.768V120.932H309.193V106.667H311.5Z" fill="#6F6EDF"/>
<path d="M322.928 131.924H247.178V135.184H322.928V131.924Z" fill="#FFD453"/>
<path d="M322.928 140.666H247.178V143.926H322.928V140.666Z" fill="#A6A4B1"/>
<path d="M322.928 149.408H247.178V152.667H322.928V149.408Z" fill="#A6A4B1"/>
<path d="M321.374 157.232H247.178V160.826H321.374V157.232Z" fill="#A6A4B1"/>
<path d="M365.074 62.2495H216.584V70.9481H365.074V62.2495Z" fill="white"/>
<path d="M370.221 68.4875C371.025 68.4875 371.678 67.8352 371.678 67.0306C371.678 66.2259 371.025 65.5736 370.221 65.5736C369.416 65.5736 368.764 66.2259 368.764 67.0306C368.764 67.8352 369.416 68.4875 370.221 68.4875Z" fill="#7AEAEF"/>
<path d="M375.627 68.4875C376.432 68.4875 377.084 67.8352 377.084 67.0306C377.084 66.2259 376.432 65.5736 375.627 65.5736C374.822 65.5736 374.17 66.2259 374.17 67.0306C374.17 67.8352 374.822 68.4875 375.627 68.4875Z" fill="#FFD453"/>
<path d="M381.023 68.4875C381.828 68.4875 382.48 67.8352 382.48 67.0306C382.48 66.2259 381.828 65.5736 381.023 65.5736C380.219 65.5736 379.566 66.2259 379.566 67.0306C379.566 67.8352 380.219 68.4875 381.023 68.4875Z" fill="#BE2952"/>
<g opacity="0.5">
<path opacity="0.5" d="M199.457 66.1024L196.586 67.8939L199.457 69.6854" stroke="#3C2E67" stroke-width="0.73" stroke-linecap="round" stroke-linejoin="round"/>
<path opacity="0.5" d="M202.564 66.1023L205.435 67.8938L202.564 69.6853" stroke="#3C2E67" stroke-width="0.73" stroke-linecap="round" stroke-linejoin="round"/>
</g>
<g opacity="0.5">
<path opacity="0.5" d="M211.251 65.1312L213.496 67.2896H212.524V69.5992H209.988V67.2896H209.006L211.251 65.1312V65.1312ZM211.251 64.4836C211.086 64.4881 210.928 64.5534 210.808 64.6671L208.553 66.7608C208.459 66.8507 208.395 66.9667 208.368 67.0937C208.341 67.2207 208.353 67.3529 208.402 67.4731C208.448 67.5935 208.529 67.6971 208.635 67.7703C208.741 67.8435 208.866 67.8829 208.995 67.8832H209.33V69.5992C209.33 69.7709 209.398 69.9356 209.519 70.057C209.641 70.1785 209.806 70.2467 209.977 70.2467H212.514C212.685 70.2467 212.85 70.1785 212.971 70.057C213.093 69.9356 213.161 69.7709 213.161 69.5992V67.9372H213.485C213.615 67.9375 213.743 67.8986 213.85 67.8254C213.958 67.7523 214.041 67.6483 214.089 67.5271C214.137 67.4058 214.147 67.273 214.118 67.1459C214.089 67.0188 214.023 66.9034 213.927 66.8148L211.682 64.7211C211.565 64.6037 211.406 64.5377 211.24 64.5376L211.251 64.4836Z" fill="#3C2E67"/>
</g>
<path d="M363.035 89.8994H337.403C336.277 89.8994 335.363 90.8126 335.363 91.9391V121.672C335.363 122.798 336.277 123.712 337.403 123.712H363.035C364.161 123.712 365.074 122.798 365.074 121.672V91.9391C365.074 90.8126 364.161 89.8994 363.035 89.8994Z" fill="#5857DF"/>
<path d="M350.883 93.4393C350.885 93.7305 350.8 94.0158 350.64 94.2588C350.479 94.5018 350.25 94.6916 349.982 94.804C349.713 94.9164 349.417 94.9464 349.131 94.8901C348.846 94.8338 348.583 94.6938 348.377 94.4879C348.171 94.282 348.031 94.0195 347.975 93.7337C347.919 93.448 347.949 93.152 348.061 92.8834C348.173 92.6148 348.363 92.3856 348.606 92.2252C348.849 92.0647 349.135 91.9802 349.426 91.9823C349.812 91.9823 350.183 92.1358 350.456 92.4091C350.729 92.6823 350.883 93.0529 350.883 93.4393Z" fill="#7AEAEF"/>
<path d="M356.277 93.4393C356.277 93.7274 356.192 94.0091 356.032 94.2487C355.872 94.4883 355.644 94.6751 355.378 94.7853C355.112 94.8956 354.819 94.9245 354.536 94.8683C354.253 94.812 353.994 94.6733 353.79 94.4695C353.586 94.2658 353.447 94.0062 353.391 93.7235C353.335 93.4409 353.364 93.148 353.474 92.8817C353.584 92.6155 353.771 92.388 354.011 92.2279C354.25 92.0678 354.532 91.9823 354.82 91.9823C355.012 91.9809 355.202 92.0176 355.379 92.0903C355.557 92.163 355.718 92.2703 355.854 92.4059C355.989 92.5414 356.096 92.7026 356.169 92.88C356.242 93.0575 356.279 93.2476 356.277 93.4393Z" fill="#FFD453"/>
<path d="M361.684 93.4393C361.686 93.73 361.601 94.0149 361.441 94.2577C361.281 94.5004 361.053 94.6902 360.785 94.803C360.517 94.9157 360.222 94.9463 359.936 94.8909C359.651 94.8355 359.388 94.6966 359.182 94.4918C358.975 94.2869 358.835 94.0254 358.777 93.7404C358.72 93.4554 358.748 93.1598 358.859 92.8909C358.969 92.6221 359.158 92.3922 359.399 92.2305C359.641 92.0687 359.925 91.9823 360.216 91.9823C360.408 91.9809 360.599 92.0176 360.777 92.0901C360.955 92.1627 361.117 92.2698 361.253 92.4052C361.389 92.5407 361.498 92.7018 361.572 92.8792C361.645 93.0567 361.684 93.247 361.684 93.4393V93.4393Z" fill="#BE2952"/>
<path d="M361.684 96.8495V118.272C361.684 118.813 361.469 119.332 361.086 119.714C360.704 120.097 360.185 120.312 359.644 120.312H340.79C340.249 120.312 339.73 120.097 339.348 119.714C338.965 119.332 338.75 118.813 338.75 118.272V96.8495H361.684Z" fill="white"/>
<path d="M352.199 108.311C353.192 107.848 353.997 107.06 354.482 106.077C354.966 105.095 355.101 103.976 354.864 102.907C354.627 101.837 354.032 100.88 353.178 100.195C352.323 99.509 351.26 99.1353 350.165 99.1353C349.069 99.1353 348.006 99.509 347.152 100.195C346.298 100.88 345.703 101.837 345.466 102.907C345.228 103.976 345.363 105.095 345.848 106.077C346.332 107.06 347.138 107.848 348.13 108.311C346.993 108.683 346.001 109.406 345.298 110.375C344.594 111.344 344.215 112.51 344.213 113.707V120.323H356.084V113.707C356.086 112.513 355.712 111.349 355.014 110.381C354.317 109.412 353.332 108.688 352.199 108.311V108.311Z" fill="#AEABDE"/>
<path d="M156.209 86.7373L144.877 67.689C147.096 61.8311 147.117 55.3675 144.936 49.4954C142.754 43.6234 138.519 38.7408 133.014 35.7519C127.509 32.763 121.107 31.8703 114.995 33.2393C108.882 34.6083 103.473 38.1461 99.7683 43.1974C96.064 48.2488 94.3157 54.4715 94.8474 60.713C95.3791 66.9545 98.1546 72.7918 102.66 77.1439C107.165 81.4959 113.095 84.0678 119.351 84.3831C125.608 84.6985 131.766 82.7359 136.686 78.859C145.115 82.2909 156.209 86.7373 156.209 86.7373Z" fill="#FF4656"/>
<path d="M113.268 59.0335C113.268 59.7507 113.055 60.4518 112.657 61.0481C112.258 61.6445 111.692 62.1092 111.03 62.3837C110.367 62.6582 109.638 62.73 108.934 62.5901C108.231 62.4501 107.585 62.1048 107.078 61.5976C106.571 61.0905 106.225 60.4444 106.085 59.741C105.945 59.0376 106.017 58.3085 106.292 57.6459C106.566 56.9833 107.031 56.4169 107.627 56.0185C108.224 55.62 108.925 55.4073 109.642 55.4073C110.604 55.4073 111.526 55.7894 112.206 56.4694C112.886 57.1495 113.268 58.0718 113.268 59.0335V59.0335Z" fill="white"/>
<path d="M120.091 62.6597C122.094 62.6597 123.717 61.0362 123.717 59.0335C123.717 57.0309 122.094 55.4073 120.091 55.4073C118.088 55.4073 116.465 57.0309 116.465 59.0335C116.465 61.0362 118.088 62.6597 120.091 62.6597Z" fill="white"/>
<path d="M134.151 59.0336C134.151 59.7512 133.938 60.4527 133.539 61.0493C133.14 61.6458 132.573 62.1106 131.91 62.3847C131.247 62.6589 130.517 62.7301 129.813 62.5893C129.11 62.4485 128.463 62.102 127.957 61.5938C127.45 61.0856 127.106 60.4385 126.967 59.7344C126.828 59.0302 126.901 58.3008 127.178 57.6384C127.454 56.976 127.92 56.4104 128.518 56.0132C129.116 55.6161 129.818 55.4052 130.535 55.4074C131.011 55.4074 131.482 55.5012 131.921 55.6836C132.361 55.866 132.76 56.1332 133.096 56.4701C133.432 56.807 133.698 57.2068 133.879 57.6467C134.06 58.0866 134.152 58.5579 134.151 59.0336Z" fill="white"/>
<path d="M264.284 17.1489H259.913C259.568 16.0276 259.112 14.9431 258.554 13.9112L261.532 10.9325C261.682 10.7841 261.8 10.6075 261.881 10.4131C261.962 10.2186 262.004 10.01 262.004 9.79936C262.004 9.58871 261.962 9.38014 261.881 9.18566C261.8 8.99118 261.682 8.81463 261.532 8.66617L256.87 4.01471C256.722 3.86527 256.545 3.74666 256.35 3.66572C256.156 3.58479 255.947 3.54312 255.737 3.54312C255.526 3.54312 255.318 3.58479 255.123 3.66572C254.929 3.74666 254.752 3.86527 254.604 4.01471L251.614 7.00417C250.548 6.4253 249.423 5.9622 248.258 5.62276V1.60805C248.258 1.18343 248.09 0.776045 247.791 0.474787C247.491 0.173529 247.085 0.00284977 246.661 0H240.077C239.651 0 239.242 0.16942 238.94 0.470987C238.639 0.772554 238.469 1.18157 238.469 1.60805V5.65514C237.262 6.00602 236.1 6.49489 235.005 7.11209L232.296 4.3169C232.148 4.16745 231.971 4.04885 231.777 3.96791C231.582 3.88697 231.374 3.8453 231.163 3.8453C230.952 3.8453 230.744 3.88697 230.549 3.96791C230.355 4.04885 230.178 4.16745 230.03 4.3169L225.378 8.96835C225.078 9.27143 224.91 9.68058 224.91 10.1069C224.91 10.5333 225.078 10.9424 225.378 11.2455L228.163 14.0299C227.567 15.1588 227.096 16.3494 226.76 17.5806H222.928C222.502 17.5806 222.093 17.75 221.791 18.0515C221.49 18.3531 221.32 18.7621 221.32 19.1886V25.7719C221.323 26.1965 221.494 26.6027 221.795 26.902C222.096 27.2012 222.504 27.3691 222.928 27.3691H226.9C227.288 28.5728 227.805 29.7307 228.443 30.8226L225.68 33.5855C225.381 33.8885 225.212 34.2977 225.212 34.724C225.212 35.1504 225.381 35.5595 225.68 35.8626L230.332 40.5141C230.635 40.8139 231.044 40.9821 231.47 40.9821C231.897 40.9821 232.306 40.8139 232.609 40.5141L235.534 37.5786C236.622 38.1331 237.765 38.5743 238.944 38.8952V42.9639C238.947 43.3885 239.118 43.7948 239.419 44.094C239.72 44.3932 240.127 44.5612 240.552 44.5612H247.135C247.345 44.5612 247.553 44.5198 247.747 44.4396C247.94 44.3593 248.116 44.2417 248.265 44.0933C248.413 43.945 248.531 43.7689 248.611 43.5751C248.691 43.3814 248.733 43.1737 248.733 42.9639V38.647C249.859 38.2827 250.944 37.8016 251.97 37.2116L254.96 40.2011C255.108 40.3522 255.286 40.4722 255.481 40.5541C255.677 40.636 255.886 40.6782 256.098 40.6782C256.31 40.6782 256.52 40.636 256.716 40.5541C256.911 40.4722 257.088 40.3522 257.237 40.2011L261.888 35.5496C262.038 35.4012 262.156 35.2246 262.237 35.0302C262.318 34.8357 262.36 34.6271 262.36 34.4165C262.36 34.2058 262.318 33.9972 262.237 33.8028C262.156 33.6083 262.038 33.4317 261.888 33.2833L258.759 30.1535C259.299 29.1221 259.729 28.037 260.043 26.9158H264.36C264.765 26.8968 265.147 26.7245 265.43 26.4339C265.712 26.1433 265.874 25.7562 265.881 25.351V18.7677C265.883 18.5565 265.843 18.3472 265.763 18.1515C265.684 17.9559 265.566 17.7778 265.418 17.6275C265.27 17.4772 265.093 17.3575 264.899 17.2754C264.704 17.1933 264.495 17.1503 264.284 17.1489ZM243.369 29.7434C241.875 29.7434 240.414 29.3004 239.172 28.4702C237.929 27.6401 236.961 26.4603 236.389 25.0799C235.818 23.6994 235.668 22.1805 235.959 20.715C236.251 19.2496 236.97 17.9035 238.027 16.847C239.084 15.7904 240.43 15.0709 241.895 14.7794C243.361 14.4879 244.879 14.6376 246.26 15.2093C247.64 15.7811 248.82 16.7494 249.65 17.9918C250.48 19.2341 250.923 20.6947 250.923 22.1888C250.923 24.1924 250.128 26.114 248.711 27.5307C247.294 28.9475 245.372 29.7434 243.369 29.7434Z" fill="#4A97D2"/>
<path d="M255.866 367.519H250.47C250.05 366.146 249.493 364.819 248.808 363.558L252.455 359.9C252.823 359.53 253.029 359.029 253.029 358.508C253.029 357.986 252.823 357.485 252.455 357.115L246.746 351.406C246.376 351.038 245.876 350.832 245.354 350.832C244.832 350.832 244.332 351.038 243.962 351.406L240.303 355.065C238.994 354.361 237.616 353.794 236.191 353.37V348.406C236.191 348.147 236.14 347.891 236.041 347.652C235.941 347.413 235.796 347.196 235.612 347.013C235.429 346.831 235.211 346.686 234.971 346.588C234.732 346.49 234.475 346.44 234.216 346.442H226.155C225.896 346.44 225.639 346.49 225.4 346.588C225.16 346.686 224.942 346.831 224.759 347.013C224.575 347.196 224.43 347.413 224.33 347.652C224.231 347.891 224.18 348.147 224.18 348.406V353.37C222.701 353.807 221.276 354.404 219.927 355.151L216.56 351.784C216.19 351.416 215.69 351.21 215.168 351.21C214.646 351.21 214.146 351.416 213.776 351.784L208.067 357.493C207.699 357.863 207.493 358.364 207.493 358.885C207.493 359.407 207.699 359.907 208.067 360.277L211.488 363.699C210.753 365.069 210.174 366.517 209.761 368.016H205.099C204.577 368.018 204.077 368.228 203.709 368.598C203.341 368.968 203.135 369.469 203.135 369.99V378.052C203.135 378.574 203.341 379.075 203.709 379.445C204.077 379.815 204.577 380.024 205.099 380.027H209.977C210.449 381.503 211.082 382.922 211.866 384.258L208.477 387.647C208.109 388.017 207.903 388.517 207.903 389.039C207.903 389.56 208.109 390.061 208.477 390.431L214.186 396.14C214.556 396.508 215.057 396.714 215.578 396.714C216.1 396.714 216.6 396.508 216.97 396.14L220.564 392.546C221.897 393.226 223.296 393.765 224.741 394.154V399.14C224.741 399.399 224.792 399.655 224.891 399.894C224.991 400.133 225.136 400.35 225.32 400.533C225.503 400.716 225.721 400.86 225.961 400.958C226.2 401.056 226.457 401.106 226.716 401.105H234.778C235.036 401.106 235.293 401.056 235.533 400.958C235.772 400.86 235.99 400.716 236.174 400.533C236.357 400.35 236.503 400.133 236.602 399.894C236.701 399.655 236.753 399.399 236.753 399.14V393.852C238.126 393.401 239.449 392.812 240.703 392.093L244.372 395.762C244.742 396.13 245.242 396.337 245.764 396.337C246.286 396.337 246.786 396.13 247.156 395.762L252.865 390.053C253.233 389.683 253.44 389.183 253.44 388.661C253.44 388.139 253.233 387.639 252.865 387.269L249.034 383.438C249.689 382.181 250.213 380.861 250.599 379.498H255.866C256.125 379.498 256.381 379.447 256.62 379.348C256.859 379.249 257.076 379.103 257.258 378.919C257.441 378.736 257.585 378.518 257.683 378.278C257.782 378.039 257.831 377.782 257.83 377.523V369.462C257.824 368.944 257.615 368.45 257.247 368.087C256.879 367.723 256.383 367.519 255.866 367.519V367.519ZM230.223 382.963C228.394 382.963 226.606 382.42 225.085 381.404C223.564 380.388 222.378 378.943 221.678 377.253C220.978 375.563 220.795 373.704 221.152 371.909C221.509 370.115 222.39 368.467 223.683 367.174C224.977 365.88 226.625 364.999 228.419 364.643C230.213 364.286 232.073 364.469 233.763 365.169C235.453 365.869 236.897 367.054 237.914 368.575C238.93 370.096 239.472 371.885 239.472 373.714C239.469 376.166 238.494 378.517 236.76 380.251C235.026 381.985 232.675 382.96 230.223 382.963Z" fill="#E33C50"/>
<path d="M71.017 88.7339C70.2068 88.7345 69.4006 88.8471 68.6212 89.0684C67.0142 86.5745 64.494 84.8094 61.601 84.1518C58.7079 83.4941 55.6724 83.9961 53.1451 85.5501C51.6887 82.5711 49.265 80.174 46.2701 78.7505C43.2752 77.3269 39.886 76.9611 36.6563 77.7128C33.4266 78.4645 30.5473 80.2892 28.4887 82.8889C26.4302 85.4885 25.314 88.7095 25.3227 92.0255C25.3227 92.4032 25.3227 92.7809 25.3227 93.1587H24.837C23.0424 93.1587 21.3213 93.8716 20.0522 95.1406C18.7832 96.4096 18.0703 98.1308 18.0703 99.9254C18.0703 101.72 18.7832 103.441 20.0522 104.71C21.3213 105.979 23.0424 106.692 24.837 106.692H71.0063C73.3791 106.692 75.6547 105.75 77.3326 104.072C79.0104 102.394 79.953 100.118 79.953 97.7454C79.953 95.3725 79.0104 93.0969 77.3326 91.4191C75.6547 89.7412 73.3791 88.7986 71.0063 88.7986L71.017 88.7339Z" fill="white"/>
<path d="M357.485 17.9367C358.562 17.94 359.633 18.0888 360.669 18.3792C362.812 15.054 366.174 12.7019 370.032 11.8281C373.89 10.9543 377.937 11.6286 381.304 13.7061C383.241 9.74884 386.461 6.5641 390.439 4.67073C394.418 2.77736 398.92 2.28696 403.212 3.2794C407.505 4.27185 411.335 6.68866 414.079 10.1361C416.822 13.5836 418.318 17.8585 418.321 22.2644C418.321 22.7716 418.321 23.268 418.257 23.7753C418.472 23.7643 418.688 23.7643 418.904 23.7753C421.239 23.8561 423.451 24.8404 425.074 26.5205C426.697 28.2007 427.604 30.4454 427.604 32.7814C427.604 35.1174 426.697 37.3622 425.074 39.0423C423.451 40.7224 421.239 41.7067 418.904 41.7875H357.485C354.327 41.7875 351.298 40.5328 349.064 38.2994C346.831 36.066 345.576 33.0368 345.576 29.8783C345.576 26.7198 346.831 23.6906 349.064 21.4572C351.298 19.2238 354.327 17.9691 357.485 17.9691V17.9367Z" fill="white"/>
<path d="M103.759 109.995V94.8099C101.189 95.9736 99.0235 97.8751 97.5371 100.273C96.0507 102.67 95.3108 105.456 95.4114 108.275C95.512 111.094 96.4487 113.82 98.1023 116.105C99.7559 118.391 102.052 120.133 104.698 121.111V170.615C104.698 171.926 105.219 173.183 106.146 174.11C107.073 175.037 108.33 175.557 109.641 175.557C110.952 175.557 112.209 175.037 113.136 174.11C114.063 173.183 114.584 171.926 114.584 170.615V121.111C117.23 120.133 119.526 118.391 121.179 116.105C122.833 113.82 123.77 111.094 123.87 108.275C123.971 105.456 123.231 102.67 121.745 100.273C120.258 97.8751 118.092 95.9736 115.523 94.8099V109.995H103.759ZM111.767 170.841C111.767 171.268 111.64 171.685 111.403 172.04C111.166 172.395 110.829 172.672 110.434 172.835C110.04 172.999 109.606 173.042 109.187 172.958C108.769 172.875 108.384 172.669 108.082 172.368C107.78 172.066 107.575 171.681 107.492 171.262C107.408 170.844 107.451 170.41 107.614 170.015C107.778 169.621 108.054 169.284 108.409 169.047C108.764 168.809 109.182 168.683 109.608 168.683C110.181 168.683 110.73 168.91 111.135 169.315C111.54 169.72 111.767 170.269 111.767 170.841Z" fill="#BEBBC9"/>
<path d="M269.4 232.422H173.101C171.891 232.422 170.91 233.403 170.91 234.613V288.995C170.91 290.205 171.891 291.186 173.101 291.186H269.4C270.61 291.186 271.591 290.205 271.591 288.995V234.613C271.591 233.403 270.61 232.422 269.4 232.422Z" fill="#5857DF"/>
<path d="M268.191 240.775V285.239C268.191 285.574 268.125 285.905 267.997 286.214C267.869 286.523 267.682 286.804 267.445 287.04C267.209 287.277 266.928 287.464 266.619 287.592C266.31 287.72 265.979 287.786 265.644 287.786H176.867C176.533 287.786 176.202 287.72 175.893 287.592C175.584 287.464 175.303 287.277 175.066 287.04C174.83 286.804 174.642 286.523 174.514 286.214C174.386 285.905 174.32 285.574 174.32 285.239V240.775H268.213H268.191Z" fill="white"/>
<path d="M203.294 261.305L211.199 264.5V266.975L200.87 262.189V260.346L211.199 255.573V258.047L203.294 261.305ZM215.353 271.015H213.346L221.023 251.052H223.018L215.353 271.015ZM233.814 261.229L225.467 257.959V255.56L236.251 260.333V262.177L225.467 266.962V264.538L233.814 261.229Z" fill="#4A97D2"/>
<path d="M222.291 282.498H179.791V284.43H222.291V282.498Z" fill="#A6A4B1"/>
<path d="M253.968 237.019C253.97 237.331 253.879 237.637 253.707 237.897C253.536 238.158 253.29 238.362 253.003 238.482C252.715 238.603 252.398 238.636 252.091 238.577C251.785 238.517 251.503 238.368 251.282 238.148C251.06 237.928 250.909 237.647 250.847 237.341C250.786 237.035 250.816 236.718 250.935 236.429C251.054 236.141 251.256 235.894 251.516 235.721C251.775 235.547 252.08 235.454 252.392 235.454C252.808 235.454 253.207 235.619 253.502 235.912C253.798 236.205 253.965 236.603 253.968 237.019Z" fill="#7AEAEF"/>
<path d="M259.772 237.019C259.775 237.331 259.684 237.637 259.512 237.897C259.34 238.158 259.095 238.362 258.807 238.482C258.52 238.603 258.202 238.636 257.896 238.577C257.59 238.517 257.308 238.368 257.086 238.148C256.865 237.928 256.714 237.647 256.652 237.341C256.59 237.035 256.621 236.718 256.74 236.429C256.859 236.141 257.061 235.894 257.32 235.721C257.58 235.547 257.885 235.454 258.197 235.454C258.613 235.454 259.012 235.619 259.307 235.912C259.602 236.205 259.77 236.603 259.772 237.019V237.019Z" fill="#FFD453"/>
<path d="M265.579 237.019C265.581 237.332 265.49 237.638 265.318 237.899C265.146 238.159 264.9 238.363 264.611 238.484C264.323 238.604 264.005 238.636 263.699 238.576C263.392 238.515 263.11 238.365 262.889 238.144C262.668 237.923 262.518 237.641 262.457 237.335C262.397 237.028 262.429 236.71 262.55 236.422C262.67 236.134 262.874 235.888 263.135 235.715C263.396 235.543 263.702 235.452 264.014 235.454C264.429 235.454 264.827 235.619 265.121 235.913C265.414 236.206 265.579 236.604 265.579 237.019V237.019Z" fill="#BE2952"/>
<path d="M414.73 272.202H355.502V363.893H427.821V285.293L414.73 272.202Z" fill="#E1E6EE"/>
<path d="M414.727 285.293H427.818L414.727 272.202V285.293Z" fill="#CDD0DB"/>
<path d="M419.132 302.388H364.199V306.64H419.132V302.388Z" fill="#8E8E9A"/>
<path d="M419.132 294.25H364.199V298.503H419.132V294.25Z" fill="#8E8E9A"/>
<path d="M419.132 310.536H364.199V314.788H419.132V310.536Z" fill="#8E8E9A"/>
<path d="M419.132 318.673H364.199V322.925H419.132V318.673Z" fill="#8E8E9A"/>
<path d="M419.132 326.821H364.199V331.074H419.132V326.821Z" fill="#8E8E9A"/>
<path d="M419.132 334.969H364.199V339.222H419.132V334.969Z" fill="#8E8E9A"/>
<path d="M419.132 343.107H364.199V347.359H419.132V343.107Z" fill="#8E8E9A"/>
<path d="M419.132 351.255H364.199V355.507H419.132V351.255Z" fill="#8E8E9A"/>
<path d="M368.924 242.879H309.707V334.581H382.015V255.97L368.924 242.879Z" fill="white"/>
<path d="M368.926 255.97H382.017L368.926 242.879V255.97Z" fill="#CDD0DB"/>
<path d="M373.339 273.076H318.406V277.328H373.339V273.076Z" fill="#A6A4B1"/>
<path d="M373.339 264.939H318.406V269.191H373.339V264.939Z" fill="#A6A4B1"/>
<path d="M373.339 281.224H318.406V285.477H373.339V281.224Z" fill="#A6A4B1"/>
<path d="M373.339 289.362H318.406V293.614H373.339V289.362Z" fill="#A6A4B1"/>
<path d="M373.339 297.51H318.406V301.762H373.339V297.51Z" fill="#A6A4B1"/>
<path d="M373.339 305.647H318.406V309.899H373.339V305.647Z" fill="#A6A4B1"/>
<path d="M373.339 313.795H318.406V318.047H373.339V313.795Z" fill="#A6A4B1"/>
<path d="M373.339 321.933H318.406V326.185H373.339V321.933Z" fill="#A6A4B1"/>
<path d="M175.786 326.573H224.675V315.22H175.786C174.281 315.223 172.839 315.822 171.775 316.886C170.711 317.95 170.112 319.392 170.109 320.897V320.897C170.109 322.402 170.707 323.846 171.772 324.911C172.837 325.975 174.281 326.573 175.786 326.573V326.573Z" fill="#E33C50"/>
<path d="M224.667 325.095H228.131V316.698H224.667V325.095Z" fill="#BEBBC9"/>
<path d="M228.13 322.785H268.342V319.008H228.13V322.785Z" fill="#9A9AAD"/>
<path d="M265.225 324.469L277.539 323.098V318.706L265.225 317.335V324.469Z" fill="#BEBBC9"/>
<path d="M207.808 89.8022H161.067C159.738 89.8022 158.66 90.8797 158.66 92.2089V138.95C158.66 140.279 159.738 141.357 161.067 141.357H207.808C209.137 141.357 210.215 140.279 210.215 138.95V92.2089C210.215 90.8797 209.137 89.8022 207.808 89.8022Z" fill="#5857DF"/>
<path d="M205.671 94.4753H163.203V128.957H205.671V94.4753Z" fill="white"/>
<path d="M163.203 113.502L175.269 102.58L186.795 113.502L196.95 104.911L205.66 113.502V128.957H163.203V113.502Z" fill="#AEABDE"/>
<path d="M190.075 102.138C190.077 102.698 189.913 103.245 189.604 103.712C189.294 104.178 188.854 104.542 188.337 104.758C187.821 104.974 187.252 105.031 186.702 104.923C186.153 104.815 185.648 104.547 185.252 104.152C184.855 103.757 184.585 103.253 184.475 102.704C184.365 102.155 184.42 101.586 184.634 101.069C184.848 100.552 185.21 100.11 185.675 99.7983C186.141 99.4872 186.688 99.321 187.247 99.321C187.996 99.321 188.713 99.6175 189.243 100.145C189.773 100.673 190.072 101.39 190.075 102.138V102.138Z" fill="#D99400"/>
<path d="M64.8862 185.217L63.958 185.551C63.7708 185.621 63.5709 185.651 63.3714 185.638C63.1719 185.626 62.9773 185.571 62.8002 185.479C62.6231 185.386 62.4675 185.257 62.3434 185.1C62.2194 184.944 62.1297 184.763 62.0802 184.569L61.2276 181.213L61.0549 180.533C49.7339 185.681 42.1361 182.875 38.2617 180.328L38.4776 181.569L40.4633 193.106C40.5468 193.584 40.4719 194.077 40.2498 194.51C40.0278 194.942 39.6708 195.29 39.233 195.502L38.4776 195.879C40.1945 198.909 42.9539 201.213 46.2422 202.36C49.5305 203.508 53.1238 203.422 56.3534 202.118C59.5829 200.814 62.2287 198.381 63.7983 195.272C65.368 192.163 65.7546 188.589 64.8862 185.217Z" fill="#FF8F6E"/>
<path d="M61.0569 180.533L60.3662 177.867L59.0388 172.633L57.6898 167.377L37.4219 172.849L36.9902 172.967L37.627 176.615L38.2637 180.328C42.1381 182.918 49.7359 185.681 61.0569 180.533Z" fill="#D96D48"/>
<path d="M147.523 398.87L147.426 402.885C148.311 403.414 149.077 405.583 149.584 406.123C151.397 407.774 153.415 409.522 155.865 409.641C157.411 409.603 158.93 409.235 160.323 408.562C160.127 407.2 160.264 405.812 160.722 404.515L160.279 398.158C158.013 399.259 152.876 401.158 147.523 398.87Z" fill="white"/>
<path d="M163.851 425.743C166.829 426.553 169.808 427.395 172.722 428.42C178.312 430.395 184.906 430.578 190.421 428.172C190.386 427.289 190.252 426.413 190.022 425.56C189.353 423.056 187.194 421.448 184.896 420.39C182.597 419.333 180.363 419.009 178.42 417.757C177.128 416.877 175.966 415.82 174.967 414.617C171.815 411.163 168.75 407.634 165.772 404.029C165.374 403.472 164.848 403.017 164.239 402.702C163.566 402.518 162.849 402.587 162.223 402.895C161.597 403.203 161.105 403.729 160.84 404.375V404.45C160.382 405.747 160.245 407.136 160.44 408.497C159.048 409.17 157.529 409.538 155.983 409.577C153.533 409.458 151.515 407.71 149.702 406.058C149.152 405.551 148.385 403.382 147.544 402.821C147.426 402.731 147.282 402.683 147.134 402.683C146.986 402.683 146.842 402.731 146.723 402.821C146.184 403.242 146.119 405.368 145.99 406.058L145.31 409.415C144.662 412.555 144.058 415.717 143.389 418.858C146.81 421.707 151.807 422.765 155.951 423.866C158.509 424.664 161.196 425.031 163.851 425.743Z" fill="#E33C50"/>
<path d="M163.107 413.343C163.976 412.022 165.11 410.896 166.436 410.036C167.763 409.176 169.253 408.601 170.813 408.346" stroke="#2A2343" stroke-width="1.94" stroke-linecap="round" stroke-linejoin="round"/>
<path d="M166.107 415.361C167.641 413.625 169.636 412.36 171.86 411.713C172.068 411.625 172.292 411.579 172.518 411.579C172.744 411.579 172.968 411.625 173.176 411.713" stroke="#2A2343" stroke-width="1.94" stroke-linecap="round" stroke-linejoin="round"/>
<path d="M169.172 418.189C170.664 416.741 172.498 415.694 174.503 415.145C175.033 415.041 175.574 415.012 176.111 415.059" stroke="#2A2343" stroke-width="1.94" stroke-linecap="round" stroke-linejoin="round"/>
<path d="M172.723 428.419C169.809 427.34 166.83 426.552 163.851 425.743C161.197 425.031 158.455 424.664 155.833 423.941C151.689 422.861 146.692 421.782 143.271 418.933C143.163 419.451 143.066 419.958 142.947 420.466C142.699 421.545 142.137 422.624 142.947 423.585C144.078 424.769 145.466 425.678 147.005 426.239C149.016 427.025 151.098 427.617 153.221 428.009C157.441 428.938 161.661 429.833 165.805 431.042C169.547 432.306 173.369 433.322 177.245 434.085C181.033 434.647 189.505 434.884 190.346 429.833C190.426 429.283 190.452 428.726 190.422 428.171C184.907 430.621 178.335 430.394 172.723 428.419Z" fill="white"/>
<path d="M50.9861 206.747C53.753 206.745 56.4821 206.104 58.9609 204.875C61.4397 203.645 63.6013 201.86 65.2774 199.659C66.9536 197.457 68.099 194.899 68.6246 192.182C69.1502 189.466 69.0417 186.665 68.3077 183.997L64.8865 185.27C65.7026 188.629 65.2809 192.17 63.6986 195.244C62.1164 198.317 59.4796 200.718 56.2714 202.005C53.0633 203.292 49.4986 203.381 46.2307 202.254C42.9627 201.127 40.2104 198.86 38.4779 195.868L35.2402 197.466C36.7972 200.277 39.0787 202.621 41.8476 204.253C44.6165 205.885 47.7719 206.746 50.9861 206.747Z" fill="#FF928E"/>
<path d="M36.956 162.251L30.4807 155.581C30.4807 155.581 32.3586 152.786 29.2072 145.587C29.2072 145.587 38.9202 129.647 48.7735 131.158C48.7735 131.158 49.8528 129.658 49.9391 129.507C50.2888 128.886 50.5745 128.232 50.7917 127.554C51.2789 126.169 51.4052 124.683 51.1586 123.237C51.1586 123.064 51.0831 122.891 51.0399 122.719C50.764 121.475 50.2229 120.306 49.4537 119.291C48.6844 118.276 47.7052 117.439 46.5827 116.837C44.6229 116.042 42.474 115.836 40.3988 116.243C35.5693 117.021 31.0454 119.108 27.3186 122.276C23.6107 125.441 20.5159 129.26 18.1883 133.543C16.3538 136.47 15.2781 139.809 15.0586 143.256C15.0824 145.253 15.4474 147.232 16.1378 149.106C17.7197 153.609 20.4726 157.61 24.1133 160.697L32.855 166.708L36.956 162.251Z" fill="#182B51"/>
<path d="M66.6794 163.967C65.8467 160.594 64.8124 157.275 63.582 154.027C62.1052 150.446 60.2988 147.01 58.1859 143.763C56.7829 141.605 55.4123 139.328 53.869 137.223C52.3257 135.119 50.3939 133.273 48.829 131.115C39.0297 129.604 29.2627 145.544 29.2627 145.544C32.414 152.743 30.5362 155.538 30.5362 155.538L37.0115 162.207L32.8673 166.729L24.1256 160.718C22.7246 161.297 21.5804 162.364 20.904 163.72C20.2276 165.077 20.0647 166.633 20.4454 168.1C20.7303 169.198 21.3273 170.191 22.1643 170.957C23.0013 171.723 24.0424 172.23 25.1616 172.417C26.2167 172.526 27.2799 172.311 28.2094 171.8C29.1389 171.289 29.8904 170.506 30.3635 169.557C33.8062 174.424 38.7167 179.518 44.5984 180.565C51.6026 181.828 57.4628 178.407 62.5459 173.992C65.5246 171.348 67.737 167.906 66.6794 163.967Z" fill="#FF8F6E"/>
<path d="M27.7268 166.956C27.7268 167.462 27.5766 167.957 27.295 168.378C27.0135 168.799 26.6134 169.127 26.1454 169.32C25.6774 169.513 25.1626 169.563 24.6661 169.464C24.1697 169.364 23.7139 169.12 23.3567 168.761C22.9994 168.402 22.7566 167.945 22.6592 167.448C22.5617 166.952 22.6139 166.437 22.8091 165.97C23.0044 165.503 23.3339 165.104 23.7559 164.824C24.178 164.544 24.6735 164.396 25.1799 164.398C25.8564 164.401 26.5042 164.672 26.9815 165.151C27.4589 165.631 27.7269 166.28 27.7268 166.956V166.956Z" fill="#D96D48"/>
<path d="M43.8635 147.595C44.7377 148.739 45.0399 149.969 44.5435 150.358C44.047 150.746 42.9354 150.12 42.0612 148.976C41.1871 147.832 40.8849 146.602 41.3813 146.224C41.8778 145.846 42.9894 146.462 43.8635 147.595Z" fill="#303B4A"/>
<path d="M54.2893 141.109C55.1635 142.242 55.4657 143.472 54.9692 143.861C54.4728 144.249 53.3612 143.623 52.487 142.479C51.6128 141.335 51.3107 140.105 51.8071 139.727C52.3036 139.349 53.4151 139.965 54.2893 141.109Z" fill="#303B4A"/>
<path d="M49.7871 144.249C52.0523 147.297 53.9979 150.57 55.5933 154.016C55.9176 154.698 56.1952 155.401 56.4243 156.12C56.856 157.513 56.0358 158.462 54.8918 159.142C54.0449 159.695 53.1447 160.162 52.2046 160.535" stroke="#D96D48" stroke-width="0.97" stroke-linecap="round" stroke-linejoin="round"/>
<path d="M37.5183 145.015C37.0563 143.994 37.0099 142.833 37.3888 141.778C37.5691 141.239 37.8471 140.737 38.209 140.299C38.5843 139.848 39.1087 139.545 39.6875 139.447C39.7641 139.434 39.8425 139.438 39.9178 139.456C39.9932 139.475 40.0642 139.508 40.1265 139.554C40.1888 139.6 40.2413 139.659 40.2808 139.725C40.3203 139.792 40.3461 139.866 40.3566 139.943C40.3784 140.039 40.3784 140.139 40.3566 140.234V140.299C40.2 140.695 40.0123 141.077 39.7954 141.443C39.584 141.769 39.3929 142.108 39.2234 142.458C38.8888 143.21 38.6809 144.012 38.6083 144.832V144.832C38.592 144.972 38.5224 145.101 38.4139 145.191C38.3055 145.282 38.1664 145.327 38.0255 145.318C37.9215 145.318 37.8193 145.29 37.7299 145.237C37.6405 145.184 37.5673 145.107 37.5183 145.015V145.015Z" fill="#182B51"/>
<path d="M47.1432 134.968C47.4668 134.731 47.84 134.571 48.2345 134.5C48.629 134.429 49.0345 134.449 49.4203 134.558C50.2027 134.704 50.924 135.08 51.4924 135.637C51.5621 135.722 51.6042 135.826 51.613 135.936C51.6218 136.045 51.597 136.155 51.5419 136.25C51.4867 136.345 51.4039 136.421 51.3044 136.467C51.2049 136.514 51.0935 136.529 50.9852 136.511C50.4119 136.339 49.8224 136.227 49.2261 136.176C48.6309 136.186 48.0367 136.124 47.4561 135.993H47.3914C47.2455 135.944 47.1246 135.839 47.0541 135.702C46.9836 135.566 46.9691 135.407 47.0137 135.259C47.0319 135.153 47.0764 135.053 47.1432 134.968V134.968Z" fill="#182B51"/>
<path d="M56.2957 164.031C56.1855 163.391 56.0045 162.765 55.7561 162.164C53.8925 162.877 51.9669 163.415 50.0039 163.772C48.2663 164.064 46.5072 164.204 44.748 164.344C44.7794 164.433 44.8154 164.519 44.856 164.603C45.1477 165.269 45.5095 165.902 45.9352 166.492C47.3893 166.387 48.8327 166.166 50.2521 165.834C52.3191 165.425 54.3427 164.822 56.2957 164.031V164.031Z" fill="white"/>
<path d="M56.5769 168.37C56.6099 168.279 56.6099 168.18 56.5769 168.089C56.5603 166.731 56.4521 165.375 56.2531 164.031C54.3001 164.822 52.2765 165.425 50.2095 165.834C48.7901 166.166 47.3466 166.386 45.8926 166.492C46.2594 166.996 46.6752 167.462 47.1337 167.884C49.171 166.888 51.5055 166.685 53.6846 167.312C54.5876 167.553 55.4322 167.975 56.1668 168.553H56.3071C56.4129 168.52 56.5067 168.456 56.5769 168.37V168.37Z" fill="#9C3F27"/>
<path d="M47.1855 167.884C47.7341 168.409 48.3742 168.83 49.0742 169.125C51.1355 169.945 54.1897 169.319 56.2186 168.553C55.4841 167.975 54.6395 167.553 53.7364 167.312C51.5574 166.684 49.2229 166.888 47.1855 167.884V167.884Z" fill="#F93E78"/>
<path d="M91.7182 287.699C106.514 282.023 109.903 275.105 109.903 275.105C107.529 261.075 97.6 209.067 97.6 209.067C96.4057 197.732 92.6448 186.819 86.6027 177.155L68.2559 183.943C69.4405 188.193 69.0228 192.731 67.0819 196.694C65.1411 200.656 61.8124 203.768 57.7281 205.438C53.6438 207.108 49.0884 207.22 44.9271 205.752C40.7659 204.284 37.2887 201.339 35.1561 197.476L19.6152 205.031C19.6152 205.031 22.378 225.752 30.2348 237.3L65.6226 289.286C65.6226 289.286 77.2242 293.268 91.7182 287.699Z" fill="#DF5067"/>
<path d="M109.902 275.105C109.902 275.105 106.513 282.023 91.7167 287.7C77.2228 293.268 65.6751 289.34 65.6751 289.34C59.7536 315.64 55.7142 342.328 53.5878 369.202L29.4023 422.246C29.5426 422.495 29.7045 422.721 29.8556 422.948C33.007 427.848 38.3383 429.132 40.8961 429.423C41.3794 429.485 41.8658 429.521 42.353 429.531C42.353 429.531 72.5713 387.29 76.0248 378.257C79.4783 369.224 91.7815 318.49 91.7815 318.49C97.8144 318.49 106.232 313.31 106.232 313.31C109.47 316.115 140.973 340.063 140.973 340.063C140.109 351.072 146.369 399.421 146.369 399.421C152.412 401.795 161.262 399.421 161.262 399.421L166.464 330.124C152.186 312.856 109.902 275.105 109.902 275.105Z" fill="#4A97D2"/>
<path d="M42.9881 307.298C46.6964 309.248 50.5163 310.978 54.4279 312.479C58.1611 314.016 62.2272 314.566 66.2346 314.076C68.3931 313.871 66.9037 316.353 66.0188 316.893C63.9898 318.145 61.2054 318.511 58.9175 319.051C58.5383 319.15 58.1881 319.338 57.8955 319.599C57.6029 319.86 57.3762 320.186 57.2339 320.551C56.9682 321.296 56.9952 322.114 57.3094 322.839C58.1543 325.429 59.6391 327.764 61.6263 329.627C64.1193 331.959 66.6879 333.869 68.4902 336.847C68.8347 337.319 69.0096 337.893 68.9866 338.477C68.9706 338.618 68.9268 338.755 68.8578 338.879C68.7889 339.003 68.6961 339.112 68.5848 339.201C68.4735 339.289 68.3459 339.354 68.2093 339.393C68.0727 339.432 67.9298 339.443 67.7887 339.427C67.6248 339.37 67.4716 339.286 67.3354 339.179C65.0475 337.527 62.9538 335.628 60.7306 333.89C58.8183 332.6 57.0137 331.156 55.3345 329.574C56.1193 330.578 56.8403 331.63 57.4929 332.725C59.9751 336.243 62.4681 339.567 65.2202 342.902C65.5859 343.293 65.8718 343.751 66.0619 344.251C66.1669 344.485 66.1958 344.747 66.1447 344.998C66.0936 345.25 65.965 345.479 65.777 345.654C65.589 345.829 65.351 345.941 65.0963 345.974C64.8416 346.007 64.583 345.959 64.3568 345.837C63.9284 345.632 63.5409 345.35 63.2128 345.006C60.9968 342.956 58.8383 340.837 56.7375 338.65C55.0754 336.912 52.863 335.239 51.8378 332.973C53.31 336.221 54.5753 339.559 55.6259 342.967C56.2345 344.662 56.7002 346.406 57.018 348.179C57.126 349.054 57.2879 350.867 56.4676 351.417C56.1855 351.563 55.8636 351.614 55.5503 351.561C55.237 351.508 54.9492 351.356 54.7301 351.126C54.3016 350.653 53.9877 350.088 53.8128 349.474C52.068 345.055 50.5515 340.549 49.2692 335.973C49.4766 338.292 49.3016 340.629 48.7512 342.891C48.1468 344.791 48.0605 346.809 47.4669 348.73C47.305 349.259 47.046 349.809 46.5064 349.982C46.2652 350.014 46.0201 349.97 45.8053 349.856C45.5904 349.741 45.4167 349.563 45.3085 349.345C45.1023 348.902 44.992 348.42 44.9847 347.931L44.3048 339.297C44.0997 336.686 44.4991 334.074 43.6788 331.527C43.0313 329.552 41.5204 327.717 40.6246 325.85C38.8007 322.17 36.9229 318.468 35.2285 314.713" fill="#FF8F6E"/>
<path d="M31.8203 313.396C32.8995 314.378 34.0435 315.349 35.2199 316.31L44.7494 307.676C44.7494 307.676 43.5515 306.457 41.6628 304.438C38.2417 307.244 34.9501 310.266 31.8203 313.396Z" fill="#2A2343"/>
<path d="M41.6619 304.406C35.6614 297.833 22.538 282.616 17.7786 270.141C17.7786 270.141 25.5383 244.898 30.2868 237.354C22.4301 225.806 19.6673 205.085 19.6673 205.085C19.6673 205.085 -0.978272 252.484 0.0361982 270.421C0.0361982 270.421 8.098 292.427 31.8193 313.396C34.9491 310.266 38.2407 307.244 41.6619 304.406Z" fill="#FF928E"/>
<path d="M178.724 164.215L167.295 155.581L164.5 159.574C168.5 162.617 172.609 165.524 176.825 168.294C178.023 165.736 178.724 164.215 178.724 164.215Z" fill="#2A2343"/>
<path d="M164.5 159.574L139.678 195.059C123.295 187.299 86.6016 177.155 86.6016 177.155C92.6437 186.819 96.4046 197.733 97.5989 209.067L148.733 220.863C155.122 213.87 171.277 180.09 176.792 168.294C172.605 165.532 168.507 162.625 164.5 159.574Z" fill="#FF928E"/>
<path d="M167.338 156.757C168.18 154.685 169.022 152.289 167.997 150.282C167.209 148.771 165.525 147.919 164.554 146.516C163.356 144.81 163.388 142.566 163.173 140.494C163.021 139.101 161.683 136.425 162.158 135.097C163.032 132.691 165.266 134.558 166.097 135.745C167.119 137.503 167.948 139.366 168.569 141.303H192.797C192.797 141.303 187.93 155.516 177.429 163.179" fill="#FF9B7D"/>
<path d="M25.9165 454.763C21.4902 449.604 17.596 444.01 14.2932 438.068L12.3938 439.946C12.1531 440.137 11.97 440.391 11.865 440.68C11.7984 441.047 11.8553 441.427 12.0268 441.759C13.6474 445.511 15.831 448.994 18.5022 452.087C20.8009 454.979 22.9054 457.774 25.4956 460.451C30.7945 465.923 36.7195 471.103 43.9719 473.769C44.6977 474.039 45.4906 474.073 46.2369 473.866C46.9833 473.659 47.6449 473.22 48.1269 472.614C46.5994 472.045 45.1491 471.287 43.81 470.358C37.159 466.005 31.1381 460.757 25.9165 454.763V454.763Z" fill="white"/>
<path d="M29.8773 422.948L27.5462 426.185C27.9779 427.124 27.4059 429.348 27.5462 430.071C28.1182 432.456 28.8197 435.035 30.7839 436.546C32.0939 437.371 33.5662 437.905 35.1008 438.111C35.7002 436.872 36.593 435.797 37.7017 434.981L40.8746 429.466C38.36 429.132 33.0287 427.901 29.8773 422.948Z" fill="white"/>
<path d="M48.8281 461.681C47.5978 459.674 45.8387 458.001 44.8782 455.854C44.3183 454.397 43.9554 452.873 43.7989 451.321C43.1226 446.702 42.5542 442.061 42.0938 437.399C42.0819 436.715 41.9041 436.045 41.5757 435.446C41.1164 434.918 40.481 434.576 39.788 434.483C39.095 434.39 38.3917 434.551 37.8093 434.938V434.938C36.7006 435.754 35.8078 436.829 35.2083 438.068C33.6738 437.862 32.2015 437.328 30.8914 436.503C28.9272 435.035 28.2257 432.456 27.6538 430.028C27.4703 429.305 28.0423 427.082 27.6538 426.143C27.5994 426.003 27.4996 425.885 27.3705 425.809C27.2413 425.733 27.0902 425.702 26.9415 425.722C26.2724 425.722 25.0312 427.502 24.5564 427.966L22.1065 430.362L14.293 438.068C17.6094 444.012 21.5181 449.606 25.9594 454.764C31.1747 460.736 37.1844 465.965 43.8205 470.304C45.1596 471.234 46.6099 471.991 48.1374 472.56C49.1033 471.479 49.8378 470.212 50.2959 468.837C51.0513 466.387 50.1664 463.84 48.8281 461.681Z" fill="#FF3343"/>
<path d="M34.7129 443.669C36.1692 443.057 37.7372 442.755 39.3167 442.783C40.8961 442.811 42.4525 443.168 43.8863 443.831" stroke="#2A2343" stroke-width="1.94" stroke-linecap="round" stroke-linejoin="round"/>
<path d="M36.0703 447.015C38.3131 446.42 40.679 446.476 42.891 447.176C43.3337 447.275 43.7207 447.542 43.9702 447.921" stroke="#2A2343" stroke-width="1.94" stroke-linecap="round" stroke-linejoin="round"/>
<path d="M37.0098 451.105C39.0554 450.743 41.159 450.899 43.129 451.558C43.6237 451.774 44.0881 452.053 44.5104 452.389" stroke="#2A2343" stroke-width="1.94" stroke-linecap="round" stroke-linejoin="round"/>
</svg>
