<svg width="714" height="295" viewBox="0 0 714 295" fill="none" xmlns="http://www.w3.org/2000/svg">
<g clip-path="url(#clip0)">
<path fill-rule="evenodd" clip-rule="evenodd" d="M713.984 33.8373C713.984 33.8373 482.496 269.156 29.2734 295H328.583C328.583 295 562.898 238.696 713.984 57.1808V33.8373Z" fill="url(#paint0_linear)"/>
<path fill-rule="evenodd" clip-rule="evenodd" d="M328.582 295H341.676C341.676 295 552.959 244.683 713.983 61.6469V57.1809C713.983 57.1809 588.365 221.791 328.582 295Z" fill="#922752"/>
<path fill-rule="evenodd" clip-rule="evenodd" d="M170.941 294.932C170.941 294.932 459.676 276.212 713.983 46.3584V45.3926C713.983 45.3926 519.009 248.039 192.775 295L170.941 294.932Z" fill="url(#paint1_linear)"/>
<g style="mix-blend-mode:multiply" opacity="0.8">
<path fill-rule="evenodd" clip-rule="evenodd" d="M299.16 251.436C299.16 251.436 335.352 262.067 366.989 283.226V287.657C366.989 287.657 404.987 275.136 429.662 264.177V259.649L395.498 220.572C395.498 220.572 316.896 246.703 299.16 251.436Z" fill="#9C426B"/>
</g>
<path fill-rule="evenodd" clip-rule="evenodd" d="M0 259.916C0 259.916 136.485 149.569 376.798 172.063C376.798 172.063 186.578 138.972 0 228.065V259.916Z" fill="url(#paint2_linear)"/>
<path fill-rule="evenodd" clip-rule="evenodd" d="M0 228.066C0 228.066 127.182 163.487 274.17 172.782C405.928 181.084 445.969 295 445.969 295H713.984C713.984 295 546.726 177.186 329.354 166.049C118.271 155.213 0 223.654 0 223.654V228.066Z" fill="url(#paint3_linear)"/>
<g style="mix-blend-mode:multiply" opacity="0.2">
<g style="mix-blend-mode:multiply" opacity="0.2">
<path fill-rule="evenodd" clip-rule="evenodd" d="M432.732 257.361L615.341 269.595L638.752 289.062L450.268 285.459L432.732 257.361Z" fill="#8D426B"/>
</g>
<g style="mix-blend-mode:multiply" opacity="0.2">
<path fill-rule="evenodd" clip-rule="evenodd" d="M409.713 209.188L430.818 222.962L563.755 228.312L569.617 233.148L497.918 235.285L505.223 242.169H618.86C618.86 242.169 593.357 226.908 546.198 212.983L409.713 209.188Z" fill="#8D426B"/>
</g>
<g style="mix-blend-mode:multiply" opacity="0.2">
<path fill-rule="evenodd" clip-rule="evenodd" d="M478.342 243.368L490.344 257.279L609.75 261.375L580.541 244.683L478.342 243.368Z" fill="#8D426B"/>
</g>
<g style="mix-blend-mode:multiply" opacity="0.2">
<path fill-rule="evenodd" clip-rule="evenodd" d="M350.688 191.18L459.677 195.263L414.975 186.721L313.354 177.234L350.688 191.18Z" fill="#8D426B"/>
</g>
</g>
<path fill-rule="evenodd" clip-rule="evenodd" d="M454.629 295C454.629 295 410.919 178.33 262.346 170.446C140.962 164.001 0 220.538 0 220.538V228.072C0 228.072 137.635 164.515 262.746 173.131C407.399 183.104 445.969 295 445.969 295H454.629Z" fill="#561C40"/>
<path fill-rule="evenodd" clip-rule="evenodd" d="M260.361 164.891C490.343 163.227 582.611 295 582.611 295H587.48C587.48 295 494.669 160.843 260.361 164.891Z" fill="url(#paint4_linear)"/>
<path fill-rule="evenodd" clip-rule="evenodd" d="M212.959 167.974C403.036 147.171 465.045 295 465.045 295H469.915C469.915 295 405.542 144.055 212.959 167.974Z" fill="url(#paint5_linear)"/>
<path fill-rule="evenodd" clip-rule="evenodd" d="M341.441 166.789C530.383 180.05 703.274 295 703.274 295H708.144C708.144 295 531.104 176.591 341.441 166.789Z" fill="url(#paint6_linear)"/>
<path fill-rule="evenodd" clip-rule="evenodd" d="M273.186 164.891C503.167 163.227 595.464 295 595.464 295H600.333C600.333 295 507.494 160.843 273.186 164.891Z" fill="url(#paint7_linear)"/>
<g style="mix-blend-mode:soft-light" opacity="0.5">
<g style="mix-blend-mode:soft-light" opacity="0.5">
<path fill-rule="evenodd" clip-rule="evenodd" d="M408.32 229.894L471.779 233.148L481.468 246.991L427.005 250.005L408.32 229.894Z" fill="#CDA4AA"/>
</g>
<g style="mix-blend-mode:soft-light" opacity="0.5">
<path fill-rule="evenodd" clip-rule="evenodd" d="M400.625 223.058L441.222 224.483L444.792 227.209L403.06 225.086L400.625 223.058Z" fill="#CDA4AA"/>
</g>
<g style="mix-blend-mode:soft-light" opacity="0.5">
<path fill-rule="evenodd" clip-rule="evenodd" d="M428.834 198.146L448.183 210.325L524.072 212.366L477.556 195.263L428.834 198.146Z" fill="#CDA4AA"/>
</g>
<g style="mix-blend-mode:soft-light" opacity="0.5">
<path fill-rule="evenodd" clip-rule="evenodd" d="M360.627 181.652L352.83 178.639L415.668 180.187L445.791 187.488L360.627 181.652Z" fill="#CDA4AA"/>
</g>
<g style="mix-blend-mode:soft-light" opacity="0.5">
<path fill-rule="evenodd" clip-rule="evenodd" d="M504.951 257.779L510.163 262.547L662.42 272.109L643.1 261.793L504.951 257.779Z" fill="#CDA4AA"/>
</g>
</g>
<path fill-rule="evenodd" clip-rule="evenodd" d="M199.445 172.679C206.357 171.999 213.28 171.43 220.215 170.974C228.869 157.439 227.983 143.39 220.215 129.814C213.075 131.075 205.952 132.445 198.846 133.924C198.984 146.843 199.184 159.761 199.445 172.679Z" fill="url(#paint8_linear)"/>
<path fill-rule="evenodd" clip-rule="evenodd" d="M198.852 133.924C194.733 133.705 197.846 172.693 199.445 172.679C202.722 172.652 201.501 134.068 198.852 133.924Z" fill="#560040"/>
<path fill-rule="evenodd" clip-rule="evenodd" d="M218.33 171.104C225.256 170.602 232.191 170.211 239.136 169.933C248.168 156.631 247.703 142.534 240.299 128.787C233.126 129.865 225.965 131.052 218.816 132.349C218.592 145.267 218.43 158.186 218.33 171.104Z" fill="url(#paint9_linear)"/>
<path fill-rule="evenodd" clip-rule="evenodd" d="M218.815 132.349C214.71 132.027 216.731 171.076 218.33 171.104C221.6 171.159 221.464 132.561 218.815 132.349Z" fill="#560040"/>
<path fill-rule="evenodd" clip-rule="evenodd" d="M228.512 152.891C184.976 153.621 141.58 157.853 98.781 165.542C97.4673 162.117 96.8104 160.384 95.4824 156.952C159.475 141.346 225.28 133.631 291.307 133.993C291.069 140.545 290.831 147.1 290.593 153.658C269.923 152.671 249.253 152.411 228.512 152.891Z" fill="#560040"/>
<path fill-rule="evenodd" clip-rule="evenodd" d="M309.906 170.337C318.298 170.793 326.675 171.389 335.038 172.124C348.133 158.124 350.303 140.397 343.478 123.15C334.596 123.309 325.716 123.618 316.839 124.074C314.454 139.5 312.143 154.92 309.906 170.337Z" fill="url(#paint10_linear)"/>
<path fill-rule="evenodd" clip-rule="evenodd" d="M316.839 124.095C311.806 123.129 307.693 170.042 309.907 170.357C313.926 170.926 320.188 124.732 316.839 124.095Z" fill="#560040"/>
<path fill-rule="evenodd" clip-rule="evenodd" d="M315.838 129.855C312.268 129.102 309.163 164.35 310.641 164.576C313.632 165.035 318.073 130.321 315.838 129.855Z" fill="#6D2965"/>
<path fill-rule="evenodd" clip-rule="evenodd" d="M309.728 143.986C309.256 144.325 308.858 144.751 308.559 145.238C308.259 145.726 308.063 146.265 307.982 146.826C307.901 147.386 307.936 147.957 308.087 148.504C308.237 149.051 308.499 149.564 308.857 150.014C308.857 150.014 312.134 147.226 309.728 143.986Z" fill="#560040"/>
<g style="mix-blend-mode:soft-light">
<path fill-rule="evenodd" clip-rule="evenodd" d="M310.277 142.055C310.277 142.055 312.812 136.76 317.938 134.102C317.938 134.102 319.109 135.068 319.816 141.246C319.816 141.246 316.767 140.561 311.741 145.164C311.163 143.918 310.87 143.301 310.277 142.055Z" fill="#CAFFFF"/>
</g>
<g style="mix-blend-mode:soft-light">
<path fill-rule="evenodd" clip-rule="evenodd" d="M308.37 151.158C307.938 155.53 308.583 159.939 310.254 164.028C308.563 161.863 307.313 159.412 306.57 156.802C306.689 154.809 307.306 152.873 308.37 151.158V151.158Z" fill="#CAFFFF"/>
</g>
<path fill-rule="evenodd" clip-rule="evenodd" d="M259.313 156.781C284.616 155.466 309.834 155.288 335.152 156.247C336.887 150.254 337.765 147.253 339.543 141.274C311.957 137.784 284.205 135.633 256.393 134.828C257.387 142.144 258.361 149.461 259.313 156.781Z" fill="#560040"/>
<path fill-rule="evenodd" clip-rule="evenodd" d="M332.275 106.717C339.144 109.375 342.55 110.745 349.311 113.485C353.745 121.903 353.531 132.52 351.182 141.418C346.662 140.733 344.406 140.404 339.872 139.78C337.502 128.732 334.924 117.718 332.275 106.717Z" fill="url(#paint11_linear)"/>
<path fill-rule="evenodd" clip-rule="evenodd" d="M196.64 140.842C186.977 94.9953 176.451 49.3311 165.061 3.84952C197.061 1.07542 229.026 -0.219162 261.149 0.0274248C261.096 45.6186 261.125 91.2074 261.234 136.794C239.629 137.356 218.138 138.698 196.64 140.842Z" fill="url(#paint12_linear)"/>
<path fill-rule="evenodd" clip-rule="evenodd" d="M318.066 160.247C326.334 160.311 334.6 160.51 342.863 160.843C346.375 154.762 348.116 147.887 347.904 140.938C340.616 139.376 333.315 137.885 325.999 136.465C324.614 144.452 322.886 153.425 318.066 160.247Z" fill="#560040"/>
<path fill-rule="evenodd" clip-rule="evenodd" d="M205.629 139.993C198.965 100.457 191.842 60.9938 184.26 21.6038C205.015 19.9462 230.019 22.6998 246.241 36.2621C250.049 69.9486 253.535 103.665 256.701 137.411C239.622 137.801 222.629 138.657 205.629 139.993Z" fill="#C0004C"/>
<path fill-rule="evenodd" clip-rule="evenodd" d="M184.244 21.6037C214.979 19.6995 245.716 19.2178 276.455 20.1585C296.297 24.4669 316.624 31.0083 333.695 41.7965C304.6 38.6456 275.506 36.8031 246.225 36.262C229.746 22.5695 204.814 21.1654 184.244 21.6037Z" fill="url(#paint13_linear)"/>
<path fill-rule="evenodd" clip-rule="evenodd" d="M333.695 41.7965C333.795 74.0856 333.604 106.373 333.124 138.657C307.634 137.123 282.217 136.705 256.684 137.41C253.524 103.651 250.037 69.9348 246.225 36.262C275.505 36.8031 304.6 38.6456 333.695 41.7965Z" fill="url(#paint14_linear)"/>
<path fill-rule="evenodd" clip-rule="evenodd" d="M252.131 104.169C258.864 104.375 262.227 104.519 268.945 104.854C270.14 115.572 271.285 126.303 272.379 137.047C266.104 137.13 262.962 137.205 256.672 137.41C255.225 126.323 253.711 115.243 252.131 104.169Z" fill="#C0004C"/>
<path fill-rule="evenodd" clip-rule="evenodd" d="M252.131 104.169C278.941 103.005 305.68 103.032 332.483 104.231C337.987 106.971 340.722 108.341 346.134 111.211C320.573 109.587 295.077 109.039 269.466 109.58C262.584 107.32 259.114 106.258 252.131 104.169Z" fill="url(#paint15_linear)"/>
<path fill-rule="evenodd" clip-rule="evenodd" d="M346.133 111.211C344.01 120.732 341.922 130.26 339.871 139.794C317.385 137.881 294.876 136.831 272.342 136.643C271.419 127.62 270.467 118.599 269.486 109.581C295.076 109.039 320.579 109.587 346.133 111.211Z" fill="url(#paint16_linear)"/>
<path fill-rule="evenodd" clip-rule="evenodd" d="M252.387 78.6132C253.815 86.8328 255.226 95.0523 256.621 103.272C281.946 102.539 307.185 102.861 332.481 104.238C331.948 95.8126 331.377 87.3921 330.768 78.9762C304.615 77.7639 278.54 77.6474 252.387 78.6132Z" fill="url(#paint17_linear)"/>
<path fill-rule="evenodd" clip-rule="evenodd" d="M249.896 78.1818C240.566 78.4055 231.242 78.7891 221.922 79.3325C223.788 87.1959 225.608 95.0707 227.384 102.957C235.388 102.58 243.37 102.272 251.374 102.046C250.864 94.0957 250.372 86.141 249.896 78.1818Z" fill="#560040"/>
<path fill-rule="evenodd" clip-rule="evenodd" d="M165.06 3.89062C122.345 12.053 80.27 23.0386 39.1348 36.7689C57.0415 77.0584 74.1057 117.668 90.3274 158.596C125.311 150.406 160.828 144.477 196.64 140.849C186.977 95.0022 176.451 49.3494 165.06 3.89062Z" fill="#FF8C8E"/>
<path fill-rule="evenodd" clip-rule="evenodd" d="M89.8066 157.363C124.735 148.721 160.228 142.339 196.047 138.26C196.283 139.287 196.404 139.808 196.64 140.842C160.829 144.47 125.311 150.399 90.3279 158.59L89.8066 157.363Z" fill="url(#paint18_linear)"/>
<path fill-rule="evenodd" clip-rule="evenodd" d="M39.1348 36.7688C39.5703 37.673 39.7916 38.1387 40.22 39.0292C81.3883 25.8324 123.459 15.3845 166.131 7.7606C165.71 6.19889 165.496 5.42488 165.06 3.86316C122.345 12.0345 80.2693 23.0293 39.1348 36.7688V36.7688Z" fill="url(#paint19_linear)"/>
<path fill-rule="evenodd" clip-rule="evenodd" d="M261.177 2.30833C229.376 2.63712 197.754 4.45227 166.132 7.78804C165.71 6.22632 165.496 5.45231 165.061 3.8906C197.061 1.0754 229.026 -0.219183 261.148 0.0274037C261.163 0.938405 261.163 1.39733 261.177 2.30833Z" fill="url(#paint20_linear)"/>
<path fill-rule="evenodd" clip-rule="evenodd" d="M114.353 153.213C126.253 150.377 138.179 147.765 150.131 145.377C148.91 138.219 148.296 134.636 147.075 127.479C137.213 129.52 127.393 131.7 117.616 134.02C114.553 139.986 113.668 146.644 114.353 153.213Z" fill="#DB3B57"/>
<path fill-rule="evenodd" clip-rule="evenodd" d="M279.311 109.375C280.467 116.681 281.598 123.972 282.702 131.246C299.695 131.609 316.616 132.431 333.559 133.725C335.463 126.004 337.424 118.295 339.442 110.601C319.394 109.553 299.388 109.142 279.311 109.375Z" fill="#C4B9E2"/>
<path fill-rule="evenodd" clip-rule="evenodd" d="M281.217 111.731C282.116 118.752 282.552 122.259 283.402 129.28C299.852 129.878 316.259 130.908 332.624 132.369C334.233 125.711 335.868 119.06 337.529 112.416C318.744 111.635 300.016 111.43 281.217 111.731Z" fill="#88629D"/>
<path fill-rule="evenodd" clip-rule="evenodd" d="M334.637 112.286C333.523 118.935 332.426 125.588 331.346 132.246C315.381 130.876 299.4 129.887 283.402 129.28C282.552 122.259 282.116 118.752 281.217 111.731C299.045 111.43 316.816 111.601 334.637 112.286Z" fill="url(#paint21_linear)"/>
<path fill-rule="evenodd" clip-rule="evenodd" d="M279.311 109.375H277.633C279.061 116.64 280.446 123.914 281.788 131.198H282.702C281.598 123.956 280.467 116.681 279.311 109.375Z" fill="#88629D"/>
<g style="mix-blend-mode:soft-light">
<path fill-rule="evenodd" clip-rule="evenodd" d="M329.147 80.0175C322.069 80.2869 314.996 80.6545 307.928 81.1202C308.794 87.9105 309.622 94.7008 310.412 101.491C316.924 101.806 323.431 102.206 329.933 102.69C329.69 95.1369 329.428 87.5794 329.147 80.0175Z" fill="#CAFFFF"/>
</g>
<path fill-rule="evenodd" clip-rule="evenodd" d="M216.574 139.027C226.813 138.401 237.047 137.924 247.276 137.596C243.768 129.161 240.153 120.768 236.43 112.416C231.154 114.108 228.534 114.978 223.314 116.759C217.188 122.177 213.24 131.123 216.574 139.027Z" fill="#A1004F"/>
<path fill-rule="evenodd" clip-rule="evenodd" d="M230.532 170.563C238.9 170.106 247.27 169.798 255.643 169.638C264.489 153.028 263.132 132.417 246.739 120.499C239.371 121.608 232.022 122.787 224.691 124.033C226.691 139.532 228.637 155.041 230.532 170.563Z" fill="url(#paint22_linear)"/>
<path fill-rule="evenodd" clip-rule="evenodd" d="M224.691 124.033C219.336 124.033 228.454 170.686 230.532 170.563C234.644 170.337 228.247 124.013 224.691 124.033Z" fill="#560040"/>
<path fill-rule="evenodd" clip-rule="evenodd" d="M225.334 129.835C221.536 129.835 228.248 164.83 229.733 164.768C232.824 164.61 227.662 129.842 225.334 129.835Z" fill="#6D2965"/>
<path fill-rule="evenodd" clip-rule="evenodd" d="M223.256 144.5C223.256 144.5 220.564 147.295 224.056 150.555C224.743 149.635 225.043 148.5 224.895 147.377C224.746 146.254 224.161 145.226 223.256 144.5Z" fill="#560040"/>
<g style="mix-blend-mode:soft-light">
<path fill-rule="evenodd" clip-rule="evenodd" d="M223.27 142.527C223.27 142.527 224.305 137.048 228.589 133.794C228.589 133.794 230.017 134.616 232.409 140.644C232.409 140.644 229.246 140.335 225.561 145.438L223.27 142.527Z" fill="#CAFFFF"/>
</g>
<g style="mix-blend-mode:soft-light">
<path fill-rule="evenodd" clip-rule="evenodd" d="M223.885 151.713C224.685 156.206 226.496 160.478 229.19 164.234C226.968 162.289 225.092 160.011 223.635 157.487C223.221 155.572 223.306 153.588 223.885 151.713V151.713Z" fill="#CAFFFF"/>
</g>
<path fill-rule="evenodd" clip-rule="evenodd" d="M260.819 142.315C252.984 144.383 245.192 146.58 237.443 148.904C236.779 139.013 231.139 131.376 224.691 124.033C232.031 122.787 239.38 121.608 246.739 120.499C254.529 125.067 259.177 133.979 260.819 142.315Z" fill="#560040"/>
<path style="mix-blend-mode:multiply" opacity="0.51" fill-rule="evenodd" clip-rule="evenodd" d="M173.15 33.803C170.494 23.8116 167.797 13.8409 165.06 3.89062C122.345 12.053 80.27 23.0386 39.1348 36.7689C57.0415 77.0584 74.1057 117.668 90.3274 158.596C125.311 150.406 160.828 144.477 196.64 140.849C189.305 105.062 181.475 69.38 173.15 33.803Z" fill="url(#paint23_linear)"/>
<path d="M90.3342 158.617L89.9629 157.322L91.348 156.994L91.6979 158.322L90.3342 158.617ZM96.5672 157.144L96.2317 155.816L97.6239 155.494L97.9524 156.822L96.5672 157.144ZM102.815 155.72L102.486 154.35L103.914 154.041L104.235 155.377L102.815 155.72ZM109.069 154.35L108.755 152.98L110.183 152.685L110.49 154.021L109.069 154.35ZM115.338 153.014L115.038 151.678L116.466 151.384L116.766 152.754L115.338 153.014ZM121.621 151.733L121.328 150.363L122.756 150.082L123.049 151.452L121.621 151.733ZM127.911 150.493L127.633 149.123L129.061 148.856L129.339 150.226L127.911 150.493ZM134.208 149.308L133.944 147.938L135.372 147.678L135.644 149.048L134.208 149.308ZM140.52 148.171L140.263 146.801L141.691 146.555L141.941 147.925L140.52 148.171ZM146.839 147.082L146.589 145.712L148.017 145.473L148.26 146.842L146.839 147.082ZM153.165 146.041L152.929 144.671L154.357 144.452L154.586 145.822L153.165 146.041ZM159.505 145.048L159.276 143.678L160.704 143.466L160.926 144.836L159.505 145.048ZM165.845 144.103L165.631 142.733L167.059 142.527L167.273 143.897L165.845 144.103ZM172.2 143.205L171.992 141.835L173.42 141.644L173.613 143.014L172.2 143.205ZM178.554 142.356L178.361 140.986L179.789 140.801L179.975 142.171L178.554 142.356ZM184.923 141.568L184.737 140.198L186.165 140.027L186.344 141.397L184.923 141.568ZM191.291 140.822L191.12 139.452L192.548 139.294L192.712 140.664L191.291 140.822Z" fill="#FF6670"/>
<path fill-rule="evenodd" clip-rule="evenodd" d="M133.437 182.289C141.662 180.737 149.916 179.323 158.198 178.049C164.566 160.425 160.261 140.191 142.304 130.561C135.165 132.634 128.046 134.776 120.949 136.986C125.162 152.073 129.324 167.174 133.437 182.289Z" fill="url(#paint24_linear)"/>
<path fill-rule="evenodd" clip-rule="evenodd" d="M120.949 136.986C115.666 137.726 131.373 182.666 133.437 182.289C137.485 181.508 124.484 136.493 120.949 136.986Z" fill="#560040"/>
<path fill-rule="evenodd" clip-rule="evenodd" d="M122.428 142.65C118.644 143.144 130.332 176.899 131.803 176.652C134.858 176.097 124.741 142.349 122.428 142.65Z" fill="#6D2965"/>
<path fill-rule="evenodd" clip-rule="evenodd" d="M122.47 157.446C122.47 157.446 120.2 160.569 124.134 163.336C124.682 162.334 124.815 161.17 124.507 160.078C124.198 158.985 123.471 158.045 122.47 157.446V157.446Z" fill="#560040"/>
<g style="mix-blend-mode:soft-light">
<path fill-rule="evenodd" clip-rule="evenodd" d="M122.199 155.487C122.199 155.487 122.428 149.891 126.219 146.137C126.219 146.137 127.747 146.767 130.996 152.418C130.996 152.418 127.811 152.534 124.891 158.069L122.199 155.487Z" fill="#CAFFFF"/>
</g>
<g style="mix-blend-mode:soft-light">
<path fill-rule="evenodd" clip-rule="evenodd" d="M124.127 164.508C125.57 168.851 127.982 172.841 131.195 176.2C128.711 174.574 126.521 172.567 124.712 170.261C124.026 168.419 123.825 166.443 124.127 164.508V164.508Z" fill="#CAFFFF"/>
</g>
<path fill-rule="evenodd" clip-rule="evenodd" d="M137.385 169.117C143.235 166.428 149.125 163.82 155.056 161.295C154.928 150.281 151.908 137.568 142.304 130.561C135.165 132.634 128.046 134.776 120.949 136.986C130.352 145.822 135.2 156.781 137.385 169.117Z" fill="#560040"/>
<path fill-rule="evenodd" clip-rule="evenodd" d="M154.449 178.638C162.717 177.323 171.006 176.147 179.317 175.111C186.236 157.685 182.573 137.335 164.93 127.163C157.729 129.036 150.551 130.97 143.396 132.965C147.138 148.185 150.822 163.409 154.449 178.638Z" fill="url(#paint25_linear)"/>
<path fill-rule="evenodd" clip-rule="evenodd" d="M143.397 132.986C138.07 133.575 152.386 178.974 154.449 178.638C158.505 177.967 146.945 132.595 143.397 132.986Z" fill="#560040"/>
<path fill-rule="evenodd" clip-rule="evenodd" d="M144.698 138.691C140.906 139.075 151.523 173.179 153.001 172.94C156.064 172.481 147.018 138.458 144.698 138.691Z" fill="#6D2965"/>
<path fill-rule="evenodd" clip-rule="evenodd" d="M144.276 153.48C144.276 153.48 141.913 156.541 145.754 159.418C146.334 158.432 146.504 157.272 146.23 156.171C145.956 155.069 145.258 154.108 144.276 153.48Z" fill="#560040"/>
<g style="mix-blend-mode:soft-light">
<path fill-rule="evenodd" clip-rule="evenodd" d="M144.068 151.521C144.068 151.521 144.475 145.931 148.352 142.287C148.352 142.287 149.866 142.972 152.929 148.706C152.929 148.706 149.745 148.706 146.66 154.185C145.653 153.11 145.118 152.583 144.068 151.521Z" fill="#CAFFFF"/>
</g>
<g style="mix-blend-mode:soft-light">
<path fill-rule="evenodd" clip-rule="evenodd" d="M145.711 160.583C147.017 164.968 149.303 169.028 152.408 172.481C149.978 170.781 147.854 168.713 146.118 166.357C145.49 164.494 145.351 162.511 145.711 160.583V160.583Z" fill="#CAFFFF"/>
</g>
<path fill-rule="evenodd" clip-rule="evenodd" d="M240.457 108.163C233.86 110.69 230.59 111.992 224.1 114.649C233.617 117.834 238.151 128.931 240.314 137.506C248.354 137.143 256.379 136.863 264.433 136.664C262.99 124.02 255.015 109.772 240.457 108.163Z" fill="url(#paint26_linear)"/>
<path fill-rule="evenodd" clip-rule="evenodd" d="M182.216 151.082C174.5 153.872 166.815 156.813 159.161 159.905C157.933 149.48 152.971 138.705 143.396 132.986C150.336 130.972 157.31 129.065 164.316 127.266C174.79 130.068 180.781 141.513 182.216 151.082Z" fill="#560040"/>
<path fill-rule="evenodd" clip-rule="evenodd" d="M224.098 114.649C219.058 115.389 213.217 130.362 213.553 139.246L216.573 139.027C215.995 131.492 220.143 118.012 224.291 117.67C228.789 117.3 236.872 129.369 237.4 137.726L240.313 137.506C238.885 128.205 229.425 113.875 224.098 114.649Z" fill="#CC004C"/>
<path fill-rule="evenodd" clip-rule="evenodd" d="M264.432 136.664C265.524 142.041 266.06 144.726 267.109 150.103C290.456 150.151 313.689 151.13 336.951 153.048C338.108 147.747 338.693 145.096 339.871 139.794C317.385 137.881 294.876 136.831 272.343 136.643C269.173 136.636 267.595 136.643 264.432 136.664Z" fill="url(#paint27_radial)"/>
<g style="mix-blend-mode:multiply" opacity="0.5">
<path fill-rule="evenodd" clip-rule="evenodd" d="M264.432 136.664C265.524 142.041 266.06 144.726 267.109 150.103H272.343V136.643C269.173 136.636 267.595 136.643 264.432 136.664Z" fill="#7F096A"/>
</g>
<path style="mix-blend-mode:multiply" opacity="0.51" fill-rule="evenodd" clip-rule="evenodd" d="M184.244 21.6038C179.738 26.4602 177.518 28.8986 173.148 33.803C181.473 69.3891 189.303 105.069 196.638 140.842C200.208 140.479 202.022 140.315 205.613 139.993C198.959 100.457 191.836 60.9937 184.244 21.6038Z" fill="url(#paint28_linear)"/>
<path fill-rule="evenodd" clip-rule="evenodd" d="M157.934 146.548C168.286 144.721 178.663 143.073 189.063 141.603C185.201 133.506 178.975 125.8 171.135 120.917C161.468 122.437 151.829 124.09 142.219 125.876C148.716 131.369 154.792 138.774 157.934 146.548Z" fill="url(#paint29_linear)"/>
<path fill-rule="evenodd" clip-rule="evenodd" d="M142.22 125.876C133.652 128.077 125.101 130.419 116.567 132.903C113.518 139.404 111.662 146.527 111.976 153.685L114.353 153.226C114.17 146.865 115.601 140.555 118.523 134.842C125.915 132.792 133.324 130.817 140.749 128.917C147.004 133.917 150.952 140.322 154.858 147.089C156.843 146.733 157.835 146.555 159.856 146.212C155.65 138.513 149.938 130.609 142.22 125.876Z" fill="#FF5B5D"/>
<path fill-rule="evenodd" clip-rule="evenodd" d="M289.729 138.657C290.185 141.753 290.442 143.294 290.857 146.39C303.937 146.815 316.967 147.507 330.019 148.445C330.854 145.425 331.275 143.918 332.125 140.911C318.002 139.842 303.87 139.091 289.729 138.657Z" fill="white"/>
<g style="mix-blend-mode:multiply" opacity="0.5">
<path fill-rule="evenodd" clip-rule="evenodd" d="M289.728 138.657H289.014C289.214 141.74 289.321 143.281 289.521 146.37L290.856 146.404C290.413 143.294 290.185 141.753 289.728 138.657Z" fill="#A70969"/>
</g>
<path fill-rule="evenodd" clip-rule="evenodd" d="M281.561 114.451C299.953 114.451 318.259 115.012 336.616 116.094C336.509 116.505 336.459 116.711 336.359 117.122C318.138 116.074 299.946 115.546 281.703 115.546L281.561 114.451Z" fill="#C4B9E2"/>
<path fill-rule="evenodd" clip-rule="evenodd" d="M282.074 118.499C299.924 118.636 317.716 119.28 335.537 120.43C335.38 121.115 335.302 121.403 335.137 122.054C317.509 120.828 299.917 120.095 282.246 119.855C282.174 119.314 282.138 119.04 282.074 118.499Z" fill="#C4B9E2"/>
<path fill-rule="evenodd" clip-rule="evenodd" d="M282.66 123.211C299.91 123.513 317.081 124.28 334.288 125.533C334.188 125.93 334.138 126.129 334.045 126.533C316.974 125.417 299.939 124.766 282.832 124.581C282.739 124.033 282.739 123.759 282.66 123.211Z" fill="#C4B9E2"/>
<path fill-rule="evenodd" clip-rule="evenodd" d="M283.182 127.451C299.917 127.759 316.575 128.513 333.268 129.718L333.018 130.76C316.439 129.438 299.889 128.568 283.26 128.136C283.232 127.869 283.21 127.725 283.182 127.451Z" fill="#C4B9E2"/>
<g style="mix-blend-mode:soft-light">
<path fill-rule="evenodd" clip-rule="evenodd" d="M333.538 104.758C333.538 106.902 333.538 107.971 333.488 110.115C338.55 110.512 341.078 110.731 346.133 111.211C341.135 108.594 338.615 107.32 333.538 104.758Z" fill="#D6D2A6"/>
</g>
<path fill-rule="evenodd" clip-rule="evenodd" d="M333.688 81.771C335.215 80.8531 335.979 80.401 337.507 79.49C335.987 79.3736 335.223 79.3188 333.702 79.2161C333.695 80.2367 333.695 80.7504 333.688 81.771Z" fill="#88629D"/>
<path fill-rule="evenodd" clip-rule="evenodd" d="M251.387 73.6747C251.787 75.4556 251.979 76.346 252.372 78.1269C253.35 77.8872 253.843 77.7708 254.821 77.5447C253.464 75.9899 252.75 75.2159 251.387 73.6747Z" fill="#88629D"/>
<g style="mix-blend-mode:multiply" opacity="0.5">
<path fill-rule="evenodd" clip-rule="evenodd" d="M251.387 73.6747C251.166 75.5172 251.051 76.4145 250.83 78.2845C251.009 79.9489 251.094 80.7777 251.266 82.4422C278.761 80.9969 306.178 80.7709 333.688 81.7572C335.216 80.8394 335.98 80.3873 337.508 79.4763C309.948 77.5995 282.445 76.9557 254.821 77.531C253.465 75.9899 252.751 75.2159 251.387 73.6747Z" fill="#B80059"/>
</g>
<path fill-rule="evenodd" clip-rule="evenodd" d="M233.781 70.38C235.438 79.5722 237.061 88.769 238.651 97.9703C242.87 97.8059 244.984 97.7374 249.203 97.6278C248.542 88.0794 247.871 78.5333 247.19 68.9895C241.821 69.5032 239.136 69.7841 233.781 70.38Z" fill="#FFE2DE"/>
<path fill-rule="evenodd" clip-rule="evenodd" d="M233.781 70.38L232.203 70.4553C233.888 79.643 235.54 88.8329 237.158 98.0251L238.65 97.9703C237.065 88.7644 235.442 79.5676 233.781 70.38Z" fill="#88629D"/>
<path fill-rule="evenodd" clip-rule="evenodd" d="M343.213 75.9077C342.699 85.1547 342.173 94.3994 341.635 103.642C345.833 104.012 347.939 104.21 352.13 104.642C353.739 95.5091 355.36 86.3762 356.993 77.2434C351.481 76.6475 348.725 76.3872 343.213 75.9077Z" fill="#FFE2DE"/>
<path fill-rule="evenodd" clip-rule="evenodd" d="M343.213 75.9076L341.635 75.7706C341.159 85.0176 340.661 94.2646 340.143 103.512L341.635 103.642C342.173 94.3948 342.699 85.1501 343.213 75.9076Z" fill="#88629D"/>
<path fill-rule="evenodd" clip-rule="evenodd" d="M243.598 97.7923C243.919 101.121 244.083 102.786 244.404 106.115C249.081 106.115 251.423 106.115 256.092 106.115C255.935 105.758 255.85 105.58 255.685 105.231C251.637 105.135 249.609 105.101 245.554 105.053C244.926 102.142 244.604 100.683 243.955 97.7649L243.598 97.7923Z" fill="#C4B9E2"/>
<path fill-rule="evenodd" clip-rule="evenodd" d="M345.092 103.957C344.956 105.327 344.885 106.012 344.742 107.382L338.395 107.176L339.701 107.861C342.186 108.074 343.428 108.183 345.913 108.423C346.291 106.69 346.484 105.827 346.862 104.101L345.092 103.957Z" fill="#C4B9E2"/>
<path fill-rule="evenodd" clip-rule="evenodd" d="M336.631 137.691C336.631 137.691 331.361 131.198 339.03 127.876C339.03 127.869 344.142 135.082 336.631 137.691Z" fill="#C4B9E2"/>
<path fill-rule="evenodd" clip-rule="evenodd" d="M336.958 136.356C336.881 136.261 336.809 136.163 336.743 136.061C336.03 135.047 334.223 131.609 338.121 129.492C338.3 129.396 338.493 129.307 338.693 129.211C338.693 129.239 342.42 134.458 336.958 136.356Z" fill="#88629D"/>
<path fill-rule="evenodd" clip-rule="evenodd" d="M336.745 136.089C336.031 135.061 334.146 131.616 338.123 129.52C338.823 130.643 340.615 134.335 336.745 136.089Z" fill="white"/>
<path fill-rule="evenodd" clip-rule="evenodd" d="M276.07 135.705C276.07 135.705 269.088 130.807 275.356 125.656C275.385 125.656 282.461 131.294 276.07 135.705Z" fill="#C4B9E2"/>
<path fill-rule="evenodd" clip-rule="evenodd" d="M275.985 134.335C275.985 134.335 275.863 134.253 275.685 134.102C274.728 133.308 271.937 130.465 275.014 127.437C275.157 127.3 275.314 127.163 275.478 127.026C275.478 127.026 280.633 131.116 275.985 134.335Z" fill="#88629D"/>
<path fill-rule="evenodd" clip-rule="evenodd" d="M275.685 134.102C274.728 133.294 271.858 130.465 275.014 127.438C276.035 128.362 278.869 131.451 275.685 134.102Z" fill="white"/>
<path fill-rule="evenodd" clip-rule="evenodd" d="M219.352 19.9393C236.287 22.3503 254.779 27.0149 268.731 36.851C273.967 48.7557 278.964 60.7517 283.724 72.839C294.306 73.0262 304.875 73.355 315.432 73.8253C316.998 62.4595 318.591 51.1005 320.209 39.7484C305.858 29.0698 287.758 23.8436 270.359 19.9598C253.342 19.5488 236.34 19.542 219.352 19.9393Z" fill="#C0004C"/>
<path fill-rule="evenodd" clip-rule="evenodd" d="M268.322 19.9051C285.458 23.1724 303.886 29.1315 317.316 40.091C316.455 51.3244 315.6 62.5578 314.753 73.7912C304.41 73.3345 294.069 73.0171 283.73 72.8391C278.97 60.7654 273.972 48.7694 268.737 36.8511C254.942 26.7547 235.858 23.2409 219.357 19.9393C235.689 19.5558 252.01 19.5443 268.322 19.9051Z" fill="url(#paint30_linear)"/>
<path fill-rule="evenodd" clip-rule="evenodd" d="M268.731 36.8511C284.967 37.5589 301.162 38.6388 317.317 40.091C303.345 29.0288 285.809 23.371 268.324 19.9051C251.988 19.5398 235.664 19.5512 219.352 19.9393C235.952 23.1792 254.744 27.3095 268.731 36.8511Z" fill="url(#paint31_linear)"/>
<path fill-rule="evenodd" clip-rule="evenodd" d="M251.387 73.6747C278.875 72.8322 306.264 73.1952 333.716 74.7706C335.244 76.6543 336.001 77.5927 337.508 79.49C309.948 77.6132 282.445 76.9694 254.821 77.5447C253.464 75.9899 252.75 75.2159 251.387 73.6747Z" fill="#C4B9E2"/>
<g style="mix-blend-mode:soft-light">
<path fill-rule="evenodd" clip-rule="evenodd" d="M288.072 73.1678C288.072 73.1678 297.497 75.7091 303.144 76.3461C313.561 77.5311 324.493 77.5927 335.152 78.2229C334.581 76.853 334.296 76.168 333.724 74.7981C318.493 73.9213 303.278 73.387 288.079 73.1952L288.072 73.1678Z" fill="white"/>
</g>
<path fill-rule="evenodd" clip-rule="evenodd" d="M292.869 78.1543C293.75 86.3739 294.592 94.6117 295.397 102.868L297.246 102.929C296.256 94.5409 295.221 86.1524 294.14 77.7639L292.869 78.1543Z" fill="#6F296D"/>
<g style="mix-blend-mode:soft-light">
<path fill-rule="evenodd" clip-rule="evenodd" d="M259.256 82.0244C261.919 87.0657 263.226 89.5932 265.796 94.6619C271.272 94.477 274.014 94.4085 279.497 94.3194C279.19 91.2508 279.033 89.7233 278.719 86.6616C282.339 86.415 284.145 86.3054 287.772 86.1067C287.922 89.1411 288.001 90.6617 288.144 93.6961L289.379 93.5317C289.265 89.422 289.2 87.3671 289.079 83.2573C296.766 83.1112 304.456 83.0358 312.148 83.0312C312.533 89.1959 312.719 92.3194 313.076 98.5114L313.933 98.0525L314.754 87.8397C321.322 87.3397 324.614 87.1205 331.211 86.7506C330.954 84.6957 330.826 83.634 330.561 81.5586C306.772 80.8142 283.003 80.9695 259.256 82.0244Z" fill="#CAFFFF"/>
</g>
<path d="M40.2997 36.6258L39.4824 36.8945L39.9454 38.1904L40.7627 37.9217L40.2997 36.6258Z" fill="#FF6670"/>
<path d="M46.4107 36.0839L45.9609 34.7825L47.3032 34.3647L47.7388 35.6661L46.4107 36.0839ZM52.4082 34.2208L51.9727 32.9125L53.315 32.5084L53.7434 33.8098L52.4082 34.2208ZM58.4271 32.392L57.9987 31.0837L59.341 30.6864L59.7622 31.9947L58.4271 32.392ZM64.4174 30.6042L63.9962 29.2959L65.3385 28.8987L65.7597 30.2138L64.4174 30.6042ZM70.4577 28.8507L70.0436 27.5424L71.4002 27.1794L71.8072 28.4877L70.4577 28.8507ZM76.5052 27.1383L76.1053 25.8232L77.4548 25.4533L77.8546 26.7684L76.5052 27.1383ZM82.5669 25.467L82.1813 24.1519L83.5308 23.782L83.9163 25.104L82.5669 25.467ZM88.6429 23.8368L88.2645 22.5148L89.6139 22.1518L89.9923 23.4737L88.6429 23.8368ZM94.726 22.2408L94.3548 20.9188L95.7113 20.5626L96.0826 21.8915L94.726 22.2408ZM100.823 20.6791L100.459 19.3571L101.816 19.0146L102.18 20.3435L100.823 20.6791ZM106.928 19.1653L106.578 17.8365L107.935 17.5009L108.285 18.8297L106.928 19.1653ZM113.047 17.6858L112.704 16.357L114.061 16.0282L114.403 17.3981L113.047 17.6858ZM119.173 16.2474L118.837 14.9117L120.201 14.5966L120.537 15.9665L119.173 16.2474ZM125.306 14.8775L124.985 13.5075L126.348 13.2061L126.67 14.535L125.306 14.8775ZM131.453 13.5075L131.139 12.1376L132.503 11.8431L132.803 13.2061L131.453 13.5075ZM137.608 12.1855L137.301 10.8499L138.672 10.5622L138.979 11.9321L137.608 12.1855ZM143.77 10.9047L143.47 9.53474L144.848 9.2539L145.14 10.6238L143.77 10.9047ZM149.938 9.65118L149.646 8.28126L151.024 8.01412L151.309 9.38404L149.938 9.65118ZM156.114 8.44565L155.836 7.07572L157.214 6.81543L157.492 8.18536L156.114 8.44565Z" fill="#FF6670"/>
<path d="M165.199 5.38255L164.35 5.53345L164.61 6.88048L165.459 6.72958L165.199 5.38255Z" fill="#FF6670"/>
<path d="M169.987 6.24691L169.852 4.87699L171.28 4.74684L171.415 6.11677L169.987 6.24691ZM176.413 5.67154L176.285 4.30162L177.713 4.17832L177.841 5.54825L176.413 5.67154ZM182.839 5.13727L182.725 3.76735L184.153 3.6509L184.274 5.02083L182.839 5.13727ZM189.265 4.6441L189.158 3.27417L190.586 3.17142L190.693 4.54135L189.265 4.6441ZM195.691 4.19202L195.591 2.8221L197.019 2.7262L197.119 4.09613L195.691 4.19202ZM202.117 3.78104L202.024 2.41112L203.452 2.32892L203.544 3.69885L202.117 3.78104ZM208.542 3.41117L208.457 2.04124L209.885 1.96589L209.963 3.33582L208.542 3.41117ZM214.968 3.07553L214.897 1.7056L216.325 1.63711L216.389 3.00704L214.968 3.07553ZM221.394 2.78785L221.33 1.41792L222.758 1.36312L222.822 2.73305L221.394 2.78785ZM227.856 2.53441L227.784 1.84945V1.16448L229.212 1.10969L229.262 2.47962L227.856 2.53441ZM234.224 2.32892L234.182 0.958996L235.61 0.9179L235.652 2.28783L234.224 2.32892ZM240.65 2.16453L240.615 0.794606H242.043V2.16453H240.65ZM247.076 2.03439V0.664462H248.504V2.03439H247.076ZM253.502 1.94535V0.575418H254.93V1.94535H253.502ZM259.928 1.89739V0.527466H261.356V1.89739H259.928Z" fill="white"/>
<path d="M92.3406 189.187L77.9824 140.356L30.4453 156.72L50.2512 203.612L92.3406 189.187Z" fill="url(#paint32_linear)"/>
<path d="M30.4452 156.72L6.74805 165.398L29.2885 210.592L50.2511 203.612L30.4452 156.72Z" fill="url(#paint33_linear)"/>
<path d="M85.2209 189.639L83.793 185.563L89.1336 183.803L90.176 188.022L85.2209 189.639ZM84.2499 185.776L85.478 189.201L89.7619 187.79L88.8837 184.241L84.2499 185.776Z" fill="#AE3649"/>
<path d="M79.467 191.571L78.0391 187.461L83.194 185.769L84.4292 189.92L79.467 191.571ZM78.4603 187.701L79.6884 191.125L83.9723 189.721L82.9298 186.228L78.4603 187.701Z" fill="#AE3649"/>
<path d="M61.6381 146.185L69.6133 167.563L61.2382 168.2L53.0488 149.014L61.6381 146.185Z" fill="url(#paint34_linear)"/>
<path d="M21.3062 160.069L23.9051 167.343L17.979 169.296L14.2734 162.645L21.3062 160.069Z" fill="url(#paint35_linear)"/>
<path d="M75.5773 163.48L76.584 170.398L54.5719 174.022L53.1582 166.843L75.5773 163.48Z" fill="#FFFFD6"/>
<g style="mix-blend-mode:multiply" opacity="0.3">
<path d="M75.0129 169.638L74.4274 165.042L63.6034 166.754L63.582 171.083L75.0129 169.638Z" fill="#B80059"/>
</g>
<g style="mix-blend-mode:multiply" opacity="0.2">
<g style="mix-blend-mode:multiply" opacity="0.2">
<path d="M55.1498 172.625L54.1074 167.741L62.3896 166.528L63.1821 171.433L55.1498 172.625ZM54.9785 168.282L55.6925 171.844L62.3468 170.857L61.7756 167.309L54.9785 168.282Z" fill="#B80059"/>
</g>
</g>
<path d="M88.821 182.659L87.6429 178.118L76.1406 181.687L77.7828 186.289L88.821 182.659Z" fill="#FFFFD6"/>
<g style="mix-blend-mode:multiply" opacity="0.3">
<path d="M86.8224 179.077L87.3864 181.728L78.483 185.022L77.3906 181.974L86.8224 179.077Z" fill="#B80059"/>
</g>
<path style="mix-blend-mode:multiply" opacity="0.51" d="M50.2516 203.612L34.7796 207.749L29.2891 210.592L50.2516 203.612Z" fill="url(#paint36_linear)"/>
<path style="mix-blend-mode:multiply" opacity="0.51" d="M92.3394 189.187L71.7338 193.893L50.25 203.612L92.3394 189.187Z" fill="url(#paint37_linear)"/>
<g opacity="0.5">
<path opacity="0.5" d="M53.1076 193.262C53.1076 193.262 53.5217 201.715 48.8594 194.947L53.1076 193.262Z" fill="#AE3649"/>
<path opacity="0.5" d="M52.7161 199.557L52.3234 197.324L51.6094 197.557L52.7161 199.557Z" fill="#AE3649"/>
<path opacity="0.5" d="M53.9796 199.653L52.7159 199.557L51.7734 200.379L53.9796 199.653Z" fill="#AE3649"/>
</g>
<g opacity="0.5">
<path opacity="0.5" d="M61.1247 194.03C61.1247 194.03 55.877 187.413 55.877 195.756L61.1247 194.03Z" fill="#AE3649"/>
<path opacity="0.5" d="M59.3829 197.358L58.6903 194.831L58.1191 195.016L59.3829 197.358Z" fill="#AE3649"/>
</g>
<g style="mix-blend-mode:multiply" opacity="0.5">
<path d="M77.9822 140.356L30.4452 156.72L6.74805 165.398L29.2885 210.592L50.2511 203.612L92.3404 189.187L77.9822 140.356Z" fill="#DE6A6B"/>
</g>
<path fill-rule="evenodd" clip-rule="evenodd" d="M624.829 187.2C623.251 186.497 621.896 185.403 620.904 184.031C619.912 182.659 619.319 181.059 619.185 179.394C619.051 177.73 619.382 176.061 620.143 174.559C620.904 173.058 622.068 171.778 623.515 170.85L675.429 137.513C676.83 136.611 678.45 136.072 680.131 135.946C681.813 135.821 683.501 136.114 685.03 136.797C686.559 137.481 687.879 138.531 688.861 139.847C689.843 141.162 690.455 142.699 690.637 144.308L697.448 203.9C697.637 205.558 697.363 207.235 696.654 208.758C695.945 210.281 694.826 211.596 693.414 212.568C692.001 213.54 690.344 214.135 688.613 214.291C686.881 214.447 685.138 214.158 683.561 213.455L624.829 187.2Z" fill="url(#paint38_linear)"/>
<path fill-rule="evenodd" clip-rule="evenodd" d="M625.451 185.988C623.876 185.285 622.523 184.194 621.532 182.825C620.54 181.456 619.945 179.859 619.808 178.198C619.671 176.536 619.996 174.869 620.75 173.368C621.505 171.866 622.661 170.584 624.102 169.652L676.023 136.315C677.423 135.414 679.042 134.876 680.723 134.752C682.404 134.627 684.09 134.921 685.618 135.604C687.146 136.287 688.465 137.336 689.447 138.651C690.429 139.966 691.041 141.502 691.223 143.109L698.035 202.701C698.23 204.362 697.961 206.043 697.255 207.571C696.549 209.1 695.432 210.42 694.018 211.396C692.603 212.373 690.944 212.97 689.209 213.128C687.474 213.285 685.727 212.996 684.148 212.291L625.451 185.988Z" fill="url(#paint39_linear)"/>
<path fill-rule="evenodd" clip-rule="evenodd" d="M678.743 144.096L630.606 175.008C630.179 175.284 629.835 175.665 629.611 176.11C629.386 176.555 629.289 177.05 629.329 177.543C629.369 178.036 629.545 178.51 629.838 178.917C630.131 179.323 630.532 179.648 630.999 179.858L685.426 204.181C685.893 204.39 686.41 204.477 686.924 204.431C687.437 204.386 687.929 204.21 688.349 203.922C688.768 203.634 689.1 203.244 689.31 202.793C689.521 202.341 689.602 201.844 689.546 201.352L683.284 146.116C683.232 145.635 683.051 145.174 682.758 144.78C682.465 144.386 682.07 144.072 681.612 143.868C681.154 143.664 680.649 143.578 680.146 143.618C679.643 143.658 679.16 143.823 678.743 144.096Z" fill="url(#paint40_linear)"/>
<path fill-rule="evenodd" clip-rule="evenodd" d="M652.196 199.42L628.863 251.964L631.455 253.121L657.487 201.79L652.196 199.42Z" fill="url(#paint41_linear)"/>
<path style="mix-blend-mode:multiply" opacity="0.3" fill-rule="evenodd" clip-rule="evenodd" d="M647.221 210.619C647.221 210.619 652.019 208.112 652.568 211.496L657.488 201.79L652.197 199.427L647.221 210.619Z" fill="url(#paint42_linear)"/>
<path fill-rule="evenodd" clip-rule="evenodd" d="M644.613 178.988L647.469 169.85L655.195 173.275C655.195 173.275 659.571 189.269 675.957 182.55L682.876 185.639L677.721 193.783L644.613 178.988Z" fill="#600065"/>
<path fill-rule="evenodd" clip-rule="evenodd" d="M386.616 143.63L383.789 172.515L385.838 172.789L390.8 144.199L386.616 143.63Z" fill="url(#paint43_linear)"/>
<path style="mix-blend-mode:multiply" opacity="0.3" fill-rule="evenodd" clip-rule="evenodd" d="M385.623 152.391C385.623 152.391 388.393 149.692 389.521 151.918L390.799 144.205L386.615 143.63L385.623 152.391Z" fill="url(#paint44_linear)"/>
<path d="M391.078 144.404C403.57 144.404 413.697 134.689 413.697 122.704C413.697 110.72 403.57 101.005 391.078 101.005C378.586 101.005 368.459 110.72 368.459 122.704C368.459 134.689 378.586 144.404 391.078 144.404Z" fill="#C074AB"/>
<path d="M391.199 143.596C403.691 143.596 413.818 133.88 413.818 121.896C413.818 109.912 403.691 100.196 391.199 100.196C378.707 100.196 368.58 109.912 368.58 121.896C368.58 133.88 378.707 143.596 391.199 143.596Z" fill="url(#paint45_linear)"/>
<path d="M391.199 143.596C403.691 143.596 413.818 133.88 413.818 121.896C413.818 109.912 403.691 100.196 391.199 100.196C378.707 100.196 368.58 109.912 368.58 121.896C368.58 133.88 378.707 143.596 391.199 143.596Z" fill="url(#paint46_linear)"/>
<path d="M391.199 141.863C402.694 141.863 412.012 132.923 412.012 121.896C412.012 110.869 402.694 101.929 391.199 101.929C379.705 101.929 370.387 110.869 370.387 121.896C370.387 132.923 379.705 141.863 391.199 141.863Z" fill="url(#paint47_linear)"/>
<path fill-rule="evenodd" clip-rule="evenodd" d="M400.624 118.184L394.184 109.396L384.545 115.999L387.908 116.457L386.116 135.513L393.463 136.513L397.361 117.738L400.624 118.184Z" fill="url(#paint48_linear)"/>
<path fill-rule="evenodd" clip-rule="evenodd" d="M437.172 181.351L494.313 196.228L496.297 192.372L436.494 177.789L437.172 181.351Z" fill="url(#paint49_linear)"/>
<path fill-rule="evenodd" clip-rule="evenodd" d="M436.494 177.789L450.688 179.241L481.561 186.968L496.297 192.372L436.494 177.789Z" fill="#FFA039"/>
<path fill-rule="evenodd" clip-rule="evenodd" d="M450.268 180.186L481.919 133.205L485.603 189.029L450.268 180.186Z" fill="url(#paint50_linear)"/>
<path fill-rule="evenodd" clip-rule="evenodd" d="M453.031 176.09L485.332 184.906L484.839 177.426C484.839 177.426 474.251 173.714 456.087 171.556L453.031 176.09Z" fill="url(#paint51_linear)"/>
<path fill-rule="evenodd" clip-rule="evenodd" d="M462.92 161.432C462.92 161.432 475.365 162.179 484.061 165.624L483.583 158.432C483.583 158.432 475.636 154.672 466.447 156.165L462.92 161.432Z" fill="url(#paint52_linear)"/>
<path fill-rule="evenodd" clip-rule="evenodd" d="M471.779 148.26C471.779 148.26 478.119 146.719 483.025 150.007L482.589 143.377C482.589 143.377 479.469 140.972 475.785 142.308L471.779 148.26Z" fill="url(#paint53_linear)"/>
<path style="mix-blend-mode:screen" opacity="0.53" fill-rule="evenodd" clip-rule="evenodd" d="M482.033 133.232L485.724 189.064L469.381 184.974L482.033 133.232Z" fill="url(#paint54_linear)"/>
<g style="mix-blend-mode:multiply" opacity="0.5">
<path d="M449.653 178.58L449.41 179.483L484.953 188.272L485.195 187.368L449.653 178.58Z" fill="#EF0B6A"/>
</g>
<path fill-rule="evenodd" clip-rule="evenodd" d="M524.044 205.941L578.935 226.805L581.198 224.168L523.844 202.324L524.044 205.941Z" fill="url(#paint55_linear)"/>
<path fill-rule="evenodd" clip-rule="evenodd" d="M523.844 202.324L537.731 205.516L567.304 216.99L581.198 224.168L523.844 202.324Z" fill="#FFA039"/>
<path fill-rule="evenodd" clip-rule="evenodd" d="M537.188 206.4L574.872 163.72L571.037 219.538L537.188 206.4Z" fill="url(#paint56_linear)"/>
<path fill-rule="evenodd" clip-rule="evenodd" d="M540.486 202.681L571.338 215.414L571.852 207.934C571.852 207.934 561.856 202.941 544.128 198.564L540.486 202.681Z" fill="url(#paint57_linear)"/>
<path fill-rule="evenodd" clip-rule="evenodd" d="M552.246 189.344C552.246 189.344 564.491 191.625 572.645 196.119L573.144 188.92C573.144 188.92 565.769 184.207 556.473 184.557L552.246 189.344Z" fill="url(#paint58_linear)"/>
<path fill-rule="evenodd" clip-rule="evenodd" d="M562.799 177.399C562.799 177.399 569.296 176.652 573.716 180.522L574.173 173.885C574.173 173.885 571.402 171.145 567.575 171.987L562.799 177.399Z" fill="url(#paint59_linear)"/>
<path style="mix-blend-mode:screen" opacity="0.53" fill-rule="evenodd" clip-rule="evenodd" d="M574.986 163.761L571.152 219.579L555.494 213.51L574.986 163.761Z" fill="url(#paint60_linear)"/>
<g style="mix-blend-mode:multiply" opacity="0.5">
<path d="M537.204 206.423L536.84 207.287L570.809 220.466L571.173 219.603L537.204 206.423Z" fill="#EF0B6A"/>
</g>
</g>
<defs>
<linearGradient id="paint0_linear" x1="371.636" y1="295" x2="371.636" y2="33.8373" gradientUnits="userSpaceOnUse">
<stop offset="0.02" stop-color="#953D56"/>
<stop offset="0.99" stop-color="#C76D4B"/>
</linearGradient>
<linearGradient id="paint1_linear" x1="170.941" y1="170.213" x2="713.983" y2="170.213" gradientUnits="userSpaceOnUse">
<stop stop-color="#FFA522"/>
<stop offset="0.98" stop-color="#FF8304"/>
</linearGradient>
<linearGradient id="paint2_linear" x1="0" y1="212.983" x2="376.798" y2="212.983" gradientUnits="userSpaceOnUse">
<stop offset="0.02" stop-color="#C94A27"/>
<stop offset="0.99" stop-color="#7F515F"/>
</linearGradient>
<linearGradient id="paint3_linear" x1="356.992" y1="295" x2="356.992" y2="164.891" gradientUnits="userSpaceOnUse">
<stop offset="0.02" stop-color="#492656"/>
<stop offset="0.99" stop-color="#7F515F"/>
</linearGradient>
<linearGradient id="paint4_linear" x1="260.361" y1="229.901" x2="587.473" y2="229.901" gradientUnits="userSpaceOnUse">
<stop stop-color="#FFA522"/>
<stop offset="0.98" stop-color="#E65704"/>
</linearGradient>
<linearGradient id="paint5_linear" x1="341.44" y1="295" x2="341.44" y2="165.405" gradientUnits="userSpaceOnUse">
<stop stop-color="#9C8EF1"/>
<stop offset="1" stop-color="white"/>
</linearGradient>
<linearGradient id="paint6_linear" x1="269871" y1="166.789" x2="269871" y2="40273.9" gradientUnits="userSpaceOnUse">
<stop stop-color="#9C8EF1"/>
<stop offset="1" stop-color="white"/>
</linearGradient>
<linearGradient id="paint7_linear" x1="125446" y1="52890" x2="275329" y2="52890" gradientUnits="userSpaceOnUse">
<stop stop-color="#FFA522"/>
<stop offset="0.98" stop-color="#E65704"/>
</linearGradient>
<linearGradient id="paint8_linear" x1="214.72" y1="172.257" x2="206.946" y2="132.553" gradientUnits="userSpaceOnUse">
<stop stop-color="#631844"/>
<stop offset="0.98" stop-color="#520D57"/>
</linearGradient>
<linearGradient id="paint9_linear" x1="8920.62" y1="11311.1" x2="8920.62" y2="8782.21" gradientUnits="userSpaceOnUse">
<stop stop-color="#631844"/>
<stop offset="0.98" stop-color="#520D57"/>
</linearGradient>
<linearGradient id="paint10_linear" x1="331.06" y1="173.414" x2="321.341" y2="123.773" gradientUnits="userSpaceOnUse">
<stop stop-color="#722C4F"/>
<stop offset="0.98" stop-color="#590D57"/>
</linearGradient>
<linearGradient id="paint11_linear" x1="348.225" y1="141.998" x2="340.866" y2="104.987" gradientUnits="userSpaceOnUse">
<stop stop-color="#D80040"/>
<stop offset="0.98" stop-color="#FF2746"/>
</linearGradient>
<linearGradient id="paint12_linear" x1="243.019" y1="140.4" x2="213.935" y2="-5.86489" gradientUnits="userSpaceOnUse">
<stop stop-color="#FFC7B6"/>
<stop offset="0.54" stop-color="#FFFFCA"/>
</linearGradient>
<linearGradient id="paint13_linear" x1="189.414" y1="45.515" x2="328.032" y2="15.5661" gradientUnits="userSpaceOnUse">
<stop stop-color="#FF4559"/>
<stop offset="0.98" stop-color="#FF684D"/>
</linearGradient>
<linearGradient id="paint14_linear" x1="306.922" y1="143.845" x2="284.032" y2="28.7291" gradientUnits="userSpaceOnUse">
<stop stop-color="#FF0E4B"/>
<stop offset="0.98" stop-color="#FF4040"/>
</linearGradient>
<linearGradient id="paint15_linear" x1="33841.4" y1="1620.9" x2="45764.7" y2="1620.9" gradientUnits="userSpaceOnUse">
<stop stop-color="#FF4559"/>
<stop offset="0.98" stop-color="#FF684D"/>
</linearGradient>
<linearGradient id="paint16_linear" x1="313.792" y1="144.962" x2="305.335" y2="102.434" gradientUnits="userSpaceOnUse">
<stop offset="0.02" stop-color="#FF4040"/>
<stop offset="1" stop-color="#FF0E4B"/>
</linearGradient>
<linearGradient id="paint17_linear" x1="255.648" y1="98.7222" x2="331.498" y2="82.3345" gradientUnits="userSpaceOnUse">
<stop stop-color="#720B49"/>
<stop offset="0.98" stop-color="#590D57"/>
</linearGradient>
<linearGradient id="paint18_linear" x1="90.2129" y1="159.18" x2="195.691" y2="136.391" gradientUnits="userSpaceOnUse">
<stop offset="0.02" stop-color="#FF3822"/>
<stop offset="1" stop-color="#FF4237"/>
</linearGradient>
<linearGradient id="paint19_linear" x1="10856.7" y1="462.076" x2="34066.5" y2="462.076" gradientUnits="userSpaceOnUse">
<stop offset="0.02" stop-color="#FF3822"/>
<stop offset="1" stop-color="#FF4237"/>
</linearGradient>
<linearGradient id="paint20_linear" x1="166.882" y1="12.2634" x2="259.473" y2="-7.7411" gradientUnits="userSpaceOnUse">
<stop offset="0.02" stop-color="#FF8040"/>
<stop offset="1" stop-color="#FF5841"/>
</linearGradient>
<linearGradient id="paint21_linear" x1="282.838" y1="126.634" x2="335.295" y2="115.3" gradientUnits="userSpaceOnUse">
<stop stop-color="#720B49"/>
<stop offset="0.98" stop-color="#720D56"/>
</linearGradient>
<linearGradient id="paint22_linear" x1="14923.8" y1="10958.5" x2="14200.1" y2="7318.9" gradientUnits="userSpaceOnUse">
<stop stop-color="#722C4F"/>
<stop offset="0.98" stop-color="#590D57"/>
</linearGradient>
<linearGradient id="paint23_linear" x1="132.022" y1="153.678" x2="104.616" y2="15.8519" gradientUnits="userSpaceOnUse">
<stop stop-color="#FFE37E"/>
<stop offset="0.99" stop-color="#B30072"/>
</linearGradient>
<linearGradient id="paint24_linear" x1="10423.4" y1="11492" x2="9691.73" y2="7812.25" gradientUnits="userSpaceOnUse">
<stop stop-color="#722C4F"/>
<stop offset="0.98" stop-color="#590D57"/>
</linearGradient>
<linearGradient id="paint25_linear" x1="11502.6" y1="11303.7" x2="10772.5" y2="7631.84" gradientUnits="userSpaceOnUse">
<stop stop-color="#722C4F"/>
<stop offset="0.98" stop-color="#590D57"/>
</linearGradient>
<linearGradient id="paint26_linear" x1="13949.8" y1="6673.26" x2="13949.8" y2="5277.67" gradientUnits="userSpaceOnUse">
<stop stop-color="#FF0E4B"/>
<stop offset="0.98" stop-color="#FF4040"/>
</linearGradient>
<radialGradient id="paint27_radial" cx="0" cy="0" r="1" gradientUnits="userSpaceOnUse" gradientTransform="translate(320.3 129.153) rotate(-11.2464) scale(44.9428 43.2581)">
<stop stop-color="#CBEDDD"/>
<stop offset="1" stop-color="#BE98B6"/>
</radialGradient>
<linearGradient id="paint28_linear" x1="181.167" y1="84.2576" x2="199.981" y2="79.1043" gradientUnits="userSpaceOnUse">
<stop stop-color="#FFE3CF"/>
<stop offset="0.99" stop-color="#B30072"/>
</linearGradient>
<linearGradient id="paint29_linear" x1="144.822" y1="137.87" x2="186.328" y2="128.902" gradientUnits="userSpaceOnUse">
<stop offset="0.46" stop-color="#FFD4CA"/>
<stop offset="1" stop-color="#FFBFAC"/>
</linearGradient>
<linearGradient id="paint30_linear" x1="279.313" y1="80.8234" x2="265.384" y2="10.773" gradientUnits="userSpaceOnUse">
<stop stop-color="#EF044C"/>
<stop offset="0.98" stop-color="#FF4040"/>
</linearGradient>
<linearGradient id="paint31_linear" x1="223.457" y1="38.9208" x2="312.898" y2="19.5966" gradientUnits="userSpaceOnUse">
<stop stop-color="#FF4559"/>
<stop offset="0.98" stop-color="#FF3343"/>
</linearGradient>
<linearGradient id="paint32_linear" x1="69.9147" y1="197.66" x2="54.0677" y2="148.621" gradientUnits="userSpaceOnUse">
<stop offset="0.03" stop-color="#FF6A5B"/>
<stop offset="0.98" stop-color="#FFA16D"/>
</linearGradient>
<linearGradient id="paint33_linear" x1="35.2748" y1="208.94" x2="19.6123" y2="160.472" gradientUnits="userSpaceOnUse">
<stop offset="0.03" stop-color="#D13952"/>
<stop offset="0.98" stop-color="#FF654C"/>
</linearGradient>
<linearGradient id="paint34_linear" x1="63.8131" y1="169.939" x2="56.7854" y2="148.191" gradientUnits="userSpaceOnUse">
<stop stop-color="#A26B96"/>
<stop offset="1" stop-color="#BFA4A1"/>
</linearGradient>
<linearGradient id="paint35_linear" x1="18.8842" y1="169.185" x2="16.5034" y2="161.817" gradientUnits="userSpaceOnUse">
<stop stop-color="#885586"/>
<stop offset="1" stop-color="#8D6376"/>
</linearGradient>
<linearGradient id="paint36_linear" x1="-733.577" y1="3486.16" x2="-1346.91" y2="3701.51" gradientUnits="userSpaceOnUse">
<stop stop-color="#FFE3CF"/>
<stop offset="0.99" stop-color="#B30072"/>
</linearGradient>
<linearGradient id="paint37_linear" x1="1004.71" y1="6218.74" x2="-1476.47" y2="7089.91" gradientUnits="userSpaceOnUse">
<stop stop-color="#FFE3CF"/>
<stop offset="0.99" stop-color="#B30072"/>
</linearGradient>
<linearGradient id="paint38_linear" x1="654.207" y1="200.306" x2="682.991" y2="135.876" gradientUnits="userSpaceOnUse">
<stop stop-color="#EB4331"/>
<stop offset="0.98" stop-color="#FF7204"/>
</linearGradient>
<linearGradient id="paint39_linear" x1="654.796" y1="199.095" x2="683.58" y2="134.665" gradientUnits="userSpaceOnUse">
<stop offset="0.02" stop-color="#FFD604"/>
<stop offset="1" stop-color="#FFFF22"/>
</linearGradient>
<linearGradient id="paint40_linear" x1="658.235" y1="192.01" x2="680.049" y2="143.182" gradientUnits="userSpaceOnUse">
<stop stop-color="#FFFCFB"/>
<stop offset="1" stop-color="white"/>
</linearGradient>
<linearGradient id="paint41_linear" x1="639.648" y1="225.287" x2="644.862" y2="227.818" gradientUnits="userSpaceOnUse">
<stop offset="0.19" stop-color="#E0DCD5"/>
<stop offset="1" stop-color="#A490B8"/>
</linearGradient>
<linearGradient id="paint42_linear" x1="649.506" y1="211.617" x2="654.501" y2="200.437" gradientUnits="userSpaceOnUse">
<stop stop-color="#FFE3CF"/>
<stop offset="0.99" stop-color="#7C0072"/>
</linearGradient>
<linearGradient id="paint43_linear" x1="2142.55" y1="13402.3" x2="2183.64" y2="13408.4" gradientUnits="userSpaceOnUse">
<stop offset="0.19" stop-color="#E0DCD5"/>
<stop offset="1" stop-color="#A490B8"/>
</linearGradient>
<linearGradient id="paint44_linear" x1="2545.51" y1="4218.18" x2="2560.67" y2="4106.47" gradientUnits="userSpaceOnUse">
<stop stop-color="#FFE3CF"/>
<stop offset="0.99" stop-color="#7C0072"/>
</linearGradient>
<linearGradient id="paint45_linear" x1="21202.8" y1="21420.9" x2="21572.7" y2="18694.4" gradientUnits="userSpaceOnUse">
<stop stop-color="#FF0E4B"/>
<stop offset="0.98" stop-color="#FF4040"/>
</linearGradient>
<linearGradient id="paint46_linear" x1="388.055" y1="143.258" x2="393.893" y2="100.225" gradientUnits="userSpaceOnUse">
<stop stop-color="#FFD4CA"/>
<stop offset="1" stop-color="white"/>
</linearGradient>
<linearGradient id="paint47_linear" x1="388.309" y1="141.542" x2="393.679" y2="101.953" gradientUnits="userSpaceOnUse">
<stop stop-color="#00319A"/>
<stop offset="1" stop-color="#599FFF"/>
</linearGradient>
<linearGradient id="paint48_linear" x1="8832.06" y1="11349.7" x2="8832.06" y2="10282.9" gradientUnits="userSpaceOnUse">
<stop stop-color="#FFD4CA"/>
<stop offset="1" stop-color="white"/>
</linearGradient>
<linearGradient id="paint49_linear" x1="436.06" y1="179.445" x2="495.438" y2="195.59" gradientUnits="userSpaceOnUse">
<stop stop-color="#FF7731"/>
<stop offset="0.98" stop-color="#FF7204"/>
</linearGradient>
<linearGradient id="paint50_linear" x1="457.279" y1="154.465" x2="492.423" y2="164.021" gradientUnits="userSpaceOnUse">
<stop offset="0.02" stop-color="#FF7204"/>
<stop offset="1" stop-color="#FF4322"/>
</linearGradient>
<linearGradient id="paint51_linear" x1="453.839" y1="173.198" x2="486.145" y2="181.982" gradientUnits="userSpaceOnUse">
<stop stop-color="#FFD4CA"/>
<stop offset="1" stop-color="#FFBF8E"/>
</linearGradient>
<linearGradient id="paint52_linear" x1="14149.7" y1="3113.89" x2="14787.9" y2="3113.89" gradientUnits="userSpaceOnUse">
<stop stop-color="#FFD4CA"/>
<stop offset="1" stop-color="#FFBF8E"/>
</linearGradient>
<linearGradient id="paint53_linear" x1="7832.33" y1="2411.89" x2="8011.02" y2="2411.89" gradientUnits="userSpaceOnUse">
<stop stop-color="#FFD4CA"/>
<stop offset="1" stop-color="#FFBF8E"/>
</linearGradient>
<linearGradient id="paint54_linear" x1="470.57" y1="160.537" x2="487.068" y2="161.325" gradientUnits="userSpaceOnUse">
<stop offset="0.46"/>
<stop offset="0.51" stop-color="#070700"/>
<stop offset="0.59" stop-color="#191A00"/>
<stop offset="0.69" stop-color="#383900"/>
<stop offset="0.8" stop-color="#626500"/>
<stop offset="0.91" stop-color="#989C00"/>
<stop offset="1" stop-color="#C7CC00"/>
</linearGradient>
<linearGradient id="paint55_linear" x1="37078.1" y1="23575.2" x2="41617.9" y2="25489" gradientUnits="userSpaceOnUse">
<stop stop-color="#FF7731"/>
<stop offset="0.98" stop-color="#FF7204"/>
</linearGradient>
<linearGradient id="paint56_linear" x1="20750.9" y1="26459.5" x2="22516.4" y2="27203.8" gradientUnits="userSpaceOnUse">
<stop offset="0.02" stop-color="#FF7204"/>
<stop offset="1" stop-color="#FF4322"/>
</linearGradient>
<linearGradient id="paint57_linear" x1="20771.4" y1="14151.8" x2="22122.2" y2="14721.3" gradientUnits="userSpaceOnUse">
<stop stop-color="#FFD4CA"/>
<stop offset="1" stop-color="#FFBF8E"/>
</linearGradient>
<linearGradient id="paint58_linear" x1="14257.4" y1="9382" x2="14835.2" y2="9625.61" gradientUnits="userSpaceOnUse">
<stop stop-color="#FFD4CA"/>
<stop offset="1" stop-color="#FFBF8E"/>
</linearGradient>
<linearGradient id="paint59_linear" x1="7880.47" y1="5732.22" x2="8046" y2="5802.01" gradientUnits="userSpaceOnUse">
<stop stop-color="#FFD4CA"/>
<stop offset="1" stop-color="#FFBF8E"/>
</linearGradient>
<linearGradient id="paint60_linear" x1="8064.88" y1="21771.7" x2="8498.8" y2="21918.2" gradientUnits="userSpaceOnUse">
<stop offset="0.46"/>
<stop offset="0.51" stop-color="#070700"/>
<stop offset="0.59" stop-color="#191A00"/>
<stop offset="0.69" stop-color="#383900"/>
<stop offset="0.8" stop-color="#626500"/>
<stop offset="0.91" stop-color="#989C00"/>
<stop offset="1" stop-color="#C7CC00"/>
</linearGradient>
<clipPath id="clip0">
<rect width="713.984" height="295" fill="white"/>
</clipPath>
</defs>
</svg>
